<?xml version="1.0" encoding="utf-8"?>
<svg xmlns="http://www.w3.org/2000/svg" xmlns:xlink="http://www.w3.org/1999/xlink" width="600" height="400" viewBox="0 0 2400 1600">
<defs>
  <clipPath id="clip400">
    <rect x="0" y="0" width="2400" height="1600"/>
  </clipPath>
</defs>
<path clip-path="url(#clip400)" d="M0 1600 L2400 1600 L2400 0 L0 0  Z" fill="#ffffff" fill-rule="evenodd" fill-opacity="1"/>
<defs>
  <clipPath id="clip401">
    <rect x="480" y="0" width="1681" height="1600"/>
  </clipPath>
</defs>
<path clip-path="url(#clip400)" d="M249.542 1414.54 L2352.76 1414.54 L2352.76 47.2441 L249.542 47.2441  Z" fill="#ffffff" fill-rule="evenodd" fill-opacity="1"/>
<defs>
  <clipPath id="clip402">
    <rect x="249" y="47" width="2104" height="1368"/>
  </clipPath>
</defs>
<polyline clip-path="url(#clip402)" style="stroke:#000000; stroke-linecap:round; stroke-linejoin:round; stroke-width:2; stroke-opacity:0.1; fill:none" points="249.542,1414.54 249.542,47.2441 "/>
<polyline clip-path="url(#clip402)" style="stroke:#000000; stroke-linecap:round; stroke-linejoin:round; stroke-width:2; stroke-opacity:0.1; fill:none" points="687.855,1414.54 687.855,47.2441 "/>
<polyline clip-path="url(#clip402)" style="stroke:#000000; stroke-linecap:round; stroke-linejoin:round; stroke-width:2; stroke-opacity:0.1; fill:none" points="1126.17,1414.54 1126.17,47.2441 "/>
<polyline clip-path="url(#clip402)" style="stroke:#000000; stroke-linecap:round; stroke-linejoin:round; stroke-width:2; stroke-opacity:0.1; fill:none" points="1564.48,1414.54 1564.48,47.2441 "/>
<polyline clip-path="url(#clip402)" style="stroke:#000000; stroke-linecap:round; stroke-linejoin:round; stroke-width:2; stroke-opacity:0.1; fill:none" points="2002.79,1414.54 2002.79,47.2441 "/>
<polyline clip-path="url(#clip402)" style="stroke:#000000; stroke-linecap:round; stroke-linejoin:round; stroke-width:2; stroke-opacity:0.1; fill:none" points="249.542,1414.54 2352.76,1414.54 "/>
<polyline clip-path="url(#clip402)" style="stroke:#000000; stroke-linecap:round; stroke-linejoin:round; stroke-width:2; stroke-opacity:0.1; fill:none" points="249.542,1103.79 2352.76,1103.79 "/>
<polyline clip-path="url(#clip402)" style="stroke:#000000; stroke-linecap:round; stroke-linejoin:round; stroke-width:2; stroke-opacity:0.1; fill:none" points="249.542,793.042 2352.76,793.042 "/>
<polyline clip-path="url(#clip402)" style="stroke:#000000; stroke-linecap:round; stroke-linejoin:round; stroke-width:2; stroke-opacity:0.1; fill:none" points="249.542,482.293 2352.76,482.293 "/>
<polyline clip-path="url(#clip402)" style="stroke:#000000; stroke-linecap:round; stroke-linejoin:round; stroke-width:2; stroke-opacity:0.1; fill:none" points="249.542,171.544 2352.76,171.544 "/>
<polyline clip-path="url(#clip400)" style="stroke:#000000; stroke-linecap:round; stroke-linejoin:round; stroke-width:4; stroke-opacity:1; fill:none" points="249.542,1414.54 2352.76,1414.54 "/>
<polyline clip-path="url(#clip400)" style="stroke:#000000; stroke-linecap:round; stroke-linejoin:round; stroke-width:4; stroke-opacity:1; fill:none" points="249.542,1414.54 249.542,1395.64 "/>
<polyline clip-path="url(#clip400)" style="stroke:#000000; stroke-linecap:round; stroke-linejoin:round; stroke-width:4; stroke-opacity:1; fill:none" points="687.855,1414.54 687.855,1395.64 "/>
<polyline clip-path="url(#clip400)" style="stroke:#000000; stroke-linecap:round; stroke-linejoin:round; stroke-width:4; stroke-opacity:1; fill:none" points="1126.17,1414.54 1126.17,1395.64 "/>
<polyline clip-path="url(#clip400)" style="stroke:#000000; stroke-linecap:round; stroke-linejoin:round; stroke-width:4; stroke-opacity:1; fill:none" points="1564.48,1414.54 1564.48,1395.64 "/>
<polyline clip-path="url(#clip400)" style="stroke:#000000; stroke-linecap:round; stroke-linejoin:round; stroke-width:4; stroke-opacity:1; fill:none" points="2002.79,1414.54 2002.79,1395.64 "/>
<path clip-path="url(#clip400)" d="M229.042 1482.82 L249.441 1482.82 L249.441 1487.74 L222.01 1487.74 L222.01 1482.82 Q225.338 1479.38 231.067 1473.59 Q236.825 1467.77 238.301 1466.1 Q241.107 1462.94 242.207 1460.77 Q243.335 1458.57 243.335 1456.46 Q243.335 1453.02 240.905 1450.85 Q238.503 1448.68 234.626 1448.68 Q231.877 1448.68 228.81 1449.63 Q225.772 1450.59 222.3 1452.53 L222.3 1446.62 Q225.83 1445.21 228.897 1444.48 Q231.964 1443.76 234.51 1443.76 Q241.223 1443.76 245.216 1447.12 Q249.209 1450.47 249.209 1456.08 Q249.209 1458.75 248.197 1461.15 Q247.213 1463.52 244.58 1466.76 Q243.856 1467.6 239.979 1471.62 Q236.102 1475.62 229.042 1482.82 Z" fill="#000000" fill-rule="nonzero" fill-opacity="1" /><path clip-path="url(#clip400)" d="M271.865 1448.82 Q270.419 1446.33 267.496 1446.33 Q264.574 1446.33 263.127 1448.82 Q261.651 1451.31 261.651 1456.29 Q261.651 1461.29 263.127 1463.78 Q264.574 1466.27 267.496 1466.27 Q270.419 1466.27 271.865 1463.78 Q273.341 1461.29 273.341 1456.29 Q273.341 1451.31 271.865 1448.82 M267.496 1443.76 Q272.155 1443.76 274.614 1446.97 Q277.074 1450.18 277.074 1456.29 Q277.074 1462.42 274.614 1465.63 Q272.155 1468.85 267.496 1468.85 Q262.809 1468.85 260.349 1465.63 Q257.89 1462.42 257.89 1456.29 Q257.89 1450.18 260.349 1446.97 Q262.809 1443.76 267.496 1443.76 Z" fill="#000000" fill-rule="nonzero" fill-opacity="1" /><path clip-path="url(#clip400)" d="M668.193 1482.82 L688.592 1482.82 L688.592 1487.74 L661.162 1487.74 L661.162 1482.82 Q664.49 1479.38 670.219 1473.59 Q675.977 1467.77 677.452 1466.1 Q680.259 1462.94 681.359 1460.77 Q682.487 1458.57 682.487 1456.46 Q682.487 1453.02 680.057 1450.85 Q677.655 1448.68 673.778 1448.68 Q671.029 1448.68 667.962 1449.63 Q664.924 1450.59 661.451 1452.53 L661.451 1446.62 Q664.981 1445.21 668.049 1444.48 Q671.116 1443.76 673.662 1443.76 Q680.375 1443.76 684.368 1447.12 Q688.361 1450.47 688.361 1456.08 Q688.361 1458.75 687.348 1461.15 Q686.364 1463.52 683.731 1466.76 Q683.008 1467.6 679.131 1471.62 Q675.253 1475.62 668.193 1482.82 Z" fill="#000000" fill-rule="nonzero" fill-opacity="1" /><path clip-path="url(#clip400)" d="M702.279 1465.11 L714.547 1465.11 L714.547 1468.41 L697.244 1468.41 L697.244 1465.23 Q698.228 1464.33 700.051 1462.71 Q710.004 1453.89 710.004 1451.17 Q710.004 1449.26 708.5 1448.1 Q706.995 1446.91 704.536 1446.91 Q703.031 1446.91 701.266 1447.43 Q699.501 1447.93 697.418 1448.94 L697.418 1445.38 Q699.646 1444.57 701.555 1444.16 Q703.494 1443.76 705.143 1443.76 Q709.339 1443.76 711.856 1445.67 Q714.374 1447.58 714.374 1450.7 Q714.374 1454.72 704.796 1462.94 Q703.176 1464.33 702.279 1465.11 Z" fill="#000000" fill-rule="nonzero" fill-opacity="1" /><path clip-path="url(#clip400)" d="M1105.58 1482.82 L1125.98 1482.82 L1125.98 1487.74 L1098.55 1487.74 L1098.55 1482.82 Q1101.88 1479.38 1107.61 1473.59 Q1113.36 1467.77 1114.84 1466.1 Q1117.65 1462.94 1118.75 1460.77 Q1119.87 1458.57 1119.87 1456.46 Q1119.87 1453.02 1117.44 1450.85 Q1115.04 1448.68 1111.16 1448.68 Q1108.42 1448.68 1105.35 1449.63 Q1102.31 1450.59 1098.84 1452.53 L1098.84 1446.62 Q1102.37 1445.21 1105.44 1444.48 Q1108.5 1443.76 1111.05 1443.76 Q1117.76 1443.76 1121.75 1447.12 Q1125.75 1450.47 1125.75 1456.08 Q1125.75 1458.75 1124.73 1461.15 Q1123.75 1463.52 1121.12 1466.76 Q1120.39 1467.6 1116.52 1471.62 Q1112.64 1475.62 1105.58 1482.82 Z" fill="#000000" fill-rule="nonzero" fill-opacity="1" /><path clip-path="url(#clip400)" d="M1145.71 1447.75 L1136.77 1459.88 L1145.71 1459.88 L1145.71 1447.75 M1145.08 1444.25 L1149.88 1444.25 L1149.88 1459.88 L1153.79 1459.88 L1153.79 1463.03 L1149.88 1463.03 L1149.88 1468.41 L1145.71 1468.41 L1145.71 1463.03 L1133.73 1463.03 L1133.73 1459.53 L1145.08 1444.25 Z" fill="#000000" fill-rule="nonzero" fill-opacity="1" /><path clip-path="url(#clip400)" d="M1543.91 1482.82 L1564.31 1482.82 L1564.31 1487.74 L1536.88 1487.74 L1536.88 1482.82 Q1540.2 1479.38 1545.93 1473.59 Q1551.69 1467.77 1553.17 1466.1 Q1555.97 1462.94 1557.07 1460.77 Q1558.2 1458.57 1558.2 1456.46 Q1558.2 1453.02 1555.77 1450.85 Q1553.37 1448.68 1549.49 1448.68 Q1546.74 1448.68 1543.68 1449.63 Q1540.64 1450.59 1537.17 1452.53 L1537.17 1446.62 Q1540.7 1445.21 1543.76 1444.48 Q1546.83 1443.76 1549.38 1443.76 Q1556.09 1443.76 1560.08 1447.12 Q1564.07 1450.47 1564.07 1456.08 Q1564.07 1458.75 1563.06 1461.15 Q1562.08 1463.52 1559.45 1466.76 Q1558.72 1467.6 1554.84 1471.62 Q1550.97 1475.62 1543.91 1482.82 Z" fill="#000000" fill-rule="nonzero" fill-opacity="1" /><path clip-path="url(#clip400)" d="M1582.82 1454.96 Q1580.28 1454.96 1578.8 1456.46 Q1577.33 1457.99 1577.33 1460.63 Q1577.33 1463.23 1578.8 1464.74 Q1580.28 1466.27 1582.82 1466.27 Q1585.34 1466.27 1586.82 1464.74 Q1588.29 1463.23 1588.29 1460.63 Q1588.29 1457.99 1586.82 1456.46 Q1585.34 1454.96 1582.82 1454.96 M1590.29 1444.71 L1590.29 1447.69 Q1588.87 1447.12 1587.43 1446.83 Q1585.98 1446.51 1584.56 1446.51 Q1580.86 1446.51 1578.89 1448.68 Q1576.92 1450.88 1576.63 1455.3 Q1577.73 1453.89 1579.38 1453.13 Q1581.06 1452.38 1583.03 1452.38 Q1587.22 1452.38 1589.65 1454.58 Q1592.08 1456.81 1592.08 1460.63 Q1592.08 1464.3 1589.54 1466.59 Q1587.02 1468.85 1582.82 1468.85 Q1577.99 1468.85 1575.45 1465.63 Q1572.9 1462.42 1572.9 1456.29 Q1572.9 1450.56 1576.02 1447.17 Q1579.15 1443.76 1584.42 1443.76 Q1585.83 1443.76 1587.28 1443.99 Q1588.73 1444.25 1590.29 1444.71 Z" fill="#000000" fill-rule="nonzero" fill-opacity="1" /><path clip-path="url(#clip400)" d="M1982.32 1482.82 L2002.72 1482.82 L2002.72 1487.74 L1975.29 1487.74 L1975.29 1482.82 Q1978.62 1479.38 1984.35 1473.59 Q1990.1 1467.77 1991.58 1466.1 Q1994.39 1462.94 1995.49 1460.77 Q1996.61 1458.57 1996.61 1456.46 Q1996.61 1453.02 1994.18 1450.85 Q1991.78 1448.68 1987.91 1448.68 Q1985.16 1448.68 1982.09 1449.63 Q1979.05 1450.59 1975.58 1452.53 L1975.58 1446.62 Q1979.11 1445.21 1982.18 1444.48 Q1985.24 1443.76 1987.79 1443.76 Q1994.5 1443.76 1998.5 1447.12 Q2002.49 1450.47 2002.49 1456.08 Q2002.49 1458.75 2001.48 1461.15 Q2000.49 1463.52 1997.86 1466.76 Q1997.14 1467.6 1993.26 1471.62 Q1989.38 1475.62 1982.32 1482.82 Z" fill="#000000" fill-rule="nonzero" fill-opacity="1" /><path clip-path="url(#clip400)" d="M2025 1458.17 Q2023.47 1456.9 2020.78 1456.9 Q2018.08 1456.9 2016.55 1458.17 Q2015.02 1459.41 2015.02 1461.58 Q2015.02 1463.78 2016.55 1465.03 Q2018.08 1466.27 2020.78 1466.27 Q2023.44 1466.27 2025 1465 Q2026.53 1463.75 2026.53 1461.58 Q2026.53 1459.41 2025 1458.17 M2017.01 1455.48 Q2014.58 1454.96 2013.25 1453.54 Q2011.89 1452.09 2011.89 1450.01 Q2011.89 1447.12 2014.27 1445.44 Q2016.64 1443.76 2020.78 1443.76 Q2024.91 1443.76 2027.29 1445.44 Q2029.63 1447.12 2029.63 1450.01 Q2029.63 1452.15 2028.3 1453.54 Q2026.94 1454.96 2024.54 1455.48 Q2027.14 1456 2028.76 1457.68 Q2030.3 1459.27 2030.3 1461.58 Q2030.3 1465.08 2027.84 1466.96 Q2025.35 1468.85 2020.78 1468.85 Q2016.17 1468.85 2013.72 1466.96 Q2011.23 1465.08 2011.23 1461.58 Q2011.23 1459.33 2012.76 1457.68 Q2014.32 1456.06 2017.01 1455.48 M2015.63 1450.33 Q2015.63 1452.15 2016.98 1453.25 Q2018.32 1454.32 2020.78 1454.32 Q2023.12 1454.32 2024.54 1453.25 Q2025.93 1452.21 2025.93 1450.33 Q2025.93 1448.5 2024.54 1447.4 Q2023.18 1446.33 2020.78 1446.33 Q2018.37 1446.33 2016.98 1447.4 Q2015.63 1448.45 2015.63 1450.33 Z" fill="#000000" fill-rule="nonzero" fill-opacity="1" /><path clip-path="url(#clip400)" d="M659.343 1524.84 L665.836 1524.84 L675.83 1565.01 L685.792 1524.84 L693.017 1524.84 L703.011 1565.01 L712.974 1524.84 L719.498 1524.84 L707.563 1572.36 L699.478 1572.36 L689.452 1531.11 L679.331 1572.36 L671.246 1572.36 L659.343 1524.84 Z" fill="#000000" fill-rule="nonzero" fill-opacity="1" /><path clip-path="url(#clip400)" d="M726.342 1536.72 L732.198 1536.72 L732.198 1572.36 L726.342 1572.36 L726.342 1536.72 M726.342 1522.84 L732.198 1522.84 L732.198 1530.25 L726.342 1530.25 L726.342 1522.84 Z" fill="#000000" fill-rule="nonzero" fill-opacity="1" /><path clip-path="url(#clip400)" d="M750.245 1526.59 L750.245 1536.72 L762.308 1536.72 L762.308 1541.27 L750.245 1541.27 L750.245 1560.62 Q750.245 1564.98 751.422 1566.22 Q752.632 1567.46 756.292 1567.46 L762.308 1567.46 L762.308 1572.36 L756.292 1572.36 Q749.513 1572.36 746.935 1569.85 Q744.357 1567.3 744.357 1560.62 L744.357 1541.27 L740.06 1541.27 L740.06 1536.72 L744.357 1536.72 L744.357 1526.59 L750.245 1526.59 Z" fill="#000000" fill-rule="nonzero" fill-opacity="1" /><path clip-path="url(#clip400)" d="M799.643 1550.85 L799.643 1572.36 L793.786 1572.36 L793.786 1551.04 Q793.786 1545.98 791.813 1543.46 Q789.839 1540.95 785.893 1540.95 Q781.15 1540.95 778.413 1543.97 Q775.676 1547 775.676 1552.22 L775.676 1572.36 L769.788 1572.36 L769.788 1522.84 L775.676 1522.84 L775.676 1542.25 Q777.776 1539.04 780.609 1537.45 Q783.474 1535.86 787.198 1535.86 Q793.341 1535.86 796.492 1539.68 Q799.643 1543.46 799.643 1550.85 Z" fill="#000000" fill-rule="nonzero" fill-opacity="1" /><path clip-path="url(#clip400)" d="M811.324 1536.72 L817.18 1536.72 L817.18 1572.36 L811.324 1572.36 L811.324 1536.72 M811.324 1522.84 L817.18 1522.84 L817.18 1530.25 L811.324 1530.25 L811.324 1522.84 Z" fill="#000000" fill-rule="nonzero" fill-opacity="1" /><path clip-path="url(#clip400)" d="M859.067 1550.85 L859.067 1572.36 L853.21 1572.36 L853.21 1551.04 Q853.21 1545.98 851.237 1543.46 Q849.263 1540.95 845.317 1540.95 Q840.574 1540.95 837.837 1543.97 Q835.1 1547 835.1 1552.22 L835.1 1572.36 L829.211 1572.36 L829.211 1536.72 L835.1 1536.72 L835.1 1542.25 Q837.2 1539.04 840.033 1537.45 Q842.898 1535.86 846.622 1535.86 Q852.765 1535.86 855.916 1539.68 Q859.067 1543.46 859.067 1550.85 Z" fill="#000000" fill-rule="nonzero" fill-opacity="1" /><path clip-path="url(#clip400)" d="M897.261 1526.59 L897.261 1536.72 L909.324 1536.72 L909.324 1541.27 L897.261 1541.27 L897.261 1560.62 Q897.261 1564.98 898.438 1566.22 Q899.648 1567.46 903.308 1567.46 L909.324 1567.46 L909.324 1572.36 L903.308 1572.36 Q896.529 1572.36 893.951 1569.85 Q891.373 1567.3 891.373 1560.62 L891.373 1541.27 L887.076 1541.27 L887.076 1536.72 L891.373 1536.72 L891.373 1526.59 L897.261 1526.59 Z" fill="#000000" fill-rule="nonzero" fill-opacity="1" /><path clip-path="url(#clip400)" d="M946.659 1550.85 L946.659 1572.36 L940.802 1572.36 L940.802 1551.04 Q940.802 1545.98 938.829 1543.46 Q936.855 1540.95 932.909 1540.95 Q928.166 1540.95 925.429 1543.97 Q922.692 1547 922.692 1552.22 L922.692 1572.36 L916.804 1572.36 L916.804 1522.84 L922.692 1522.84 L922.692 1542.25 Q924.792 1539.04 927.625 1537.45 Q930.49 1535.86 934.214 1535.86 Q940.357 1535.86 943.508 1539.68 Q946.659 1543.46 946.659 1550.85 Z" fill="#000000" fill-rule="nonzero" fill-opacity="1" /><path clip-path="url(#clip400)" d="M958.34 1536.72 L964.196 1536.72 L964.196 1572.36 L958.34 1572.36 L958.34 1536.72 M958.34 1522.84 L964.196 1522.84 L964.196 1530.25 L958.34 1530.25 L958.34 1522.84 Z" fill="#000000" fill-rule="nonzero" fill-opacity="1" /><path clip-path="url(#clip400)" d="M999.176 1537.77 L999.176 1543.3 Q996.693 1542.03 994.02 1541.39 Q991.346 1540.76 988.481 1540.76 Q984.121 1540.76 981.925 1542.09 Q979.76 1543.43 979.76 1546.11 Q979.76 1548.14 981.32 1549.32 Q982.88 1550.47 987.59 1551.52 L989.595 1551.96 Q995.834 1553.3 998.444 1555.75 Q1001.09 1558.17 1001.09 1562.53 Q1001.09 1567.49 997.139 1570.39 Q993.224 1573.29 986.349 1573.29 Q983.484 1573.29 980.365 1572.71 Q977.278 1572.17 973.84 1571.06 L973.84 1565.01 Q977.087 1566.7 980.238 1567.56 Q983.389 1568.39 986.476 1568.39 Q990.614 1568.39 992.842 1566.98 Q995.07 1565.55 995.07 1562.97 Q995.07 1560.59 993.447 1559.31 Q991.855 1558.04 986.413 1556.86 L984.375 1556.39 Q978.933 1555.24 976.514 1552.88 Q974.095 1550.5 974.095 1546.36 Q974.095 1541.33 977.66 1538.59 Q981.224 1535.86 987.781 1535.86 Q991.028 1535.86 993.892 1536.33 Q996.757 1536.81 999.176 1537.77 Z" fill="#000000" fill-rule="nonzero" fill-opacity="1" /><path clip-path="url(#clip400)" d="M1049.18 1522.84 L1049.18 1527.71 L1043.58 1527.71 Q1040.43 1527.71 1039.18 1528.98 Q1037.97 1530.25 1037.97 1533.56 L1037.97 1536.72 L1047.62 1536.72 L1047.62 1541.27 L1037.97 1541.27 L1037.97 1572.36 L1032.09 1572.36 L1032.09 1541.27 L1026.48 1541.27 L1026.48 1536.72 L1032.09 1536.72 L1032.09 1534.23 Q1032.09 1528.28 1034.86 1525.58 Q1037.62 1522.84 1043.64 1522.84 L1049.18 1522.84 Z" fill="#000000" fill-rule="nonzero" fill-opacity="1" /><path clip-path="url(#clip400)" d="M1070.28 1554.44 Q1063.18 1554.44 1060.45 1556.07 Q1057.71 1557.69 1057.71 1561.61 Q1057.71 1564.72 1059.75 1566.57 Q1061.81 1568.39 1065.35 1568.39 Q1070.22 1568.39 1073.15 1564.95 Q1076.11 1561.48 1076.11 1555.75 L1076.11 1554.44 L1070.28 1554.44 M1081.96 1552.03 L1081.96 1572.36 L1076.11 1572.36 L1076.11 1566.95 Q1074.1 1570.2 1071.11 1571.76 Q1068.12 1573.29 1063.79 1573.29 Q1058.31 1573.29 1055.07 1570.23 Q1051.85 1567.14 1051.85 1561.99 Q1051.85 1555.97 1055.86 1552.92 Q1059.9 1549.86 1067.89 1549.86 L1076.11 1549.86 L1076.11 1549.29 Q1076.11 1545.25 1073.43 1543.05 Q1070.79 1540.82 1065.98 1540.82 Q1062.93 1540.82 1060.03 1541.55 Q1057.14 1542.29 1054.46 1543.75 L1054.46 1538.34 Q1057.68 1537.1 1060.7 1536.49 Q1063.72 1535.86 1066.59 1535.86 Q1074.32 1535.86 1078.14 1539.87 Q1081.96 1543.88 1081.96 1552.03 Z" fill="#000000" fill-rule="nonzero" fill-opacity="1" /><path clip-path="url(#clip400)" d="M1119.68 1538.08 L1119.68 1543.56 Q1117.2 1542.19 1114.68 1541.52 Q1112.2 1540.82 1109.65 1540.82 Q1103.96 1540.82 1100.8 1544.45 Q1097.65 1548.05 1097.65 1554.57 Q1097.65 1561.1 1100.8 1564.72 Q1103.96 1568.32 1109.65 1568.32 Q1112.2 1568.32 1114.68 1567.65 Q1117.2 1566.95 1119.68 1565.58 L1119.68 1571 Q1117.23 1572.14 1114.59 1572.71 Q1111.98 1573.29 1109.02 1573.29 Q1100.96 1573.29 1096.22 1568.23 Q1091.48 1563.17 1091.48 1554.57 Q1091.48 1545.85 1096.25 1540.85 Q1101.06 1535.86 1109.4 1535.86 Q1112.1 1535.86 1114.68 1536.43 Q1117.26 1536.97 1119.68 1538.08 Z" fill="#000000" fill-rule="nonzero" fill-opacity="1" /><path clip-path="url(#clip400)" d="M1135.66 1526.59 L1135.66 1536.72 L1147.72 1536.72 L1147.72 1541.27 L1135.66 1541.27 L1135.66 1560.62 Q1135.66 1564.98 1136.83 1566.22 Q1138.04 1567.46 1141.7 1567.46 L1147.72 1567.46 L1147.72 1572.36 L1141.7 1572.36 Q1134.92 1572.36 1132.35 1569.85 Q1129.77 1567.3 1129.77 1560.62 L1129.77 1541.27 L1125.47 1541.27 L1125.47 1536.72 L1129.77 1536.72 L1129.77 1526.59 L1135.66 1526.59 Z" fill="#000000" fill-rule="nonzero" fill-opacity="1" /><path clip-path="url(#clip400)" d="M1169.24 1540.82 Q1164.52 1540.82 1161.79 1544.51 Q1159.05 1548.17 1159.05 1554.57 Q1159.05 1560.97 1161.76 1564.66 Q1164.49 1568.32 1169.24 1568.32 Q1173.91 1568.32 1176.65 1564.63 Q1179.39 1560.94 1179.39 1554.57 Q1179.39 1548.24 1176.65 1544.55 Q1173.91 1540.82 1169.24 1540.82 M1169.24 1535.86 Q1176.87 1535.86 1181.23 1540.82 Q1185.6 1545.79 1185.6 1554.57 Q1185.6 1563.32 1181.23 1568.32 Q1176.87 1573.29 1169.24 1573.29 Q1161.56 1573.29 1157.2 1568.32 Q1152.88 1563.32 1152.88 1554.57 Q1152.88 1545.79 1157.2 1540.82 Q1161.56 1535.86 1169.24 1535.86 Z" fill="#000000" fill-rule="nonzero" fill-opacity="1" /><path clip-path="url(#clip400)" d="M1215.96 1542.19 Q1214.97 1541.62 1213.8 1541.36 Q1212.65 1541.08 1211.25 1541.08 Q1206.28 1541.08 1203.61 1544.32 Q1200.97 1547.54 1200.97 1553.59 L1200.97 1572.36 L1195.08 1572.36 L1195.08 1536.72 L1200.97 1536.72 L1200.97 1542.25 Q1202.81 1539.01 1205.77 1537.45 Q1208.73 1535.86 1212.97 1535.86 Q1213.57 1535.86 1214.3 1535.95 Q1215.04 1536.02 1215.93 1536.17 L1215.96 1542.19 Z" fill="#000000" fill-rule="nonzero" fill-opacity="1" /><path clip-path="url(#clip400)" d="M1256.64 1540.82 Q1251.93 1540.82 1249.19 1544.51 Q1246.45 1548.17 1246.45 1554.57 Q1246.45 1560.97 1249.16 1564.66 Q1251.89 1568.32 1256.64 1568.32 Q1261.32 1568.32 1264.05 1564.63 Q1266.79 1560.94 1266.79 1554.57 Q1266.79 1548.24 1264.05 1544.55 Q1261.32 1540.82 1256.64 1540.82 M1256.64 1535.86 Q1264.28 1535.86 1268.64 1540.82 Q1273 1545.79 1273 1554.57 Q1273 1563.32 1268.64 1568.32 Q1264.28 1573.29 1256.64 1573.29 Q1248.97 1573.29 1244.61 1568.32 Q1240.28 1563.32 1240.28 1554.57 Q1240.28 1545.79 1244.61 1540.82 Q1248.97 1535.86 1256.64 1535.86 Z" fill="#000000" fill-rule="nonzero" fill-opacity="1" /><path clip-path="url(#clip400)" d="M1300.75 1522.84 L1300.75 1527.71 L1295.15 1527.71 Q1292 1527.71 1290.76 1528.98 Q1289.55 1530.25 1289.55 1533.56 L1289.55 1536.72 L1299.19 1536.72 L1299.19 1541.27 L1289.55 1541.27 L1289.55 1572.36 L1283.66 1572.36 L1283.66 1541.27 L1278.06 1541.27 L1278.06 1536.72 L1283.66 1536.72 L1283.66 1534.23 Q1283.66 1528.28 1286.43 1525.58 Q1289.2 1522.84 1295.21 1522.84 L1300.75 1522.84 Z" fill="#000000" fill-rule="nonzero" fill-opacity="1" /><path clip-path="url(#clip400)" d="M1332.17 1526.59 L1332.17 1536.72 L1344.23 1536.72 L1344.23 1541.27 L1332.17 1541.27 L1332.17 1560.62 Q1332.17 1564.98 1333.34 1566.22 Q1334.55 1567.46 1338.21 1567.46 L1344.23 1567.46 L1344.23 1572.36 L1338.21 1572.36 Q1331.43 1572.36 1328.86 1569.85 Q1326.28 1567.3 1326.28 1560.62 L1326.28 1541.27 L1321.98 1541.27 L1321.98 1536.72 L1326.28 1536.72 L1326.28 1526.59 L1332.17 1526.59 Z" fill="#000000" fill-rule="nonzero" fill-opacity="1" /><path clip-path="url(#clip400)" d="M1381.56 1550.85 L1381.56 1572.36 L1375.71 1572.36 L1375.71 1551.04 Q1375.71 1545.98 1373.73 1543.46 Q1371.76 1540.95 1367.81 1540.95 Q1363.07 1540.95 1360.33 1543.97 Q1357.6 1547 1357.6 1552.22 L1357.6 1572.36 L1351.71 1572.36 L1351.71 1522.84 L1357.6 1522.84 L1357.6 1542.25 Q1359.7 1539.04 1362.53 1537.45 Q1365.39 1535.86 1369.12 1535.86 Q1375.26 1535.86 1378.41 1539.68 Q1381.56 1543.46 1381.56 1550.85 Z" fill="#000000" fill-rule="nonzero" fill-opacity="1" /><path clip-path="url(#clip400)" d="M1423.74 1553.08 L1423.74 1555.94 L1396.81 1555.94 Q1397.19 1561.99 1400.44 1565.17 Q1403.72 1568.32 1409.54 1568.32 Q1412.91 1568.32 1416.07 1567.49 Q1419.25 1566.67 1422.37 1565.01 L1422.37 1570.55 Q1419.22 1571.89 1415.91 1572.59 Q1412.6 1573.29 1409.19 1573.29 Q1400.66 1573.29 1395.66 1568.32 Q1390.7 1563.36 1390.7 1554.89 Q1390.7 1546.14 1395.41 1541.01 Q1400.15 1535.86 1408.17 1535.86 Q1415.37 1535.86 1419.54 1540.5 Q1423.74 1545.12 1423.74 1553.08 M1417.88 1551.36 Q1417.82 1546.55 1415.17 1543.69 Q1412.56 1540.82 1408.24 1540.82 Q1403.33 1540.82 1400.37 1543.59 Q1397.45 1546.36 1397 1551.39 L1417.88 1551.36 Z" fill="#000000" fill-rule="nonzero" fill-opacity="1" /><path clip-path="url(#clip400)" d="M1479.66 1554.57 Q1479.66 1548.11 1476.99 1544.45 Q1474.34 1540.76 1469.7 1540.76 Q1465.05 1540.76 1462.38 1544.45 Q1459.73 1548.11 1459.73 1554.57 Q1459.73 1561.03 1462.38 1564.72 Q1465.05 1568.39 1469.7 1568.39 Q1474.34 1568.39 1476.99 1564.72 Q1479.66 1561.03 1479.66 1554.57 M1459.73 1542.13 Q1461.58 1538.94 1464.38 1537.42 Q1467.21 1535.86 1471.13 1535.86 Q1477.62 1535.86 1481.66 1541.01 Q1485.74 1546.17 1485.74 1554.57 Q1485.74 1562.97 1481.66 1568.13 Q1477.62 1573.29 1471.13 1573.29 Q1467.21 1573.29 1464.38 1571.76 Q1461.58 1570.2 1459.73 1567.02 L1459.73 1572.36 L1453.85 1572.36 L1453.85 1522.84 L1459.73 1522.84 L1459.73 1542.13 Z" fill="#000000" fill-rule="nonzero" fill-opacity="1" /><path clip-path="url(#clip400)" d="M1525.94 1553.08 L1525.94 1555.94 L1499.01 1555.94 Q1499.39 1561.99 1502.64 1565.17 Q1505.92 1568.32 1511.74 1568.32 Q1515.12 1568.32 1518.27 1567.49 Q1521.45 1566.67 1524.57 1565.01 L1524.57 1570.55 Q1521.42 1571.89 1518.11 1572.59 Q1514.8 1573.29 1511.39 1573.29 Q1502.86 1573.29 1497.87 1568.32 Q1492.9 1563.36 1492.9 1554.89 Q1492.9 1546.14 1497.61 1541.01 Q1502.35 1535.86 1510.37 1535.86 Q1517.57 1535.86 1521.74 1540.5 Q1525.94 1545.12 1525.94 1553.08 M1520.08 1551.36 Q1520.02 1546.55 1517.38 1543.69 Q1514.77 1540.82 1510.44 1540.82 Q1505.54 1540.82 1502.58 1543.59 Q1499.65 1546.36 1499.2 1551.39 L1520.08 1551.36 Z" fill="#000000" fill-rule="nonzero" fill-opacity="1" /><path clip-path="url(#clip400)" d="M1558.28 1537.77 L1558.28 1543.3 Q1555.79 1542.03 1553.12 1541.39 Q1550.45 1540.76 1547.58 1540.76 Q1543.22 1540.76 1541.02 1542.09 Q1538.86 1543.43 1538.86 1546.11 Q1538.86 1548.14 1540.42 1549.32 Q1541.98 1550.47 1546.69 1551.52 L1548.7 1551.96 Q1554.93 1553.3 1557.54 1555.75 Q1560.19 1558.17 1560.19 1562.53 Q1560.19 1567.49 1556.24 1570.39 Q1552.32 1573.29 1545.45 1573.29 Q1542.58 1573.29 1539.47 1572.71 Q1536.38 1572.17 1532.94 1571.06 L1532.94 1565.01 Q1536.19 1566.7 1539.34 1567.56 Q1542.49 1568.39 1545.58 1568.39 Q1549.71 1568.39 1551.94 1566.98 Q1554.17 1565.55 1554.17 1562.97 Q1554.17 1560.59 1552.55 1559.31 Q1550.96 1558.04 1545.51 1556.86 L1543.48 1556.39 Q1538.03 1555.24 1535.61 1552.88 Q1533.19 1550.5 1533.19 1546.36 Q1533.19 1541.33 1536.76 1538.59 Q1540.32 1535.86 1546.88 1535.86 Q1550.13 1535.86 1552.99 1536.33 Q1555.86 1536.81 1558.28 1537.77 Z" fill="#000000" fill-rule="nonzero" fill-opacity="1" /><path clip-path="url(#clip400)" d="M1575.3 1526.59 L1575.3 1536.72 L1587.37 1536.72 L1587.37 1541.27 L1575.3 1541.27 L1575.3 1560.62 Q1575.3 1564.98 1576.48 1566.22 Q1577.69 1567.46 1581.35 1567.46 L1587.37 1567.46 L1587.37 1572.36 L1581.35 1572.36 Q1574.57 1572.36 1571.99 1569.85 Q1569.42 1567.3 1569.42 1560.62 L1569.42 1541.27 L1565.12 1541.27 L1565.12 1536.72 L1569.42 1536.72 L1569.42 1526.59 L1575.3 1526.59 Z" fill="#000000" fill-rule="nonzero" fill-opacity="1" /><path clip-path="url(#clip400)" d="M1629.86 1522.9 Q1625.59 1530.22 1623.52 1537.38 Q1621.46 1544.55 1621.46 1551.9 Q1621.46 1559.25 1623.52 1566.48 Q1625.62 1573.67 1629.86 1580.96 L1624.77 1580.96 Q1619.99 1573.48 1617.6 1566.25 Q1615.25 1559.03 1615.25 1551.9 Q1615.25 1544.8 1617.6 1537.61 Q1619.96 1530.41 1624.77 1522.9 L1629.86 1522.9 Z" fill="#000000" fill-rule="nonzero" fill-opacity="1" /><path clip-path="url(#clip400)" d="M1641.22 1522.84 L1647.08 1522.84 L1647.08 1572.36 L1641.22 1572.36 L1641.22 1522.84 Z" fill="#000000" fill-rule="nonzero" fill-opacity="1" /><path clip-path="url(#clip400)" d="M1673.14 1540.82 Q1668.43 1540.82 1665.7 1544.51 Q1662.96 1548.17 1662.96 1554.57 Q1662.96 1560.97 1665.67 1564.66 Q1668.4 1568.32 1673.14 1568.32 Q1677.82 1568.32 1680.56 1564.63 Q1683.3 1560.94 1683.3 1554.57 Q1683.3 1548.24 1680.56 1544.55 Q1677.82 1540.82 1673.14 1540.82 M1673.14 1535.86 Q1680.78 1535.86 1685.14 1540.82 Q1689.5 1545.79 1689.5 1554.57 Q1689.5 1563.32 1685.14 1568.32 Q1680.78 1573.29 1673.14 1573.29 Q1665.47 1573.29 1661.11 1568.32 Q1656.79 1563.32 1656.79 1554.57 Q1656.79 1545.79 1661.11 1540.82 Q1665.47 1535.86 1673.14 1535.86 Z" fill="#000000" fill-rule="nonzero" fill-opacity="1" /><path clip-path="url(#clip400)" d="M1722.67 1554.13 Q1722.67 1547.76 1720.03 1544.26 Q1717.42 1540.76 1712.68 1540.76 Q1707.97 1540.76 1705.32 1544.26 Q1702.71 1547.76 1702.71 1554.13 Q1702.71 1560.46 1705.32 1563.96 Q1707.97 1567.46 1712.68 1567.46 Q1717.42 1567.46 1720.03 1563.96 Q1722.67 1560.46 1722.67 1554.13 M1728.53 1567.94 Q1728.53 1577.04 1724.48 1581.47 Q1720.44 1585.92 1712.1 1585.92 Q1709.02 1585.92 1706.28 1585.45 Q1703.54 1585 1700.96 1584.04 L1700.96 1578.35 Q1703.54 1579.75 1706.06 1580.42 Q1708.57 1581.08 1711.18 1581.08 Q1716.94 1581.08 1719.81 1578.06 Q1722.67 1575.07 1722.67 1568.99 L1722.67 1566.09 Q1720.86 1569.24 1718.02 1570.8 Q1715.19 1572.36 1711.24 1572.36 Q1704.69 1572.36 1700.68 1567.37 Q1696.67 1562.37 1696.67 1554.13 Q1696.67 1545.85 1700.68 1540.85 Q1704.69 1535.86 1711.24 1535.86 Q1715.19 1535.86 1718.02 1537.42 Q1720.86 1538.98 1722.67 1542.13 L1722.67 1536.72 L1728.53 1536.72 L1728.53 1567.94 Z" fill="#000000" fill-rule="nonzero" fill-opacity="1" /><path clip-path="url(#clip400)" d="M1784.04 1537.77 L1784.04 1543.3 Q1781.55 1542.03 1778.88 1541.39 Q1776.21 1540.76 1773.34 1540.76 Q1768.98 1540.76 1766.78 1542.09 Q1764.62 1543.43 1764.62 1546.11 Q1764.62 1548.14 1766.18 1549.32 Q1767.74 1550.47 1772.45 1551.52 L1774.46 1551.96 Q1780.69 1553.3 1783.3 1555.75 Q1785.95 1558.17 1785.95 1562.53 Q1785.95 1567.49 1782 1570.39 Q1778.08 1573.29 1771.21 1573.29 Q1768.34 1573.29 1765.22 1572.71 Q1762.14 1572.17 1758.7 1571.06 L1758.7 1565.01 Q1761.95 1566.7 1765.1 1567.56 Q1768.25 1568.39 1771.34 1568.39 Q1775.47 1568.39 1777.7 1566.98 Q1779.93 1565.55 1779.93 1562.97 Q1779.93 1560.59 1778.31 1559.31 Q1776.71 1558.04 1771.27 1556.86 L1769.24 1556.39 Q1763.79 1555.24 1761.37 1552.88 Q1758.95 1550.5 1758.95 1546.36 Q1758.95 1541.33 1762.52 1538.59 Q1766.08 1535.86 1772.64 1535.86 Q1775.89 1535.86 1778.75 1536.33 Q1781.62 1536.81 1784.04 1537.77 Z" fill="#000000" fill-rule="nonzero" fill-opacity="1" /><path clip-path="url(#clip400)" d="M1820.92 1538.08 L1820.92 1543.56 Q1818.44 1542.19 1815.93 1541.52 Q1813.45 1540.82 1810.9 1540.82 Q1805.2 1540.82 1802.05 1544.45 Q1798.9 1548.05 1798.9 1554.57 Q1798.9 1561.1 1802.05 1564.72 Q1805.2 1568.32 1810.9 1568.32 Q1813.45 1568.32 1815.93 1567.65 Q1818.44 1566.95 1820.92 1565.58 L1820.92 1571 Q1818.47 1572.14 1815.83 1572.71 Q1813.22 1573.29 1810.26 1573.29 Q1802.21 1573.29 1797.47 1568.23 Q1792.72 1563.17 1792.72 1554.57 Q1792.72 1545.85 1797.5 1540.85 Q1802.31 1535.86 1810.64 1535.86 Q1813.35 1535.86 1815.93 1536.43 Q1818.51 1536.97 1820.92 1538.08 Z" fill="#000000" fill-rule="nonzero" fill-opacity="1" /><path clip-path="url(#clip400)" d="M1847.31 1554.44 Q1840.21 1554.44 1837.48 1556.07 Q1834.74 1557.69 1834.74 1561.61 Q1834.74 1564.72 1836.78 1566.57 Q1838.84 1568.39 1842.38 1568.39 Q1847.25 1568.39 1850.18 1564.95 Q1853.14 1561.48 1853.14 1555.75 L1853.14 1554.44 L1847.31 1554.44 M1858.99 1552.03 L1858.99 1572.36 L1853.14 1572.36 L1853.14 1566.95 Q1851.13 1570.2 1848.14 1571.76 Q1845.15 1573.29 1840.82 1573.29 Q1835.34 1573.29 1832.1 1570.23 Q1828.88 1567.14 1828.88 1561.99 Q1828.88 1555.97 1832.89 1552.92 Q1836.93 1549.86 1844.92 1549.86 L1853.14 1549.86 L1853.14 1549.29 Q1853.14 1545.25 1850.46 1543.05 Q1847.82 1540.82 1843.01 1540.82 Q1839.96 1540.82 1837.06 1541.55 Q1834.17 1542.29 1831.49 1543.75 L1831.49 1538.34 Q1834.71 1537.1 1837.73 1536.49 Q1840.75 1535.86 1843.62 1535.86 Q1851.35 1535.86 1855.17 1539.87 Q1858.99 1543.88 1858.99 1552.03 Z" fill="#000000" fill-rule="nonzero" fill-opacity="1" /><path clip-path="url(#clip400)" d="M1871.05 1522.84 L1876.91 1522.84 L1876.91 1572.36 L1871.05 1572.36 L1871.05 1522.84 Z" fill="#000000" fill-rule="nonzero" fill-opacity="1" /><path clip-path="url(#clip400)" d="M1919.66 1553.08 L1919.66 1555.94 L1892.73 1555.94 Q1893.11 1561.99 1896.36 1565.17 Q1899.64 1568.32 1905.46 1568.32 Q1908.84 1568.32 1911.99 1567.49 Q1915.17 1566.67 1918.29 1565.01 L1918.29 1570.55 Q1915.14 1571.89 1911.83 1572.59 Q1908.52 1573.29 1905.11 1573.29 Q1896.58 1573.29 1891.58 1568.32 Q1886.62 1563.36 1886.62 1554.89 Q1886.62 1546.14 1891.33 1541.01 Q1896.07 1535.86 1904.09 1535.86 Q1911.29 1535.86 1915.46 1540.5 Q1919.66 1545.12 1919.66 1553.08 M1913.8 1551.36 Q1913.74 1546.55 1911.1 1543.69 Q1908.49 1540.82 1904.16 1540.82 Q1899.25 1540.82 1896.29 1543.59 Q1893.37 1546.36 1892.92 1551.39 L1913.8 1551.36 Z" fill="#000000" fill-rule="nonzero" fill-opacity="1" /><path clip-path="url(#clip400)" d="M1928.35 1522.9 L1933.44 1522.9 Q1938.21 1530.41 1940.57 1537.61 Q1942.96 1544.8 1942.96 1551.9 Q1942.96 1559.03 1940.57 1566.25 Q1938.21 1573.48 1933.44 1580.96 L1928.35 1580.96 Q1932.58 1573.67 1934.65 1566.48 Q1936.75 1559.25 1936.75 1551.9 Q1936.75 1544.55 1934.65 1537.38 Q1932.58 1530.22 1928.35 1522.9 Z" fill="#000000" fill-rule="nonzero" fill-opacity="1" /><polyline clip-path="url(#clip400)" style="stroke:#000000; stroke-linecap:round; stroke-linejoin:round; stroke-width:4; stroke-opacity:1; fill:none" points="249.542,1414.54 249.542,47.2441 "/>
<polyline clip-path="url(#clip400)" style="stroke:#000000; stroke-linecap:round; stroke-linejoin:round; stroke-width:4; stroke-opacity:1; fill:none" points="249.542,1414.54 268.44,1414.54 "/>
<polyline clip-path="url(#clip400)" style="stroke:#000000; stroke-linecap:round; stroke-linejoin:round; stroke-width:4; stroke-opacity:1; fill:none" points="249.542,1103.79 268.44,1103.79 "/>
<polyline clip-path="url(#clip400)" style="stroke:#000000; stroke-linecap:round; stroke-linejoin:round; stroke-width:4; stroke-opacity:1; fill:none" points="249.542,793.042 268.44,793.042 "/>
<polyline clip-path="url(#clip400)" style="stroke:#000000; stroke-linecap:round; stroke-linejoin:round; stroke-width:4; stroke-opacity:1; fill:none" points="249.542,482.293 268.44,482.293 "/>
<polyline clip-path="url(#clip400)" style="stroke:#000000; stroke-linecap:round; stroke-linejoin:round; stroke-width:4; stroke-opacity:1; fill:none" points="249.542,171.544 268.44,171.544 "/>
<path clip-path="url(#clip400)" d="M126.205 1400.34 Q122.593 1400.34 120.765 1403.9 Q118.959 1407.44 118.959 1414.57 Q118.959 1421.68 120.765 1425.25 Q122.593 1428.79 126.205 1428.79 Q129.839 1428.79 131.644 1425.25 Q133.473 1421.68 133.473 1414.57 Q133.473 1407.44 131.644 1403.9 Q129.839 1400.34 126.205 1400.34 M126.205 1396.63 Q132.015 1396.63 135.07 1401.24 Q138.149 1405.82 138.149 1414.57 Q138.149 1423.3 135.07 1427.91 Q132.015 1432.49 126.205 1432.49 Q120.394 1432.49 117.316 1427.91 Q114.26 1423.3 114.26 1414.57 Q114.26 1405.82 117.316 1401.24 Q120.394 1396.63 126.205 1396.63 Z" fill="#000000" fill-rule="nonzero" fill-opacity="1" /><path clip-path="url(#clip400)" d="M146.366 1425.94 L151.251 1425.94 L151.251 1431.82 L146.366 1431.82 L146.366 1425.94 Z" fill="#000000" fill-rule="nonzero" fill-opacity="1" /><path clip-path="url(#clip400)" d="M171.436 1400.34 Q167.825 1400.34 165.996 1403.9 Q164.19 1407.44 164.19 1414.57 Q164.19 1421.68 165.996 1425.25 Q167.825 1428.79 171.436 1428.79 Q175.07 1428.79 176.876 1425.25 Q178.704 1421.68 178.704 1414.57 Q178.704 1407.44 176.876 1403.9 Q175.07 1400.34 171.436 1400.34 M171.436 1396.63 Q177.246 1396.63 180.301 1401.24 Q183.38 1405.82 183.38 1414.57 Q183.38 1423.3 180.301 1427.91 Q177.246 1432.49 171.436 1432.49 Q165.626 1432.49 162.547 1427.91 Q159.491 1423.3 159.491 1414.57 Q159.491 1405.82 162.547 1401.24 Q165.626 1396.63 171.436 1396.63 Z" fill="#000000" fill-rule="nonzero" fill-opacity="1" /><path clip-path="url(#clip400)" d="M201.598 1400.34 Q197.987 1400.34 196.158 1403.9 Q194.352 1407.44 194.352 1414.57 Q194.352 1421.68 196.158 1425.25 Q197.987 1428.79 201.598 1428.79 Q205.232 1428.79 207.037 1425.25 Q208.866 1421.68 208.866 1414.57 Q208.866 1407.44 207.037 1403.9 Q205.232 1400.34 201.598 1400.34 M201.598 1396.63 Q207.408 1396.63 210.463 1401.24 Q213.542 1405.82 213.542 1414.57 Q213.542 1423.3 210.463 1427.91 Q207.408 1432.49 201.598 1432.49 Q195.787 1432.49 192.709 1427.91 Q189.653 1423.3 189.653 1414.57 Q189.653 1405.82 192.709 1401.24 Q195.787 1396.63 201.598 1396.63 Z" fill="#000000" fill-rule="nonzero" fill-opacity="1" /><path clip-path="url(#clip400)" d="M127.2 1089.59 Q123.589 1089.59 121.76 1093.15 Q119.955 1096.7 119.955 1103.83 Q119.955 1110.93 121.76 1114.5 Q123.589 1118.04 127.2 1118.04 Q130.834 1118.04 132.64 1114.5 Q134.468 1110.93 134.468 1103.83 Q134.468 1096.7 132.64 1093.15 Q130.834 1089.59 127.2 1089.59 M127.2 1085.89 Q133.01 1085.89 136.066 1090.49 Q139.144 1095.08 139.144 1103.83 Q139.144 1112.55 136.066 1117.16 Q133.01 1121.74 127.2 1121.74 Q121.39 1121.74 118.311 1117.16 Q115.256 1112.55 115.256 1103.83 Q115.256 1095.08 118.311 1090.49 Q121.39 1085.89 127.2 1085.89 Z" fill="#000000" fill-rule="nonzero" fill-opacity="1" /><path clip-path="url(#clip400)" d="M147.362 1115.19 L152.246 1115.19 L152.246 1121.07 L147.362 1121.07 L147.362 1115.19 Z" fill="#000000" fill-rule="nonzero" fill-opacity="1" /><path clip-path="url(#clip400)" d="M166.459 1117.14 L182.778 1117.14 L182.778 1121.07 L160.834 1121.07 L160.834 1117.14 Q163.496 1114.38 168.079 1109.75 Q172.686 1105.1 173.866 1103.76 Q176.112 1101.23 176.991 1099.5 Q177.894 1097.74 177.894 1096.05 Q177.894 1093.29 175.95 1091.56 Q174.028 1089.82 170.927 1089.82 Q168.727 1089.82 166.274 1090.58 Q163.843 1091.35 161.065 1092.9 L161.065 1088.18 Q163.89 1087.04 166.343 1086.46 Q168.797 1085.89 170.834 1085.89 Q176.204 1085.89 179.399 1088.57 Q182.593 1091.26 182.593 1095.75 Q182.593 1097.88 181.783 1099.8 Q180.996 1101.7 178.889 1104.29 Q178.311 1104.96 175.209 1108.18 Q172.107 1111.37 166.459 1117.14 Z" fill="#000000" fill-rule="nonzero" fill-opacity="1" /><path clip-path="url(#clip400)" d="M192.639 1086.51 L210.996 1086.51 L210.996 1090.45 L196.922 1090.45 L196.922 1098.92 Q197.94 1098.57 198.959 1098.41 Q199.977 1098.22 200.996 1098.22 Q206.783 1098.22 210.162 1101.39 Q213.542 1104.57 213.542 1109.98 Q213.542 1115.56 210.07 1118.66 Q206.598 1121.74 200.278 1121.74 Q198.102 1121.74 195.834 1121.37 Q193.588 1121 191.181 1120.26 L191.181 1115.56 Q193.264 1116.7 195.487 1117.25 Q197.709 1117.81 200.186 1117.81 Q204.19 1117.81 206.528 1115.7 Q208.866 1113.59 208.866 1109.98 Q208.866 1106.37 206.528 1104.27 Q204.19 1102.16 200.186 1102.16 Q198.311 1102.16 196.436 1102.58 Q194.584 1102.99 192.639 1103.87 L192.639 1086.51 Z" fill="#000000" fill-rule="nonzero" fill-opacity="1" /><path clip-path="url(#clip400)" d="M126.205 778.84 Q122.593 778.84 120.765 782.405 Q118.959 785.947 118.959 793.076 Q118.959 800.183 120.765 803.748 Q122.593 807.289 126.205 807.289 Q129.839 807.289 131.644 803.748 Q133.473 800.183 133.473 793.076 Q133.473 785.947 131.644 782.405 Q129.839 778.84 126.205 778.84 M126.205 775.137 Q132.015 775.137 135.07 779.743 Q138.149 784.327 138.149 793.076 Q138.149 801.803 135.07 806.41 Q132.015 810.993 126.205 810.993 Q120.394 810.993 117.316 806.41 Q114.26 801.803 114.26 793.076 Q114.26 784.327 117.316 779.743 Q120.394 775.137 126.205 775.137 Z" fill="#000000" fill-rule="nonzero" fill-opacity="1" /><path clip-path="url(#clip400)" d="M146.366 804.442 L151.251 804.442 L151.251 810.322 L146.366 810.322 L146.366 804.442 Z" fill="#000000" fill-rule="nonzero" fill-opacity="1" /><path clip-path="url(#clip400)" d="M161.482 775.762 L179.839 775.762 L179.839 779.697 L165.765 779.697 L165.765 788.169 Q166.783 787.822 167.802 787.66 Q168.82 787.475 169.839 787.475 Q175.626 787.475 179.005 790.646 Q182.385 793.817 182.385 799.234 Q182.385 804.813 178.913 807.914 Q175.44 810.993 169.121 810.993 Q166.945 810.993 164.677 810.623 Q162.431 810.252 160.024 809.512 L160.024 804.813 Q162.107 805.947 164.329 806.502 Q166.552 807.058 169.028 807.058 Q173.033 807.058 175.371 804.951 Q177.709 802.845 177.709 799.234 Q177.709 795.623 175.371 793.516 Q173.033 791.41 169.028 791.41 Q167.153 791.41 165.278 791.827 Q163.427 792.243 161.482 793.123 L161.482 775.762 Z" fill="#000000" fill-rule="nonzero" fill-opacity="1" /><path clip-path="url(#clip400)" d="M201.598 778.84 Q197.987 778.84 196.158 782.405 Q194.352 785.947 194.352 793.076 Q194.352 800.183 196.158 803.748 Q197.987 807.289 201.598 807.289 Q205.232 807.289 207.037 803.748 Q208.866 800.183 208.866 793.076 Q208.866 785.947 207.037 782.405 Q205.232 778.84 201.598 778.84 M201.598 775.137 Q207.408 775.137 210.463 779.743 Q213.542 784.327 213.542 793.076 Q213.542 801.803 210.463 806.41 Q207.408 810.993 201.598 810.993 Q195.787 810.993 192.709 806.41 Q189.653 801.803 189.653 793.076 Q189.653 784.327 192.709 779.743 Q195.787 775.137 201.598 775.137 Z" fill="#000000" fill-rule="nonzero" fill-opacity="1" /><path clip-path="url(#clip400)" d="M127.2 468.091 Q123.589 468.091 121.76 471.656 Q119.955 475.198 119.955 482.327 Q119.955 489.434 121.76 492.999 Q123.589 496.54 127.2 496.54 Q130.834 496.54 132.64 492.999 Q134.468 489.434 134.468 482.327 Q134.468 475.198 132.64 471.656 Q130.834 468.091 127.2 468.091 M127.2 464.388 Q133.01 464.388 136.066 468.994 Q139.144 473.578 139.144 482.327 Q139.144 491.054 136.066 495.661 Q133.01 500.244 127.2 500.244 Q121.39 500.244 118.311 495.661 Q115.256 491.054 115.256 482.327 Q115.256 473.578 118.311 468.994 Q121.39 464.388 127.2 464.388 Z" fill="#000000" fill-rule="nonzero" fill-opacity="1" /><path clip-path="url(#clip400)" d="M147.362 493.693 L152.246 493.693 L152.246 499.573 L147.362 499.573 L147.362 493.693 Z" fill="#000000" fill-rule="nonzero" fill-opacity="1" /><path clip-path="url(#clip400)" d="M161.251 465.013 L183.473 465.013 L183.473 467.003 L170.927 499.573 L166.042 499.573 L177.848 468.948 L161.251 468.948 L161.251 465.013 Z" fill="#000000" fill-rule="nonzero" fill-opacity="1" /><path clip-path="url(#clip400)" d="M192.639 465.013 L210.996 465.013 L210.996 468.948 L196.922 468.948 L196.922 477.42 Q197.94 477.073 198.959 476.911 Q199.977 476.726 200.996 476.726 Q206.783 476.726 210.162 479.897 Q213.542 483.068 213.542 488.485 Q213.542 494.064 210.07 497.165 Q206.598 500.244 200.278 500.244 Q198.102 500.244 195.834 499.874 Q193.588 499.503 191.181 498.763 L191.181 494.064 Q193.264 495.198 195.487 495.753 Q197.709 496.309 200.186 496.309 Q204.19 496.309 206.528 494.202 Q208.866 492.096 208.866 488.485 Q208.866 484.874 206.528 482.767 Q204.19 480.661 200.186 480.661 Q198.311 480.661 196.436 481.077 Q194.584 481.494 192.639 482.374 L192.639 465.013 Z" fill="#000000" fill-rule="nonzero" fill-opacity="1" /><path clip-path="url(#clip400)" d="M117.015 184.889 L124.654 184.889 L124.654 158.523 L116.343 160.19 L116.343 155.93 L124.607 154.264 L129.283 154.264 L129.283 184.889 L136.922 184.889 L136.922 188.824 L117.015 188.824 L117.015 184.889 Z" fill="#000000" fill-rule="nonzero" fill-opacity="1" /><path clip-path="url(#clip400)" d="M146.366 182.944 L151.251 182.944 L151.251 188.824 L146.366 188.824 L146.366 182.944 Z" fill="#000000" fill-rule="nonzero" fill-opacity="1" /><path clip-path="url(#clip400)" d="M171.436 157.342 Q167.825 157.342 165.996 160.907 Q164.19 164.449 164.19 171.578 Q164.19 178.685 165.996 182.25 Q167.825 185.791 171.436 185.791 Q175.07 185.791 176.876 182.25 Q178.704 178.685 178.704 171.578 Q178.704 164.449 176.876 160.907 Q175.07 157.342 171.436 157.342 M171.436 153.639 Q177.246 153.639 180.301 158.245 Q183.38 162.828 183.38 171.578 Q183.38 180.305 180.301 184.912 Q177.246 189.495 171.436 189.495 Q165.626 189.495 162.547 184.912 Q159.491 180.305 159.491 171.578 Q159.491 162.828 162.547 158.245 Q165.626 153.639 171.436 153.639 Z" fill="#000000" fill-rule="nonzero" fill-opacity="1" /><path clip-path="url(#clip400)" d="M201.598 157.342 Q197.987 157.342 196.158 160.907 Q194.352 164.449 194.352 171.578 Q194.352 178.685 196.158 182.25 Q197.987 185.791 201.598 185.791 Q205.232 185.791 207.037 182.25 Q208.866 178.685 208.866 171.578 Q208.866 164.449 207.037 160.907 Q205.232 157.342 201.598 157.342 M201.598 153.639 Q207.408 153.639 210.463 158.245 Q213.542 162.828 213.542 171.578 Q213.542 180.305 210.463 184.912 Q207.408 189.495 201.598 189.495 Q195.787 189.495 192.709 184.912 Q189.653 180.305 189.653 171.578 Q189.653 162.828 192.709 158.245 Q195.787 153.639 201.598 153.639 Z" fill="#000000" fill-rule="nonzero" fill-opacity="1" /><path clip-path="url(#clip400)" d="M21.7677 1091.81 L39.6235 1091.81 L39.6235 1083.73 Q39.6235 1079.24 37.3 1076.79 Q34.9765 1074.34 30.6797 1074.34 Q26.4147 1074.34 24.0912 1076.79 Q21.7677 1079.24 21.7677 1083.73 L21.7677 1091.81 M16.4842 1098.24 L16.4842 1083.73 Q16.4842 1075.74 20.1126 1071.66 Q23.7092 1067.56 30.6797 1067.56 Q37.7138 1067.56 41.3104 1071.66 Q44.907 1075.74 44.907 1083.73 L44.907 1091.81 L64.0042 1091.81 L64.0042 1098.24 L16.4842 1098.24 Z" fill="#000000" fill-rule="nonzero" fill-opacity="1" /><path clip-path="url(#clip400)" d="M33.8307 1039.68 Q33.2578 1040.66 33.0032 1041.84 Q32.7167 1042.99 32.7167 1044.39 Q32.7167 1049.35 35.9632 1052.03 Q39.1779 1054.67 45.2253 1054.67 L64.0042 1054.67 L64.0042 1060.56 L28.3562 1060.56 L28.3562 1054.67 L33.8944 1054.67 Q30.6479 1052.82 29.0883 1049.86 Q27.4968 1046.9 27.4968 1042.67 Q27.4968 1042.06 27.5923 1041.33 Q27.656 1040.6 27.8151 1039.71 L33.8307 1039.68 Z" fill="#000000" fill-rule="nonzero" fill-opacity="1" /><path clip-path="url(#clip400)" d="M32.4621 1021.15 Q32.4621 1025.86 36.1542 1028.6 Q39.8145 1031.34 46.212 1031.34 Q52.6095 1031.34 56.3017 1028.63 Q59.9619 1025.89 59.9619 1021.15 Q59.9619 1016.47 56.2698 1013.74 Q52.5777 1011 46.212 1011 Q39.8781 1011 36.186 1013.74 Q32.4621 1016.47 32.4621 1021.15 M27.4968 1021.15 Q27.4968 1013.51 32.4621 1009.15 Q37.4273 1004.79 46.212 1004.79 Q54.9649 1004.79 59.9619 1009.15 Q64.9272 1013.51 64.9272 1021.15 Q64.9272 1028.82 59.9619 1033.18 Q54.9649 1037.51 46.212 1037.51 Q37.4273 1037.51 32.4621 1033.18 Q27.4968 1028.82 27.4968 1021.15 Z" fill="#000000" fill-rule="nonzero" fill-opacity="1" /><path clip-path="url(#clip400)" d="M58.657 989.419 L77.5631 989.419 L77.5631 995.308 L28.3562 995.308 L28.3562 989.419 L33.7671 989.419 Q30.5842 987.573 29.0564 984.772 Q27.4968 981.94 27.4968 978.025 Q27.4968 971.532 32.6531 967.489 Q37.8093 963.415 46.212 963.415 Q54.6147 963.415 59.771 967.489 Q64.9272 971.532 64.9272 978.025 Q64.9272 981.94 63.3994 984.772 Q61.8398 987.573 58.657 989.419 M46.212 969.495 Q39.7508 969.495 36.0905 972.168 Q32.3984 974.81 32.3984 979.457 Q32.3984 984.104 36.0905 986.777 Q39.7508 989.419 46.212 989.419 Q52.6732 989.419 56.3653 986.777 Q60.0256 984.104 60.0256 979.457 Q60.0256 974.81 56.3653 972.168 Q52.6732 969.495 46.212 969.495 Z" fill="#000000" fill-rule="nonzero" fill-opacity="1" /><path clip-path="url(#clip400)" d="M32.4621 939.894 Q32.4621 944.605 36.1542 947.342 Q39.8145 950.079 46.212 950.079 Q52.6095 950.079 56.3017 947.374 Q59.9619 944.636 59.9619 939.894 Q59.9619 935.215 56.2698 932.478 Q52.5777 929.741 46.212 929.741 Q39.8781 929.741 36.186 932.478 Q32.4621 935.215 32.4621 939.894 M27.4968 939.894 Q27.4968 932.255 32.4621 927.895 Q37.4273 923.534 46.212 923.534 Q54.9649 923.534 59.9619 927.895 Q64.9272 932.255 64.9272 939.894 Q64.9272 947.565 59.9619 951.925 Q54.9649 956.254 46.212 956.254 Q37.4273 956.254 32.4621 951.925 Q27.4968 947.565 27.4968 939.894 Z" fill="#000000" fill-rule="nonzero" fill-opacity="1" /><path clip-path="url(#clip400)" d="M33.8307 893.17 Q33.2578 894.156 33.0032 895.334 Q32.7167 896.48 32.7167 897.88 Q32.7167 902.846 35.9632 905.519 Q39.1779 908.161 45.2253 908.161 L64.0042 908.161 L64.0042 914.049 L28.3562 914.049 L28.3562 908.161 L33.8944 908.161 Q30.6479 906.315 29.0883 903.355 Q27.4968 900.395 27.4968 896.162 Q27.4968 895.557 27.5923 894.825 Q27.656 894.093 27.8151 893.202 L33.8307 893.17 Z" fill="#000000" fill-rule="nonzero" fill-opacity="1" /><path clip-path="url(#clip400)" d="M18.2347 881.234 L28.3562 881.234 L28.3562 869.171 L32.9077 869.171 L32.9077 881.234 L52.2594 881.234 Q56.6199 881.234 57.8613 880.056 Q59.1026 878.847 59.1026 875.187 L59.1026 869.171 L64.0042 869.171 L64.0042 875.187 Q64.0042 881.966 61.4897 884.544 Q58.9434 887.122 52.2594 887.122 L32.9077 887.122 L32.9077 891.419 L28.3562 891.419 L28.3562 887.122 L18.2347 887.122 L18.2347 881.234 Z" fill="#000000" fill-rule="nonzero" fill-opacity="1" /><path clip-path="url(#clip400)" d="M28.3562 861.469 L28.3562 855.612 L64.0042 855.612 L64.0042 861.469 L28.3562 861.469 M14.479 861.469 L14.479 855.612 L21.895 855.612 L21.895 861.469 L14.479 861.469 Z" fill="#000000" fill-rule="nonzero" fill-opacity="1" /><path clip-path="url(#clip400)" d="M32.4621 829.545 Q32.4621 834.255 36.1542 836.992 Q39.8145 839.73 46.212 839.73 Q52.6095 839.73 56.3017 837.024 Q59.9619 834.287 59.9619 829.545 Q59.9619 824.866 56.2698 822.128 Q52.5777 819.391 46.212 819.391 Q39.8781 819.391 36.186 822.128 Q32.4621 824.866 32.4621 829.545 M27.4968 829.545 Q27.4968 821.906 32.4621 817.545 Q37.4273 813.185 46.212 813.185 Q54.9649 813.185 59.9619 817.545 Q64.9272 821.906 64.9272 829.545 Q64.9272 837.215 59.9619 841.576 Q54.9649 845.904 46.212 845.904 Q37.4273 845.904 32.4621 841.576 Q27.4968 837.215 27.4968 829.545 Z" fill="#000000" fill-rule="nonzero" fill-opacity="1" /><path clip-path="url(#clip400)" d="M42.4881 773.845 L64.0042 773.845 L64.0042 779.701 L42.679 779.701 Q37.6183 779.701 35.1038 781.674 Q32.5894 783.648 32.5894 787.595 Q32.5894 792.337 35.6131 795.074 Q38.6368 797.811 43.8567 797.811 L64.0042 797.811 L64.0042 803.7 L28.3562 803.7 L28.3562 797.811 L33.8944 797.811 Q30.6797 795.711 29.0883 792.878 Q27.4968 790.013 27.4968 786.29 Q27.4968 780.147 31.3163 776.996 Q35.1038 773.845 42.4881 773.845 Z" fill="#000000" fill-rule="nonzero" fill-opacity="1" /><path clip-path="url(#clip400)" d="M32.4621 727.63 Q32.4621 732.34 36.1542 735.077 Q39.8145 737.815 46.212 737.815 Q52.6095 737.815 56.3017 735.109 Q59.9619 732.372 59.9619 727.63 Q59.9619 722.951 56.2698 720.213 Q52.5777 717.476 46.212 717.476 Q39.8781 717.476 36.186 720.213 Q32.4621 722.951 32.4621 727.63 M27.4968 727.63 Q27.4968 719.991 32.4621 715.63 Q37.4273 711.27 46.212 711.27 Q54.9649 711.27 59.9619 715.63 Q64.9272 719.991 64.9272 727.63 Q64.9272 735.3 59.9619 739.661 Q54.9649 743.989 46.212 743.989 Q37.4273 743.989 32.4621 739.661 Q27.4968 735.3 27.4968 727.63 Z" fill="#000000" fill-rule="nonzero" fill-opacity="1" /><path clip-path="url(#clip400)" d="M14.479 683.515 L19.3487 683.515 L19.3487 689.117 Q19.3487 692.268 20.6219 693.509 Q21.895 694.719 25.2052 694.719 L28.3562 694.719 L28.3562 685.075 L32.9077 685.075 L32.9077 694.719 L64.0042 694.719 L64.0042 700.607 L32.9077 700.607 L32.9077 706.209 L28.3562 706.209 L28.3562 700.607 L25.8736 700.607 Q19.9216 700.607 17.2162 697.838 Q14.479 695.069 14.479 689.053 L14.479 683.515 Z" fill="#000000" fill-rule="nonzero" fill-opacity="1" /><path clip-path="url(#clip400)" d="M58.657 652.228 L77.5631 652.228 L77.5631 658.116 L28.3562 658.116 L28.3562 652.228 L33.7671 652.228 Q30.5842 650.382 29.0564 647.581 Q27.4968 644.748 27.4968 640.833 Q27.4968 634.34 32.6531 630.298 Q37.8093 626.224 46.212 626.224 Q54.6147 626.224 59.771 630.298 Q64.9272 634.34 64.9272 640.833 Q64.9272 644.748 63.3994 647.581 Q61.8398 650.382 58.657 652.228 M46.212 632.303 Q39.7508 632.303 36.0905 634.977 Q32.3984 637.618 32.3984 642.265 Q32.3984 646.912 36.0905 649.586 Q39.7508 652.228 46.212 652.228 Q52.6732 652.228 56.3653 649.586 Q60.0256 646.912 60.0256 642.265 Q60.0256 637.618 56.3653 634.977 Q52.6732 632.303 46.212 632.303 Z" fill="#000000" fill-rule="nonzero" fill-opacity="1" /><path clip-path="url(#clip400)" d="M33.8307 595.859 Q33.2578 596.846 33.0032 598.024 Q32.7167 599.17 32.7167 600.57 Q32.7167 605.535 35.9632 608.209 Q39.1779 610.851 45.2253 610.851 L64.0042 610.851 L64.0042 616.739 L28.3562 616.739 L28.3562 610.851 L33.8944 610.851 Q30.6479 609.005 29.0883 606.045 Q27.4968 603.084 27.4968 598.851 Q27.4968 598.247 27.5923 597.515 Q27.656 596.782 27.8151 595.891 L33.8307 595.859 Z" fill="#000000" fill-rule="nonzero" fill-opacity="1" /><path clip-path="url(#clip400)" d="M32.4621 577.335 Q32.4621 582.046 36.1542 584.783 Q39.8145 587.52 46.212 587.52 Q52.6095 587.52 56.3017 584.815 Q59.9619 582.078 59.9619 577.335 Q59.9619 572.656 56.2698 569.919 Q52.5777 567.182 46.212 567.182 Q39.8781 567.182 36.186 569.919 Q32.4621 572.656 32.4621 577.335 M27.4968 577.335 Q27.4968 569.696 32.4621 565.336 Q37.4273 560.975 46.212 560.975 Q54.9649 560.975 59.9619 565.336 Q64.9272 569.696 64.9272 577.335 Q64.9272 585.006 59.9619 589.366 Q54.9649 593.695 46.212 593.695 Q37.4273 593.695 32.4621 589.366 Q27.4968 585.006 27.4968 577.335 Z" fill="#000000" fill-rule="nonzero" fill-opacity="1" /><path clip-path="url(#clip400)" d="M46.212 525.678 Q39.7508 525.678 36.0905 528.351 Q32.3984 530.993 32.3984 535.64 Q32.3984 540.287 36.0905 542.96 Q39.7508 545.602 46.212 545.602 Q52.6732 545.602 56.3653 542.96 Q60.0256 540.287 60.0256 535.64 Q60.0256 530.993 56.3653 528.351 Q52.6732 525.678 46.212 525.678 M33.7671 545.602 Q30.5842 543.756 29.0564 540.955 Q27.4968 538.122 27.4968 534.208 Q27.4968 527.715 32.6531 523.672 Q37.8093 519.598 46.212 519.598 Q54.6147 519.598 59.771 523.672 Q64.9272 527.715 64.9272 534.208 Q64.9272 538.122 63.3994 540.955 Q61.8398 543.756 58.657 545.602 L64.0042 545.602 L64.0042 551.49 L14.479 551.49 L14.479 545.602 L33.7671 545.602 Z" fill="#000000" fill-rule="nonzero" fill-opacity="1" /><path clip-path="url(#clip400)" d="M14.479 509.891 L14.479 504.034 L64.0042 504.034 L64.0042 509.891 L14.479 509.891 Z" fill="#000000" fill-rule="nonzero" fill-opacity="1" /><path clip-path="url(#clip400)" d="M44.7161 461.288 L47.5806 461.288 L47.5806 488.215 Q53.6281 487.833 56.8109 484.587 Q59.9619 481.309 59.9619 475.484 Q59.9619 472.11 59.1344 468.959 Q58.3069 465.776 56.6518 462.657 L62.1899 462.657 Q63.5267 465.808 64.227 469.118 Q64.9272 472.428 64.9272 475.834 Q64.9272 484.364 59.9619 489.361 Q54.9967 494.326 46.5303 494.326 Q37.7774 494.326 32.6531 489.616 Q27.4968 484.873 27.4968 476.853 Q27.4968 469.659 32.1438 465.49 Q36.7589 461.288 44.7161 461.288 M42.9973 467.145 Q38.1912 467.208 35.3266 469.85 Q32.4621 472.46 32.4621 476.789 Q32.4621 481.69 35.2312 484.651 Q38.0002 487.579 43.0292 488.024 L42.9973 467.145 Z" fill="#000000" fill-rule="nonzero" fill-opacity="1" /><path clip-path="url(#clip400)" d="M35.1993 423.922 Q31.2526 421.726 29.3747 418.67 Q27.4968 415.614 27.4968 411.477 Q27.4968 405.907 31.4117 402.883 Q35.2948 399.859 42.4881 399.859 L64.0042 399.859 L64.0042 405.748 L42.679 405.748 Q37.5546 405.748 35.072 407.562 Q32.5894 409.376 32.5894 413.1 Q32.5894 417.651 35.6131 420.293 Q38.6368 422.935 43.8567 422.935 L64.0042 422.935 L64.0042 428.823 L42.679 428.823 Q37.5228 428.823 35.072 430.638 Q32.5894 432.452 32.5894 436.239 Q32.5894 440.727 35.6449 443.369 Q38.6686 446.011 43.8567 446.011 L64.0042 446.011 L64.0042 451.899 L28.3562 451.899 L28.3562 446.011 L33.8944 446.011 Q30.616 444.005 29.0564 441.205 Q27.4968 438.404 27.4968 434.552 Q27.4968 430.669 29.4702 427.964 Q31.4436 425.227 35.1993 423.922 Z" fill="#000000" fill-rule="nonzero" fill-opacity="1" /><path clip-path="url(#clip400)" d="M29.4065 365.453 L34.9447 365.453 Q33.6716 367.935 33.035 370.609 Q32.3984 373.282 32.3984 376.147 Q32.3984 380.508 33.7352 382.704 Q35.072 384.868 37.7456 384.868 Q39.7826 384.868 40.9603 383.308 Q42.1061 381.749 43.1565 377.038 L43.6021 375.033 Q44.9389 368.795 47.3897 366.185 Q49.8086 363.543 54.1691 363.543 Q59.1344 363.543 62.0308 367.49 Q64.9272 371.405 64.9272 378.28 Q64.9272 381.144 64.3543 384.263 Q63.8132 387.351 62.6992 390.788 L56.6518 390.788 Q58.3387 387.542 59.198 384.391 Q60.0256 381.24 60.0256 378.152 Q60.0256 374.015 58.6251 371.787 Q57.1929 369.559 54.6147 369.559 Q52.2276 369.559 50.9545 371.182 Q49.6813 372.773 48.5037 378.216 L48.0262 380.253 Q46.8804 385.696 44.5251 388.115 Q42.138 390.534 38.0002 390.534 Q32.9713 390.534 30.2341 386.969 Q27.4968 383.404 27.4968 376.847 Q27.4968 373.601 27.9743 370.736 Q28.4517 367.872 29.4065 365.453 Z" fill="#000000" fill-rule="nonzero" fill-opacity="1" /><polyline clip-path="url(#clip402)" style="stroke:#009af9; stroke-linecap:round; stroke-linejoin:round; stroke-width:4; stroke-opacity:1; fill:none" points="249.542,1026.1 277.755,1026.1 277.755,948.416 317.136,948.416 317.136,870.729 335.468,870.729 335.468,793.042 384.915,793.042 384.915,715.355 628.212,715.355 628.212,637.667 923.787,637.667 923.787,559.98 950.484,559.98 950.484,482.293 978.989,482.293 978.989,404.605 1157.47,404.605 1157.47,326.918 1398.35,326.918 1398.35,249.231 1735.26,249.231 1735.26,171.544 4073.57,171.544 4073.57,93.8564 "/>
<polyline clip-path="url(#clip402)" style="stroke:#e26f46; stroke-linecap:round; stroke-linejoin:round; stroke-width:4; stroke-opacity:1; fill:none" points="249.542,1414.54 558.777,1414.54 558.777,1336.85 650.83,1336.85 650.83,1259.17 674.929,1259.17 674.929,1181.48 766.974,1181.48 766.974,1103.79 796.324,1103.79 796.324,1026.1 938.969,1026.1 938.969,948.416 960.548,948.416 960.548,870.729 992.802,870.729 992.802,793.042 1051.77,793.042 1051.77,715.355 1128.39,715.355 1128.39,637.667 1149.7,637.667 1149.7,559.98 1179.31,559.98 1179.31,482.293 1286.86,482.293 1286.86,404.605 1378.85,404.605 1378.85,326.918 1401.91,326.918 1401.91,249.231 2161.55,249.231 2161.55,171.544 4073.57,171.544 4073.57,93.8564 "/>
<polyline clip-path="url(#clip402)" style="stroke:#3da44d; stroke-linecap:round; stroke-linejoin:round; stroke-width:4; stroke-opacity:1; fill:none" points="249.542,1026.1 310.929,1026.1 310.929,948.416 384.249,948.416 384.249,870.729 468.487,870.729 468.487,793.042 609.145,793.042 609.145,715.355 711.9,715.355 711.9,637.667 758.329,637.667 758.329,559.98 811.496,559.98 811.496,482.293 816.059,482.293 816.059,404.605 948.1,404.605 948.1,326.918 1106.76,326.918 1106.76,249.231 1441.89,249.231 1441.89,171.544 4073.57,171.544 4073.57,93.8564 "/>
<polyline clip-path="url(#clip402)" style="stroke:#c271d2; stroke-linecap:round; stroke-linejoin:round; stroke-width:4; stroke-opacity:1; fill:none" points="249.542,1181.48 314.991,1181.48 314.991,1103.79 451.876,1103.79 451.876,1026.1 460.075,1026.1 460.075,948.416 501.096,948.416 501.096,870.729 561.049,870.729 561.049,793.042 758.551,793.042 758.551,715.355 872.848,715.355 872.848,637.667 976.538,637.667 976.538,559.98 1003.04,559.98 1003.04,482.293 1223.19,482.293 1223.19,404.605 1425.81,404.605 1425.81,326.918 1537.17,326.918 1537.17,249.231 1929.17,249.231 1929.17,171.544 4073.57,171.544 4073.57,93.8564 "/>
<polyline clip-path="url(#clip402)" style="stroke:#ac8d18; stroke-linecap:round; stroke-linejoin:round; stroke-width:4; stroke-opacity:1; fill:none" points="249.542,1259.17 380.814,1259.17 380.814,1181.48 437.469,1181.48 437.469,1103.79 438.332,1103.79 438.332,1026.1 447.865,1026.1 447.865,948.416 457.551,948.416 457.551,870.729 580.362,870.729 580.362,793.042 830.717,793.042 830.717,715.355 947.489,715.355 947.489,637.667 955.34,637.667 955.34,559.98 1053.62,559.98 1053.62,482.293 1374.29,482.293 1374.29,404.605 1667.04,404.605 1667.04,326.918 1790.4,326.918 1790.4,249.231 1930.05,249.231 1930.05,171.544 4073.57,171.544 4073.57,93.8564 "/>
<polyline clip-path="url(#clip402)" style="stroke:#00a9ad; stroke-linecap:round; stroke-linejoin:round; stroke-width:4; stroke-opacity:1; fill:none" points="249.542,1336.85 316.353,1336.85 316.353,1259.17 323.793,1259.17 323.793,1181.48 332.068,1181.48 332.068,1103.79 384.249,1103.79 384.249,1026.1 461.079,1026.1 461.079,948.416 468.487,948.416 468.487,870.729 490.62,870.729 490.62,793.042 881.206,793.042 881.206,715.355 992.443,715.355 992.443,637.667 998.372,637.667 998.372,559.98 1013.1,559.98 1013.1,482.293 1021.19,482.293 1021.19,404.605 1133.37,404.605 1133.37,326.918 1145.79,326.918 1145.79,249.231 1482.76,249.231 1482.76,171.544 4073.57,171.544 4073.57,93.8564 "/>
<path clip-path="url(#clip400)" d="M319.649 455.701 L772.678 455.701 L772.678 92.8206 L319.649 92.8206  Z" fill="#ffffff" fill-rule="evenodd" fill-opacity="1"/>
<polyline clip-path="url(#clip400)" style="stroke:#000000; stroke-linecap:round; stroke-linejoin:round; stroke-width:4; stroke-opacity:1; fill:none" points="319.649,455.701 772.678,455.701 772.678,92.8206 319.649,92.8206 319.649,455.701 "/>
<polyline clip-path="url(#clip400)" style="stroke:#009af9; stroke-linecap:round; stroke-linejoin:round; stroke-width:4; stroke-opacity:1; fill:none" points="343.018,144.661 483.232,144.661 "/>
<path clip-path="url(#clip400)" d="M526.949 140.992 Q528.546 138.121 530.768 136.756 Q532.99 135.39 535.999 135.39 Q540.05 135.39 542.249 138.237 Q544.449 141.061 544.449 146.293 L544.449 161.941 L540.166 161.941 L540.166 146.431 Q540.166 142.705 538.847 140.899 Q537.527 139.094 534.819 139.094 Q531.509 139.094 529.587 141.293 Q527.666 143.492 527.666 147.288 L527.666 161.941 L523.384 161.941 L523.384 146.431 Q523.384 142.681 522.064 140.899 Q520.745 139.094 517.99 139.094 Q514.726 139.094 512.805 141.316 Q510.884 143.515 510.884 147.288 L510.884 161.941 L506.602 161.941 L506.602 136.015 L510.884 136.015 L510.884 140.043 Q512.342 137.658 514.379 136.524 Q516.416 135.39 519.217 135.39 Q522.041 135.39 524.009 136.825 Q526 138.26 526.949 140.992 Z" fill="#000000" fill-rule="nonzero" fill-opacity="1" /><path clip-path="url(#clip400)" d="M564.726 148.908 Q559.564 148.908 557.573 150.089 Q555.583 151.269 555.583 154.117 Q555.583 156.385 557.064 157.728 Q558.569 159.047 561.138 159.047 Q564.68 159.047 566.81 156.547 Q568.962 154.024 568.962 149.857 L568.962 148.908 L564.726 148.908 M573.222 147.149 L573.222 161.941 L568.962 161.941 L568.962 158.005 Q567.504 160.367 565.328 161.501 Q563.152 162.612 560.004 162.612 Q556.023 162.612 553.661 160.39 Q551.323 158.144 551.323 154.394 Q551.323 150.019 554.24 147.797 Q557.18 145.575 562.99 145.575 L568.962 145.575 L568.962 145.158 Q568.962 142.219 567.018 140.621 Q565.097 139.001 561.601 139.001 Q559.379 139.001 557.273 139.533 Q555.166 140.066 553.222 141.131 L553.222 137.195 Q555.56 136.293 557.759 135.853 Q559.958 135.39 562.041 135.39 Q567.666 135.39 570.444 138.306 Q573.222 141.223 573.222 147.149 Z" fill="#000000" fill-rule="nonzero" fill-opacity="1" /><path clip-path="url(#clip400)" d="M599.055 139.95 L599.055 125.922 L603.314 125.922 L603.314 161.941 L599.055 161.941 L599.055 158.052 Q597.712 160.367 595.652 161.501 Q593.615 162.612 590.745 162.612 Q586.046 162.612 583.083 158.862 Q580.143 155.112 580.143 149.001 Q580.143 142.89 583.083 139.14 Q586.046 135.39 590.745 135.39 Q593.615 135.39 595.652 136.524 Q597.712 137.635 599.055 139.95 M584.541 149.001 Q584.541 153.7 586.462 156.385 Q588.407 159.047 591.786 159.047 Q595.166 159.047 597.11 156.385 Q599.055 153.7 599.055 149.001 Q599.055 144.302 597.11 141.64 Q595.166 138.955 591.786 138.955 Q588.407 138.955 586.462 141.64 Q584.541 144.302 584.541 149.001 Z" fill="#000000" fill-rule="nonzero" fill-opacity="1" /><path clip-path="url(#clip400)" d="M633.638 146.293 L633.638 161.941 L629.379 161.941 L629.379 146.431 Q629.379 142.751 627.943 140.922 Q626.508 139.094 623.638 139.094 Q620.189 139.094 618.198 141.293 Q616.207 143.492 616.207 147.288 L616.207 161.941 L611.925 161.941 L611.925 136.015 L616.207 136.015 L616.207 140.043 Q617.735 137.705 619.795 136.547 Q621.879 135.39 624.587 135.39 Q629.055 135.39 631.346 138.168 Q633.638 140.922 633.638 146.293 Z" fill="#000000" fill-rule="nonzero" fill-opacity="1" /><path clip-path="url(#clip400)" d="M660.79 137.01 L660.79 140.992 Q658.985 139.996 657.156 139.51 Q655.351 139.001 653.499 139.001 Q649.355 139.001 647.064 141.64 Q644.772 144.256 644.772 149.001 Q644.772 153.746 647.064 156.385 Q649.355 159.001 653.499 159.001 Q655.351 159.001 657.156 158.515 Q658.985 158.005 660.79 157.01 L660.79 160.945 Q659.008 161.779 657.087 162.195 Q655.189 162.612 653.036 162.612 Q647.179 162.612 643.73 158.931 Q640.281 155.251 640.281 149.001 Q640.281 142.658 643.754 139.024 Q647.249 135.39 653.314 135.39 Q655.281 135.39 657.156 135.807 Q659.031 136.2 660.79 137.01 Z" fill="#000000" fill-rule="nonzero" fill-opacity="1" /><path clip-path="url(#clip400)" d="M668.198 125.922 L672.457 125.922 L672.457 161.941 L668.198 161.941 L668.198 125.922 Z" fill="#000000" fill-rule="nonzero" fill-opacity="1" /><polyline clip-path="url(#clip400)" style="stroke:#e26f46; stroke-linecap:round; stroke-linejoin:round; stroke-width:4; stroke-opacity:1; fill:none" points="343.018,196.501 483.232,196.501 "/>
<path clip-path="url(#clip400)" d="M528.314 198.133 L528.314 213.781 L524.055 213.781 L524.055 198.271 Q524.055 194.591 522.62 192.762 Q521.185 190.934 518.314 190.934 Q514.865 190.934 512.875 193.133 Q510.884 195.332 510.884 199.128 L510.884 213.781 L506.602 213.781 L506.602 177.762 L510.884 177.762 L510.884 191.883 Q512.412 189.545 514.472 188.387 Q516.555 187.23 519.263 187.23 Q523.731 187.23 526.023 190.008 Q528.314 192.762 528.314 198.133 Z" fill="#000000" fill-rule="nonzero" fill-opacity="1" /><path clip-path="url(#clip400)" d="M547.597 216.188 Q545.791 220.818 544.078 222.23 Q542.365 223.642 539.495 223.642 L536.092 223.642 L536.092 220.077 L538.592 220.077 Q540.351 220.077 541.324 219.244 Q542.296 218.41 543.476 215.308 L544.24 213.364 L533.754 187.855 L538.268 187.855 L546.37 208.133 L554.472 187.855 L558.985 187.855 L547.597 216.188 Z" fill="#000000" fill-rule="nonzero" fill-opacity="1" /><path clip-path="url(#clip400)" d="M583.476 200.841 Q583.476 196.142 581.532 193.48 Q579.61 190.795 576.231 190.795 Q572.851 190.795 570.907 193.48 Q568.985 196.142 568.985 200.841 Q568.985 205.54 570.907 208.225 Q572.851 210.887 576.231 210.887 Q579.61 210.887 581.532 208.225 Q583.476 205.54 583.476 200.841 M568.985 191.79 Q570.328 189.475 572.365 188.364 Q574.425 187.23 577.272 187.23 Q581.995 187.23 584.934 190.98 Q587.897 194.73 587.897 200.841 Q587.897 206.952 584.934 210.702 Q581.995 214.452 577.272 214.452 Q574.425 214.452 572.365 213.341 Q570.328 212.207 568.985 209.892 L568.985 213.781 L564.703 213.781 L564.703 177.762 L568.985 177.762 L568.985 191.79 Z" fill="#000000" fill-rule="nonzero" fill-opacity="1" /><path clip-path="url(#clip400)" d="M609.981 191.836 Q609.263 191.42 608.407 191.234 Q607.573 191.026 606.555 191.026 Q602.944 191.026 600.999 193.387 Q599.078 195.725 599.078 200.123 L599.078 213.781 L594.795 213.781 L594.795 187.855 L599.078 187.855 L599.078 191.883 Q600.42 189.521 602.573 188.387 Q604.726 187.23 607.805 187.23 Q608.244 187.23 608.777 187.299 Q609.309 187.346 609.957 187.461 L609.981 191.836 Z" fill="#000000" fill-rule="nonzero" fill-opacity="1" /><path clip-path="url(#clip400)" d="M614.448 187.855 L618.707 187.855 L618.707 213.781 L614.448 213.781 L614.448 187.855 M614.448 177.762 L618.707 177.762 L618.707 183.156 L614.448 183.156 L614.448 177.762 Z" fill="#000000" fill-rule="nonzero" fill-opacity="1" /><path clip-path="url(#clip400)" d="M644.679 191.79 L644.679 177.762 L648.939 177.762 L648.939 213.781 L644.679 213.781 L644.679 209.892 Q643.337 212.207 641.277 213.341 Q639.24 214.452 636.369 214.452 Q631.67 214.452 628.707 210.702 Q625.768 206.952 625.768 200.841 Q625.768 194.73 628.707 190.98 Q631.67 187.23 636.369 187.23 Q639.24 187.23 641.277 188.364 Q643.337 189.475 644.679 191.79 M630.166 200.841 Q630.166 205.54 632.087 208.225 Q634.031 210.887 637.411 210.887 Q640.791 210.887 642.735 208.225 Q644.679 205.54 644.679 200.841 Q644.679 196.142 642.735 193.48 Q640.791 190.795 637.411 190.795 Q634.031 190.795 632.087 193.48 Q630.166 196.142 630.166 200.841 Z" fill="#000000" fill-rule="nonzero" fill-opacity="1" /><path clip-path="url(#clip400)" d="M677.411 221.651 L677.411 224.961 L652.781 224.961 L652.781 221.651 L677.411 221.651 Z" fill="#000000" fill-rule="nonzero" fill-opacity="1" /><path clip-path="url(#clip400)" d="M681.253 177.762 L685.536 177.762 L685.536 199.035 L698.244 187.855 L703.684 187.855 L689.934 199.984 L704.262 213.781 L698.707 213.781 L685.536 201.119 L685.536 213.781 L681.253 213.781 L681.253 177.762 Z" fill="#000000" fill-rule="nonzero" fill-opacity="1" /><path clip-path="url(#clip400)" d="M708.707 177.762 L712.989 177.762 L712.989 199.035 L725.698 187.855 L731.137 187.855 L717.387 199.984 L731.716 213.781 L726.161 213.781 L712.989 201.119 L712.989 213.781 L708.707 213.781 L708.707 177.762 Z" fill="#000000" fill-rule="nonzero" fill-opacity="1" /><path clip-path="url(#clip400)" d="M740.535 180.494 L740.535 187.855 L749.309 187.855 L749.309 191.165 L740.535 191.165 L740.535 205.239 Q740.535 208.41 741.392 209.313 Q742.272 210.216 744.934 210.216 L749.309 210.216 L749.309 213.781 L744.934 213.781 Q740.003 213.781 738.128 211.952 Q736.253 210.1 736.253 205.239 L736.253 191.165 L733.128 191.165 L733.128 187.855 L736.253 187.855 L736.253 180.494 L740.535 180.494 Z" fill="#000000" fill-rule="nonzero" fill-opacity="1" /><polyline clip-path="url(#clip400)" style="stroke:#3da44d; stroke-linecap:round; stroke-linejoin:round; stroke-width:4; stroke-opacity:1; fill:none" points="343.018,248.341 483.232,248.341 "/>
<path clip-path="url(#clip400)" d="M526.949 244.672 Q528.546 241.801 530.768 240.436 Q532.99 239.07 535.999 239.07 Q540.05 239.07 542.249 241.917 Q544.449 244.741 544.449 249.973 L544.449 265.621 L540.166 265.621 L540.166 250.111 Q540.166 246.385 538.847 244.579 Q537.527 242.774 534.819 242.774 Q531.509 242.774 529.587 244.973 Q527.666 247.172 527.666 250.968 L527.666 265.621 L523.384 265.621 L523.384 250.111 Q523.384 246.361 522.064 244.579 Q520.745 242.774 517.99 242.774 Q514.726 242.774 512.805 244.996 Q510.884 247.195 510.884 250.968 L510.884 265.621 L506.602 265.621 L506.602 239.695 L510.884 239.695 L510.884 243.723 Q512.342 241.338 514.379 240.204 Q516.416 239.07 519.217 239.07 Q522.041 239.07 524.009 240.505 Q526 241.94 526.949 244.672 Z" fill="#000000" fill-rule="nonzero" fill-opacity="1" /><path clip-path="url(#clip400)" d="M564.726 252.588 Q559.564 252.588 557.573 253.769 Q555.583 254.949 555.583 257.797 Q555.583 260.065 557.064 261.408 Q558.569 262.727 561.138 262.727 Q564.68 262.727 566.81 260.227 Q568.962 257.704 568.962 253.537 L568.962 252.588 L564.726 252.588 M573.222 250.829 L573.222 265.621 L568.962 265.621 L568.962 261.685 Q567.504 264.047 565.328 265.181 Q563.152 266.292 560.004 266.292 Q556.023 266.292 553.661 264.07 Q551.323 261.824 551.323 258.074 Q551.323 253.699 554.24 251.477 Q557.18 249.255 562.99 249.255 L568.962 249.255 L568.962 248.838 Q568.962 245.899 567.018 244.301 Q565.097 242.681 561.601 242.681 Q559.379 242.681 557.273 243.213 Q555.166 243.746 553.222 244.811 L553.222 240.875 Q555.56 239.973 557.759 239.533 Q559.958 239.07 562.041 239.07 Q567.666 239.07 570.444 241.986 Q573.222 244.903 573.222 250.829 Z" fill="#000000" fill-rule="nonzero" fill-opacity="1" /><path clip-path="url(#clip400)" d="M586.624 261.685 L602.944 261.685 L602.944 265.621 L580.999 265.621 L580.999 261.685 Q583.661 258.931 588.245 254.301 Q592.851 249.648 594.032 248.306 Q596.277 245.783 597.157 244.047 Q598.059 242.287 598.059 240.598 Q598.059 237.843 596.115 236.107 Q594.194 234.371 591.092 234.371 Q588.893 234.371 586.439 235.135 Q584.008 235.899 581.231 237.449 L581.231 232.727 Q584.055 231.593 586.508 231.014 Q588.962 230.436 590.999 230.436 Q596.37 230.436 599.564 233.121 Q602.758 235.806 602.758 240.297 Q602.758 242.426 601.948 244.348 Q601.161 246.246 599.055 248.838 Q598.476 249.51 595.374 252.727 Q592.272 255.922 586.624 261.685 Z" fill="#000000" fill-rule="nonzero" fill-opacity="1" /><path clip-path="url(#clip400)" d="M611.578 231.061 L633.8 231.061 L633.8 233.051 L621.254 265.621 L616.369 265.621 L628.175 234.996 L611.578 234.996 L611.578 231.061 Z" fill="#000000" fill-rule="nonzero" fill-opacity="1" /><polyline clip-path="url(#clip400)" style="stroke:#c271d2; stroke-linecap:round; stroke-linejoin:round; stroke-width:4; stroke-opacity:1; fill:none" points="343.018,300.181 483.232,300.181 "/>
<path clip-path="url(#clip400)" d="M506.602 281.442 L510.861 281.442 L510.861 317.461 L506.602 317.461 L506.602 281.442 Z" fill="#000000" fill-rule="nonzero" fill-opacity="1" /><path clip-path="url(#clip400)" d="M519.773 291.535 L524.032 291.535 L524.032 317.461 L519.773 317.461 L519.773 291.535 M519.773 281.442 L524.032 281.442 L524.032 286.836 L519.773 286.836 L519.773 281.442 Z" fill="#000000" fill-rule="nonzero" fill-opacity="1" /><path clip-path="url(#clip400)" d="M546.069 281.442 L546.069 284.984 L541.995 284.984 Q539.703 284.984 538.8 285.91 Q537.921 286.836 537.921 289.243 L537.921 291.535 L544.935 291.535 L544.935 294.845 L537.921 294.845 L537.921 317.461 L533.638 317.461 L533.638 294.845 L529.564 294.845 L529.564 291.535 L533.638 291.535 L533.638 289.729 Q533.638 285.401 535.652 283.433 Q537.666 281.442 542.041 281.442 L546.069 281.442 Z" fill="#000000" fill-rule="nonzero" fill-opacity="1" /><path clip-path="url(#clip400)" d="M553.013 284.174 L553.013 291.535 L561.786 291.535 L561.786 294.845 L553.013 294.845 L553.013 308.919 Q553.013 312.09 553.87 312.993 Q554.749 313.896 557.411 313.896 L561.786 313.896 L561.786 317.461 L557.411 317.461 Q552.481 317.461 550.606 315.632 Q548.731 313.78 548.731 308.919 L548.731 294.845 L545.606 294.845 L545.606 291.535 L548.731 291.535 L548.731 284.174 L553.013 284.174 Z" fill="#000000" fill-rule="nonzero" fill-opacity="1" /><path clip-path="url(#clip400)" d="M589.564 303.433 L589.564 305.516 L569.981 305.516 Q570.259 309.914 572.62 312.229 Q575.004 314.521 579.24 314.521 Q581.694 314.521 583.985 313.919 Q586.3 313.317 588.569 312.113 L588.569 316.141 Q586.277 317.113 583.87 317.623 Q581.462 318.132 578.985 318.132 Q572.782 318.132 569.147 314.521 Q565.536 310.91 565.536 304.752 Q565.536 298.387 568.962 294.66 Q572.411 290.91 578.245 290.91 Q583.476 290.91 586.508 294.289 Q589.564 297.646 589.564 303.433 M585.305 302.183 Q585.258 298.688 583.337 296.604 Q581.439 294.521 578.291 294.521 Q574.726 294.521 572.573 296.535 Q570.444 298.549 570.12 302.206 L585.305 302.183 Z" fill="#000000" fill-rule="nonzero" fill-opacity="1" /><path clip-path="url(#clip400)" d="M613.615 295.47 L613.615 281.442 L617.874 281.442 L617.874 317.461 L613.615 317.461 L613.615 313.572 Q612.272 315.887 610.212 317.021 Q608.175 318.132 605.305 318.132 Q600.606 318.132 597.643 314.382 Q594.703 310.632 594.703 304.521 Q594.703 298.41 597.643 294.66 Q600.606 290.91 605.305 290.91 Q608.175 290.91 610.212 292.044 Q612.272 293.155 613.615 295.47 M599.101 304.521 Q599.101 309.22 601.022 311.905 Q602.967 314.567 606.346 314.567 Q609.726 314.567 611.67 311.905 Q613.615 309.22 613.615 304.521 Q613.615 299.822 611.67 297.16 Q609.726 294.475 606.346 294.475 Q602.967 294.475 601.022 297.16 Q599.101 299.822 599.101 304.521 Z" fill="#000000" fill-rule="nonzero" fill-opacity="1" /><path clip-path="url(#clip400)" d="M646.346 325.331 L646.346 328.641 L621.717 328.641 L621.717 325.331 L646.346 325.331 Z" fill="#000000" fill-rule="nonzero" fill-opacity="1" /><path clip-path="url(#clip400)" d="M650.189 281.442 L654.471 281.442 L654.471 302.715 L667.179 291.535 L672.619 291.535 L658.869 303.664 L673.198 317.461 L667.642 317.461 L654.471 304.799 L654.471 317.461 L650.189 317.461 L650.189 281.442 Z" fill="#000000" fill-rule="nonzero" fill-opacity="1" /><path clip-path="url(#clip400)" d="M677.642 281.442 L681.925 281.442 L681.925 302.715 L694.633 291.535 L700.073 291.535 L686.323 303.664 L700.651 317.461 L695.096 317.461 L681.925 304.799 L681.925 317.461 L677.642 317.461 L677.642 281.442 Z" fill="#000000" fill-rule="nonzero" fill-opacity="1" /><path clip-path="url(#clip400)" d="M709.471 284.174 L709.471 291.535 L718.244 291.535 L718.244 294.845 L709.471 294.845 L709.471 308.919 Q709.471 312.09 710.327 312.993 Q711.207 313.896 713.869 313.896 L718.244 313.896 L718.244 317.461 L713.869 317.461 Q708.938 317.461 707.063 315.632 Q705.188 313.78 705.188 308.919 L705.188 294.845 L702.063 294.845 L702.063 291.535 L705.188 291.535 L705.188 284.174 L709.471 284.174 Z" fill="#000000" fill-rule="nonzero" fill-opacity="1" /><polyline clip-path="url(#clip400)" style="stroke:#ac8d18; stroke-linecap:round; stroke-linejoin:round; stroke-width:4; stroke-opacity:1; fill:none" points="343.018,352.021 483.232,352.021 "/>
<path clip-path="url(#clip400)" d="M526.949 348.352 Q528.546 345.481 530.768 344.116 Q532.99 342.75 535.999 342.75 Q540.05 342.75 542.249 345.597 Q544.449 348.421 544.449 353.653 L544.449 369.301 L540.166 369.301 L540.166 353.791 Q540.166 350.065 538.847 348.259 Q537.527 346.454 534.819 346.454 Q531.509 346.454 529.587 348.653 Q527.666 350.852 527.666 354.648 L527.666 369.301 L523.384 369.301 L523.384 353.791 Q523.384 350.041 522.064 348.259 Q520.745 346.454 517.99 346.454 Q514.726 346.454 512.805 348.676 Q510.884 350.875 510.884 354.648 L510.884 369.301 L506.602 369.301 L506.602 343.375 L510.884 343.375 L510.884 347.403 Q512.342 345.018 514.379 343.884 Q516.416 342.75 519.217 342.75 Q522.041 342.75 524.009 344.185 Q526 345.62 526.949 348.352 Z" fill="#000000" fill-rule="nonzero" fill-opacity="1" /><path clip-path="url(#clip400)" d="M564.726 356.268 Q559.564 356.268 557.573 357.449 Q555.583 358.629 555.583 361.477 Q555.583 363.745 557.064 365.088 Q558.569 366.407 561.138 366.407 Q564.68 366.407 566.81 363.907 Q568.962 361.384 568.962 357.217 L568.962 356.268 L564.726 356.268 M573.222 354.509 L573.222 369.301 L568.962 369.301 L568.962 365.365 Q567.504 367.727 565.328 368.861 Q563.152 369.972 560.004 369.972 Q556.023 369.972 553.661 367.75 Q551.323 365.504 551.323 361.754 Q551.323 357.379 554.24 355.157 Q557.18 352.935 562.99 352.935 L568.962 352.935 L568.962 352.518 Q568.962 349.579 567.018 347.981 Q565.097 346.361 561.601 346.361 Q559.379 346.361 557.273 346.893 Q555.166 347.426 553.222 348.491 L553.222 344.555 Q555.56 343.653 557.759 343.213 Q559.958 342.75 562.041 342.75 Q567.666 342.75 570.444 345.666 Q573.222 348.583 573.222 354.509 Z" fill="#000000" fill-rule="nonzero" fill-opacity="1" /><path clip-path="url(#clip400)" d="M592.596 352.889 Q589.263 352.889 587.342 354.671 Q585.444 356.453 585.444 359.578 Q585.444 362.703 587.342 364.486 Q589.263 366.268 592.596 366.268 Q595.93 366.268 597.851 364.486 Q599.772 362.68 599.772 359.578 Q599.772 356.453 597.851 354.671 Q595.953 352.889 592.596 352.889 M587.921 350.898 Q584.911 350.157 583.221 348.097 Q581.555 346.037 581.555 343.074 Q581.555 338.93 584.495 336.523 Q587.458 334.116 592.596 334.116 Q597.758 334.116 600.698 336.523 Q603.638 338.93 603.638 343.074 Q603.638 346.037 601.948 348.097 Q600.282 350.157 597.295 350.898 Q600.675 351.685 602.55 353.977 Q604.448 356.268 604.448 359.578 Q604.448 364.602 601.37 367.287 Q598.314 369.972 592.596 369.972 Q586.879 369.972 583.8 367.287 Q580.745 364.602 580.745 359.578 Q580.745 356.268 582.643 353.977 Q584.541 351.685 587.921 350.898 M586.208 343.514 Q586.208 346.199 587.874 347.704 Q589.564 349.208 592.596 349.208 Q595.606 349.208 597.295 347.704 Q599.008 346.199 599.008 343.514 Q599.008 340.829 597.295 339.324 Q595.606 337.819 592.596 337.819 Q589.564 337.819 587.874 339.324 Q586.208 340.829 586.208 343.514 Z" fill="#000000" fill-rule="nonzero" fill-opacity="1" /><path clip-path="url(#clip400)" d="M623.337 350.157 Q620.189 350.157 618.337 352.31 Q616.508 354.463 616.508 358.213 Q616.508 361.94 618.337 364.115 Q620.189 366.268 623.337 366.268 Q626.485 366.268 628.314 364.115 Q630.166 361.94 630.166 358.213 Q630.166 354.463 628.314 352.31 Q626.485 350.157 623.337 350.157 M632.619 335.505 L632.619 339.764 Q630.86 338.93 629.055 338.491 Q627.272 338.051 625.513 338.051 Q620.883 338.051 618.43 341.176 Q615.999 344.301 615.652 350.62 Q617.018 348.606 619.078 347.541 Q621.138 346.454 623.615 346.454 Q628.823 346.454 631.832 349.625 Q634.865 352.773 634.865 358.213 Q634.865 363.537 631.717 366.754 Q628.568 369.972 623.337 369.972 Q617.342 369.972 614.17 365.389 Q610.999 360.782 610.999 352.055 Q610.999 343.861 614.888 339 Q618.777 334.116 625.328 334.116 Q627.087 334.116 628.869 334.463 Q630.675 334.81 632.619 335.505 Z" fill="#000000" fill-rule="nonzero" fill-opacity="1" /><polyline clip-path="url(#clip400)" style="stroke:#00a9ad; stroke-linecap:round; stroke-linejoin:round; stroke-width:4; stroke-opacity:1; fill:none" points="343.018,403.861 483.232,403.861 "/>
<path clip-path="url(#clip400)" d="M526.949 400.192 Q528.546 397.321 530.768 395.956 Q532.99 394.59 535.999 394.59 Q540.05 394.59 542.249 397.437 Q544.449 400.261 544.449 405.493 L544.449 421.141 L540.166 421.141 L540.166 405.631 Q540.166 401.905 538.847 400.099 Q537.527 398.294 534.819 398.294 Q531.509 398.294 529.587 400.493 Q527.666 402.692 527.666 406.488 L527.666 421.141 L523.384 421.141 L523.384 405.631 Q523.384 401.881 522.064 400.099 Q520.745 398.294 517.99 398.294 Q514.726 398.294 512.805 400.516 Q510.884 402.715 510.884 406.488 L510.884 421.141 L506.602 421.141 L506.602 395.215 L510.884 395.215 L510.884 399.243 Q512.342 396.858 514.379 395.724 Q516.416 394.59 519.217 394.59 Q522.041 394.59 524.009 396.025 Q526 397.46 526.949 400.192 Z" fill="#000000" fill-rule="nonzero" fill-opacity="1" /><path clip-path="url(#clip400)" d="M564.726 408.108 Q559.564 408.108 557.573 409.289 Q555.583 410.469 555.583 413.317 Q555.583 415.585 557.064 416.928 Q558.569 418.247 561.138 418.247 Q564.68 418.247 566.81 415.747 Q568.962 413.224 568.962 409.057 L568.962 408.108 L564.726 408.108 M573.222 406.349 L573.222 421.141 L568.962 421.141 L568.962 417.205 Q567.504 419.567 565.328 420.701 Q563.152 421.812 560.004 421.812 Q556.023 421.812 553.661 419.59 Q551.323 417.344 551.323 413.594 Q551.323 409.219 554.24 406.997 Q557.18 404.775 562.99 404.775 L568.962 404.775 L568.962 404.358 Q568.962 401.419 567.018 399.821 Q565.097 398.201 561.601 398.201 Q559.379 398.201 557.273 398.733 Q555.166 399.266 553.222 400.331 L553.222 396.395 Q555.56 395.493 557.759 395.053 Q559.958 394.59 562.041 394.59 Q567.666 394.59 570.444 397.506 Q573.222 400.423 573.222 406.349 Z" fill="#000000" fill-rule="nonzero" fill-opacity="1" /><path clip-path="url(#clip400)" d="M582.735 420.423 L582.735 416.164 Q584.495 416.997 586.3 417.437 Q588.106 417.877 589.842 417.877 Q594.471 417.877 596.902 414.775 Q599.356 411.65 599.703 405.307 Q598.36 407.298 596.3 408.363 Q594.24 409.428 591.74 409.428 Q586.555 409.428 583.522 406.303 Q580.513 403.155 580.513 397.715 Q580.513 392.391 583.661 389.173 Q586.809 385.956 592.041 385.956 Q598.036 385.956 601.184 390.562 Q604.356 395.145 604.356 403.895 Q604.356 412.067 600.467 416.951 Q596.601 421.812 590.05 421.812 Q588.291 421.812 586.485 421.465 Q584.68 421.117 582.735 420.423 M592.041 405.77 Q595.189 405.77 597.018 403.618 Q598.87 401.465 598.87 397.715 Q598.87 393.988 597.018 391.835 Q595.189 389.659 592.041 389.659 Q588.893 389.659 587.041 391.835 Q585.212 393.988 585.212 397.715 Q585.212 401.465 587.041 403.618 Q588.893 405.77 592.041 405.77 Z" fill="#000000" fill-rule="nonzero" fill-opacity="1" /><path clip-path="url(#clip400)" d="M611.578 386.581 L633.8 386.581 L633.8 388.571 L621.254 421.141 L616.369 421.141 L628.175 390.516 L611.578 390.516 L611.578 386.581 Z" fill="#000000" fill-rule="nonzero" fill-opacity="1" /></svg>
