<?xml version="1.0" encoding="utf-8"?>
<svg xmlns="http://www.w3.org/2000/svg" xmlns:xlink="http://www.w3.org/1999/xlink" width="600" height="400" viewBox="0 0 2400 1600">
<defs>
  <clipPath id="clip380">
    <rect x="0" y="0" width="2400" height="1600"/>
  </clipPath>
</defs>
<path clip-path="url(#clip380)" d="M0 1600 L2400 1600 L2400 0 L0 0  Z" fill="#ffffff" fill-rule="evenodd" fill-opacity="1"/>
<defs>
  <clipPath id="clip381">
    <rect x="480" y="0" width="1681" height="1600"/>
  </clipPath>
</defs>
<path clip-path="url(#clip380)" d="M251.372 1410.9 L2352.76 1410.9 L2352.76 123.472 L251.372 123.472  Z" fill="#ffffff" fill-rule="evenodd" fill-opacity="1"/>
<defs>
  <clipPath id="clip382">
    <rect x="251" y="123" width="2102" height="1288"/>
  </clipPath>
</defs>
<polyline clip-path="url(#clip382)" style="stroke:#000000; stroke-linecap:round; stroke-linejoin:round; stroke-width:2; stroke-opacity:0.1; fill:none" points="540.447,1410.9 540.447,123.472 "/>
<polyline clip-path="url(#clip382)" style="stroke:#000000; stroke-linecap:round; stroke-linejoin:round; stroke-width:2; stroke-opacity:0.1; fill:none" points="1577.51,1410.9 1577.51,123.472 "/>
<polyline clip-path="url(#clip382)" style="stroke:#000000; stroke-linecap:round; stroke-linejoin:round; stroke-width:2; stroke-opacity:0.1; fill:none" points="251.372,1296.38 2352.76,1296.38 "/>
<polyline clip-path="url(#clip382)" style="stroke:#000000; stroke-linecap:round; stroke-linejoin:round; stroke-width:2; stroke-opacity:0.1; fill:none" points="251.372,792.411 2352.76,792.411 "/>
<polyline clip-path="url(#clip382)" style="stroke:#000000; stroke-linecap:round; stroke-linejoin:round; stroke-width:2; stroke-opacity:0.1; fill:none" points="251.372,288.439 2352.76,288.439 "/>
<polyline clip-path="url(#clip380)" style="stroke:#000000; stroke-linecap:round; stroke-linejoin:round; stroke-width:4; stroke-opacity:1; fill:none" points="251.372,1410.9 2352.76,1410.9 "/>
<polyline clip-path="url(#clip380)" style="stroke:#000000; stroke-linecap:round; stroke-linejoin:round; stroke-width:4; stroke-opacity:1; fill:none" points="540.447,1410.9 540.447,1392 "/>
<polyline clip-path="url(#clip380)" style="stroke:#000000; stroke-linecap:round; stroke-linejoin:round; stroke-width:4; stroke-opacity:1; fill:none" points="1577.51,1410.9 1577.51,1392 "/>
<path clip-path="url(#clip380)" d="M487.252 1485.02 L494.891 1485.02 L494.891 1458.66 L486.581 1460.32 L486.581 1456.06 L494.845 1454.4 L499.521 1454.4 L499.521 1485.02 L507.159 1485.02 L507.159 1488.96 L487.252 1488.96 L487.252 1485.02 Z" fill="#000000" fill-rule="nonzero" fill-opacity="1" /><path clip-path="url(#clip380)" d="M526.604 1457.48 Q522.993 1457.48 521.164 1461.04 Q519.358 1464.58 519.358 1471.71 Q519.358 1478.82 521.164 1482.38 Q522.993 1485.92 526.604 1485.92 Q530.238 1485.92 532.044 1482.38 Q533.872 1478.82 533.872 1471.71 Q533.872 1464.58 532.044 1461.04 Q530.238 1457.48 526.604 1457.48 M526.604 1453.77 Q532.414 1453.77 535.469 1458.38 Q538.548 1462.96 538.548 1471.71 Q538.548 1480.44 535.469 1485.04 Q532.414 1489.63 526.604 1489.63 Q520.794 1489.63 517.715 1485.04 Q514.659 1480.44 514.659 1471.71 Q514.659 1462.96 517.715 1458.38 Q520.794 1453.77 526.604 1453.77 Z" fill="#000000" fill-rule="nonzero" fill-opacity="1" /><path clip-path="url(#clip380)" d="M551.243 1446.41 Q553.97 1446.99 555.494 1448.83 Q557.036 1450.68 557.036 1453.38 Q557.036 1457.54 554.177 1459.82 Q551.319 1462.09 546.052 1462.09 Q544.284 1462.09 542.404 1461.73 Q540.542 1461.4 538.548 1460.7 L538.548 1457.03 Q540.128 1457.95 542.009 1458.42 Q543.89 1458.89 545.94 1458.89 Q549.513 1458.89 551.375 1457.48 Q553.256 1456.07 553.256 1453.38 Q553.256 1450.9 551.507 1449.51 Q549.776 1448.1 546.673 1448.1 L543.401 1448.1 L543.401 1444.98 L546.824 1444.98 Q549.626 1444.98 551.112 1443.87 Q552.598 1442.74 552.598 1440.63 Q552.598 1438.47 551.055 1437.32 Q549.532 1436.16 546.673 1436.16 Q545.112 1436.16 543.325 1436.49 Q541.539 1436.83 539.394 1437.55 L539.394 1434.16 Q541.557 1433.56 543.438 1433.26 Q545.338 1432.96 547.012 1432.96 Q551.337 1432.96 553.858 1434.93 Q556.378 1436.89 556.378 1440.24 Q556.378 1442.57 555.043 1444.19 Q553.707 1445.79 551.243 1446.41 Z" fill="#000000" fill-rule="nonzero" fill-opacity="1" /><path clip-path="url(#clip380)" d="M564.24 1456.77 L568.208 1456.77 L568.208 1461.55 L564.24 1461.55 L564.24 1456.77 Z" fill="#000000" fill-rule="nonzero" fill-opacity="1" /><path clip-path="url(#clip380)" d="M584.608 1435.97 Q581.674 1435.97 580.189 1438.86 Q578.722 1441.74 578.722 1447.53 Q578.722 1453.31 580.189 1456.2 Q581.674 1459.08 584.608 1459.08 Q587.561 1459.08 589.028 1456.2 Q590.514 1453.31 590.514 1447.53 Q590.514 1441.74 589.028 1438.86 Q587.561 1435.97 584.608 1435.97 M584.608 1432.96 Q589.329 1432.96 591.812 1436.7 Q594.313 1440.43 594.313 1447.53 Q594.313 1454.62 591.812 1458.37 Q589.329 1462.09 584.608 1462.09 Q579.888 1462.09 577.386 1458.37 Q574.904 1454.62 574.904 1447.53 Q574.904 1440.43 577.386 1436.7 Q579.888 1432.96 584.608 1432.96 Z" fill="#000000" fill-rule="nonzero" fill-opacity="1" /><path clip-path="url(#clip380)" d="M1524.72 1485.02 L1532.36 1485.02 L1532.36 1458.66 L1524.05 1460.32 L1524.05 1456.06 L1532.31 1454.4 L1536.99 1454.4 L1536.99 1485.02 L1544.62 1485.02 L1544.62 1488.96 L1524.72 1488.96 L1524.72 1485.02 Z" fill="#000000" fill-rule="nonzero" fill-opacity="1" /><path clip-path="url(#clip380)" d="M1564.07 1457.48 Q1560.46 1457.48 1558.63 1461.04 Q1556.82 1464.58 1556.82 1471.71 Q1556.82 1478.82 1558.63 1482.38 Q1560.46 1485.92 1564.07 1485.92 Q1567.7 1485.92 1569.51 1482.38 Q1571.34 1478.82 1571.34 1471.71 Q1571.34 1464.58 1569.51 1461.04 Q1567.7 1457.48 1564.07 1457.48 M1564.07 1453.77 Q1569.88 1453.77 1572.93 1458.38 Q1576.01 1462.96 1576.01 1471.71 Q1576.01 1480.44 1572.93 1485.04 Q1569.88 1489.63 1564.07 1489.63 Q1558.26 1489.63 1555.18 1485.04 Q1552.12 1480.44 1552.12 1471.71 Q1552.12 1462.96 1555.18 1458.38 Q1558.26 1453.77 1564.07 1453.77 Z" fill="#000000" fill-rule="nonzero" fill-opacity="1" /><path clip-path="url(#clip380)" d="M1588.71 1446.41 Q1591.44 1446.99 1592.96 1448.83 Q1594.5 1450.68 1594.5 1453.38 Q1594.5 1457.54 1591.64 1459.82 Q1588.78 1462.09 1583.52 1462.09 Q1581.75 1462.09 1579.87 1461.73 Q1578.01 1461.4 1576.01 1460.7 L1576.01 1457.03 Q1577.59 1457.95 1579.47 1458.42 Q1581.35 1458.89 1583.4 1458.89 Q1586.98 1458.89 1588.84 1457.48 Q1590.72 1456.07 1590.72 1453.38 Q1590.72 1450.9 1588.97 1449.51 Q1587.24 1448.1 1584.14 1448.1 L1580.87 1448.1 L1580.87 1444.98 L1584.29 1444.98 Q1587.09 1444.98 1588.58 1443.87 Q1590.06 1442.74 1590.06 1440.63 Q1590.06 1438.47 1588.52 1437.32 Q1587 1436.16 1584.14 1436.16 Q1582.58 1436.16 1580.79 1436.49 Q1579 1436.83 1576.86 1437.55 L1576.86 1434.16 Q1579.02 1433.56 1580.9 1433.26 Q1582.8 1432.96 1584.48 1432.96 Q1588.8 1432.96 1591.32 1434.93 Q1593.84 1436.89 1593.84 1440.24 Q1593.84 1442.57 1592.51 1444.19 Q1591.17 1445.79 1588.71 1446.41 Z" fill="#000000" fill-rule="nonzero" fill-opacity="1" /><path clip-path="url(#clip380)" d="M1601.7 1456.77 L1605.67 1456.77 L1605.67 1461.55 L1601.7 1461.55 L1601.7 1456.77 Z" fill="#000000" fill-rule="nonzero" fill-opacity="1" /><path clip-path="url(#clip380)" d="M1613.99 1433.47 L1628.9 1433.47 L1628.9 1436.66 L1617.47 1436.66 L1617.47 1443.55 Q1618.29 1443.27 1619.12 1443.13 Q1619.95 1442.98 1620.78 1442.98 Q1625.48 1442.98 1628.22 1445.56 Q1630.97 1448.14 1630.97 1452.54 Q1630.97 1457.07 1628.15 1459.59 Q1625.33 1462.09 1620.19 1462.09 Q1618.42 1462.09 1616.58 1461.79 Q1614.76 1461.49 1612.8 1460.89 L1612.8 1457.07 Q1614.49 1457.99 1616.3 1458.44 Q1618.1 1458.89 1620.12 1458.89 Q1623.37 1458.89 1625.27 1457.18 Q1627.17 1455.47 1627.17 1452.54 Q1627.17 1449.6 1625.27 1447.89 Q1623.37 1446.18 1620.12 1446.18 Q1618.59 1446.18 1617.07 1446.52 Q1615.57 1446.86 1613.99 1447.57 L1613.99 1433.47 Z" fill="#000000" fill-rule="nonzero" fill-opacity="1" /><path clip-path="url(#clip380)" d="M1261.56 1552.67 L1261.56 1574.19 L1255.71 1574.19 L1255.71 1552.86 Q1255.71 1547.8 1253.73 1545.29 Q1251.76 1542.77 1247.81 1542.77 Q1243.07 1542.77 1240.33 1545.79 Q1237.6 1548.82 1237.6 1554.04 L1237.6 1574.19 L1231.71 1574.19 L1231.71 1538.54 L1237.6 1538.54 L1237.6 1544.08 Q1239.7 1540.86 1242.53 1539.27 Q1245.39 1537.68 1249.12 1537.68 Q1255.26 1537.68 1258.41 1541.5 Q1261.56 1545.29 1261.56 1552.67 Z" fill="#000000" fill-rule="nonzero" fill-opacity="1" /><path clip-path="url(#clip380)" d="M1269.04 1538.54 L1275.25 1538.54 L1286.39 1568.46 L1297.53 1538.54 L1303.74 1538.54 L1290.37 1574.19 L1282.41 1574.19 L1269.04 1538.54 Z" fill="#000000" fill-rule="nonzero" fill-opacity="1" /><path clip-path="url(#clip380)" d="M1328.02 1556.27 Q1320.92 1556.27 1318.19 1557.89 Q1315.45 1559.51 1315.45 1563.43 Q1315.45 1566.55 1317.48 1568.39 Q1319.55 1570.21 1323.09 1570.21 Q1327.96 1570.21 1330.88 1566.77 Q1333.84 1563.3 1333.84 1557.57 L1333.84 1556.27 L1328.02 1556.27 M1339.7 1553.85 L1339.7 1574.19 L1333.84 1574.19 L1333.84 1568.77 Q1331.84 1572.02 1328.85 1573.58 Q1325.86 1575.11 1321.53 1575.11 Q1316.05 1575.11 1312.81 1572.05 Q1309.59 1568.97 1309.59 1563.81 Q1309.59 1557.79 1313.6 1554.74 Q1317.64 1551.68 1325.63 1551.68 L1333.84 1551.68 L1333.84 1551.11 Q1333.84 1547.07 1331.17 1544.87 Q1328.53 1542.64 1323.72 1542.64 Q1320.67 1542.64 1317.77 1543.38 Q1314.88 1544.11 1312.2 1545.57 L1312.2 1540.16 Q1315.42 1538.92 1318.44 1538.31 Q1321.46 1537.68 1324.33 1537.68 Q1332.06 1537.68 1335.88 1541.69 Q1339.7 1545.7 1339.7 1553.85 Z" fill="#000000" fill-rule="nonzero" fill-opacity="1" /><path clip-path="url(#clip380)" d="M1372.42 1544.01 Q1371.43 1543.44 1370.26 1543.18 Q1369.11 1542.9 1367.71 1542.9 Q1362.75 1542.9 1360.07 1546.14 Q1357.43 1549.36 1357.43 1555.41 L1357.43 1574.19 L1351.54 1574.19 L1351.54 1538.54 L1357.43 1538.54 L1357.43 1544.08 Q1359.28 1540.83 1362.24 1539.27 Q1365.2 1537.68 1369.43 1537.68 Q1370.03 1537.68 1370.77 1537.77 Q1371.5 1537.84 1372.39 1538 L1372.42 1544.01 Z" fill="#000000" fill-rule="nonzero" fill-opacity="1" /><polyline clip-path="url(#clip380)" style="stroke:#000000; stroke-linecap:round; stroke-linejoin:round; stroke-width:4; stroke-opacity:1; fill:none" points="251.372,1410.9 251.372,123.472 "/>
<polyline clip-path="url(#clip380)" style="stroke:#000000; stroke-linecap:round; stroke-linejoin:round; stroke-width:4; stroke-opacity:1; fill:none" points="251.372,1296.38 270.27,1296.38 "/>
<polyline clip-path="url(#clip380)" style="stroke:#000000; stroke-linecap:round; stroke-linejoin:round; stroke-width:4; stroke-opacity:1; fill:none" points="251.372,792.411 270.27,792.411 "/>
<polyline clip-path="url(#clip380)" style="stroke:#000000; stroke-linecap:round; stroke-linejoin:round; stroke-width:4; stroke-opacity:1; fill:none" points="251.372,288.439 270.27,288.439 "/>
<path clip-path="url(#clip380)" d="M115.232 1316.18 L122.871 1316.18 L122.871 1289.81 L114.561 1291.48 L114.561 1287.22 L122.825 1285.55 L127.501 1285.55 L127.501 1316.18 L135.14 1316.18 L135.14 1320.11 L115.232 1320.11 L115.232 1316.18 Z" fill="#000000" fill-rule="nonzero" fill-opacity="1" /><path clip-path="url(#clip380)" d="M154.584 1288.63 Q150.973 1288.63 149.144 1292.19 Q147.339 1295.74 147.339 1302.86 Q147.339 1309.97 149.144 1313.54 Q150.973 1317.08 154.584 1317.08 Q158.218 1317.08 160.024 1313.54 Q161.852 1309.97 161.852 1302.86 Q161.852 1295.74 160.024 1292.19 Q158.218 1288.63 154.584 1288.63 M154.584 1284.93 Q160.394 1284.93 163.45 1289.53 Q166.528 1294.11 166.528 1302.86 Q166.528 1311.59 163.45 1316.2 Q160.394 1320.78 154.584 1320.78 Q148.774 1320.78 145.695 1316.2 Q142.64 1311.59 142.64 1302.86 Q142.64 1294.11 145.695 1289.53 Q148.774 1284.93 154.584 1284.93 Z" fill="#000000" fill-rule="nonzero" fill-opacity="1" /><path clip-path="url(#clip380)" d="M166.528 1279.03 L190.64 1279.03 L190.64 1282.22 L166.528 1282.22 L166.528 1279.03 Z" fill="#000000" fill-rule="nonzero" fill-opacity="1" /><path clip-path="url(#clip380)" d="M202.113 1289.5 L215.372 1289.5 L215.372 1292.7 L197.542 1292.7 L197.542 1289.5 Q199.705 1287.26 203.429 1283.5 Q207.172 1279.72 208.131 1278.63 Q209.956 1276.58 210.67 1275.17 Q211.404 1273.74 211.404 1272.37 Q211.404 1270.13 209.824 1268.72 Q208.263 1267.31 205.743 1267.31 Q203.956 1267.31 201.962 1267.93 Q199.987 1268.55 197.73 1269.81 L197.73 1265.97 Q200.025 1265.05 202.019 1264.58 Q204.012 1264.11 205.667 1264.11 Q210.031 1264.11 212.626 1266.29 Q215.222 1268.48 215.222 1272.12 Q215.222 1273.85 214.563 1275.42 Q213.924 1276.96 212.212 1279.06 Q211.742 1279.61 209.222 1282.22 Q206.702 1284.82 202.113 1289.5 Z" fill="#000000" fill-rule="nonzero" fill-opacity="1" /><path clip-path="url(#clip380)" d="M114.931 812.203 L122.57 812.203 L122.57 785.838 L114.26 787.504 L114.26 783.245 L122.524 781.578 L127.2 781.578 L127.2 812.203 L134.839 812.203 L134.839 816.138 L114.931 816.138 L114.931 812.203 Z" fill="#000000" fill-rule="nonzero" fill-opacity="1" /><path clip-path="url(#clip380)" d="M154.283 784.657 Q150.672 784.657 148.843 788.222 Q147.038 791.764 147.038 798.893 Q147.038 806 148.843 809.564 Q150.672 813.106 154.283 813.106 Q157.917 813.106 159.723 809.564 Q161.552 806 161.552 798.893 Q161.552 791.764 159.723 788.222 Q157.917 784.657 154.283 784.657 M154.283 780.953 Q160.093 780.953 163.149 785.56 Q166.227 790.143 166.227 798.893 Q166.227 807.62 163.149 812.226 Q160.093 816.81 154.283 816.81 Q148.473 816.81 145.394 812.226 Q142.339 807.62 142.339 798.893 Q142.339 790.143 145.394 785.56 Q148.473 780.953 154.283 780.953 Z" fill="#000000" fill-rule="nonzero" fill-opacity="1" /><path clip-path="url(#clip380)" d="M166.227 775.055 L190.339 775.055 L190.339 778.252 L166.227 778.252 L166.227 775.055 Z" fill="#000000" fill-rule="nonzero" fill-opacity="1" /><path clip-path="url(#clip380)" d="M199.197 785.531 L205.404 785.531 L205.404 764.109 L198.652 765.463 L198.652 762.002 L205.366 760.648 L209.166 760.648 L209.166 785.531 L215.372 785.531 L215.372 788.728 L199.197 788.728 L199.197 785.531 Z" fill="#000000" fill-rule="nonzero" fill-opacity="1" /><path clip-path="url(#clip380)" d="M144.667 308.232 L152.305 308.232 L152.305 281.866 L143.995 283.533 L143.995 279.273 L152.259 277.607 L156.935 277.607 L156.935 308.232 L164.574 308.232 L164.574 312.167 L144.667 312.167 L144.667 308.232 Z" fill="#000000" fill-rule="nonzero" fill-opacity="1" /><path clip-path="url(#clip380)" d="M184.018 280.685 Q180.407 280.685 178.578 284.25 Q176.773 287.792 176.773 294.921 Q176.773 302.028 178.578 305.593 Q180.407 309.134 184.018 309.134 Q187.652 309.134 189.458 305.593 Q191.287 302.028 191.287 294.921 Q191.287 287.792 189.458 284.25 Q187.652 280.685 184.018 280.685 M184.018 276.982 Q189.828 276.982 192.884 281.588 Q195.963 286.171 195.963 294.921 Q195.963 303.648 192.884 308.255 Q189.828 312.838 184.018 312.838 Q178.208 312.838 175.129 308.255 Q172.074 303.648 172.074 294.921 Q172.074 286.171 175.129 281.588 Q178.208 276.982 184.018 276.982 Z" fill="#000000" fill-rule="nonzero" fill-opacity="1" /><path clip-path="url(#clip380)" d="M205.667 259.178 Q202.733 259.178 201.248 262.074 Q199.781 264.952 199.781 270.744 Q199.781 276.518 201.248 279.415 Q202.733 282.292 205.667 282.292 Q208.62 282.292 210.087 279.415 Q211.573 276.518 211.573 270.744 Q211.573 264.952 210.087 262.074 Q208.62 259.178 205.667 259.178 M205.667 256.168 Q210.388 256.168 212.871 259.911 Q215.372 263.635 215.372 270.744 Q215.372 277.835 212.871 281.578 Q210.388 285.302 205.667 285.302 Q200.947 285.302 198.445 281.578 Q195.963 277.835 195.963 270.744 Q195.963 263.635 198.445 259.911 Q200.947 256.168 205.667 256.168 Z" fill="#000000" fill-rule="nonzero" fill-opacity="1" /><path clip-path="url(#clip380)" d="M18.0438 1032.09 L24.314 1032.09 Q22.5634 1035.75 21.704 1039 Q20.8447 1042.25 20.8447 1045.27 Q20.8447 1050.52 22.8817 1053.39 Q24.9187 1056.22 28.6745 1056.22 Q31.8255 1056.22 33.4488 1054.34 Q35.0402 1052.43 36.0269 1047.15 L36.8226 1043.27 Q38.1912 1036.07 41.6605 1032.67 Q45.098 1029.23 50.8908 1029.23 Q57.7976 1029.23 61.3624 1033.88 Q64.9272 1038.49 64.9272 1047.43 Q64.9272 1050.81 64.1633 1054.63 Q63.3994 1058.42 61.9035 1062.49 L55.2831 1062.49 Q57.4793 1058.57 58.5933 1054.82 Q59.7073 1051.06 59.7073 1047.43 Q59.7073 1041.93 57.543 1038.94 Q55.3786 1035.94 51.3682 1035.94 Q47.8671 1035.94 45.8937 1038.11 Q43.9204 1040.24 42.9337 1045.14 L42.1698 1049.06 Q40.7375 1056.25 37.682 1059.47 Q34.6264 1062.68 29.1837 1062.68 Q22.8817 1062.68 19.2532 1058.26 Q15.6248 1053.8 15.6248 1046 Q15.6248 1042.66 16.2295 1039.19 Q16.8343 1035.72 18.0438 1032.09 Z" fill="#000000" fill-rule="nonzero" fill-opacity="1" /><path clip-path="url(#clip380)" d="M58.657 1013.79 L77.5631 1013.79 L77.5631 1019.68 L28.3562 1019.68 L28.3562 1013.79 L33.7671 1013.79 Q30.5842 1011.95 29.0564 1009.14 Q27.4968 1006.31 27.4968 1002.4 Q27.4968 995.904 32.6531 991.862 Q37.8093 987.788 46.212 987.788 Q54.6147 987.788 59.771 991.862 Q64.9272 995.904 64.9272 1002.4 Q64.9272 1006.31 63.3994 1009.14 Q61.8398 1011.95 58.657 1013.79 M46.212 993.867 Q39.7508 993.867 36.0905 996.541 Q32.3984 999.183 32.3984 1003.83 Q32.3984 1008.48 36.0905 1011.15 Q39.7508 1013.79 46.212 1013.79 Q52.6732 1013.79 56.3653 1011.15 Q60.0256 1008.48 60.0256 1003.83 Q60.0256 999.183 56.3653 996.541 Q52.6732 993.867 46.212 993.867 Z" fill="#000000" fill-rule="nonzero" fill-opacity="1" /><path clip-path="url(#clip380)" d="M44.7161 947.589 L47.5806 947.589 L47.5806 974.515 Q53.6281 974.134 56.8109 970.887 Q59.9619 967.609 59.9619 961.784 Q59.9619 958.41 59.1344 955.259 Q58.3069 952.076 56.6518 948.957 L62.1899 948.957 Q63.5267 952.108 64.227 955.418 Q64.9272 958.728 64.9272 962.134 Q64.9272 970.664 59.9619 975.661 Q54.9967 980.627 46.5303 980.627 Q37.7774 980.627 32.6531 975.916 Q27.4968 971.173 27.4968 963.153 Q27.4968 955.959 32.1438 951.79 Q36.7589 947.589 44.7161 947.589 M42.9973 953.445 Q38.1912 953.509 35.3266 956.15 Q32.4621 958.76 32.4621 963.089 Q32.4621 967.991 35.2312 970.951 Q38.0002 973.879 43.0292 974.324 L42.9973 953.445 Z" fill="#000000" fill-rule="nonzero" fill-opacity="1" /><path clip-path="url(#clip380)" d="M44.7161 907.485 L47.5806 907.485 L47.5806 934.411 Q53.6281 934.03 56.8109 930.783 Q59.9619 927.505 59.9619 921.68 Q59.9619 918.306 59.1344 915.155 Q58.3069 911.972 56.6518 908.853 L62.1899 908.853 Q63.5267 912.004 64.227 915.314 Q64.9272 918.625 64.9272 922.03 Q64.9272 930.56 59.9619 935.557 Q54.9967 940.523 46.5303 940.523 Q37.7774 940.523 32.6531 935.812 Q27.4968 931.07 27.4968 923.049 Q27.4968 915.855 32.1438 911.686 Q36.7589 907.485 44.7161 907.485 M42.9973 913.341 Q38.1912 913.405 35.3266 916.046 Q32.4621 918.656 32.4621 922.985 Q32.4621 927.887 35.2312 930.847 Q38.0002 933.775 43.0292 934.221 L42.9973 913.341 Z" fill="#000000" fill-rule="nonzero" fill-opacity="1" /><path clip-path="url(#clip380)" d="M33.7671 874.415 L14.479 874.415 L14.479 868.558 L64.0042 868.558 L64.0042 874.415 L58.657 874.415 Q61.8398 876.261 63.3994 879.094 Q64.9272 881.894 64.9272 885.841 Q64.9272 892.302 59.771 896.376 Q54.6147 900.419 46.212 900.419 Q37.8093 900.419 32.6531 896.376 Q27.4968 892.302 27.4968 885.841 Q27.4968 881.894 29.0564 879.094 Q30.5842 876.261 33.7671 874.415 M46.212 894.371 Q52.6732 894.371 56.3653 891.729 Q60.0256 889.056 60.0256 884.409 Q60.0256 879.762 56.3653 877.088 Q52.6732 874.415 46.212 874.415 Q39.7508 874.415 36.0905 877.088 Q32.3984 879.762 32.3984 884.409 Q32.3984 889.056 36.0905 891.729 Q39.7508 894.371 46.212 894.371 Z" fill="#000000" fill-rule="nonzero" fill-opacity="1" /><path clip-path="url(#clip380)" d="M49.9359 857.1 L28.3562 857.1 L28.3562 851.244 L49.7131 851.244 Q54.7739 851.244 57.3202 849.27 Q59.8346 847.297 59.8346 843.35 Q59.8346 838.608 56.8109 835.87 Q53.7872 833.101 48.5673 833.101 L28.3562 833.101 L28.3562 827.245 L64.0042 827.245 L64.0042 833.101 L58.5296 833.101 Q61.7762 835.234 63.3676 838.067 Q64.9272 840.867 64.9272 844.591 Q64.9272 850.734 61.1078 853.917 Q57.2883 857.1 49.9359 857.1 M27.4968 842.363 L27.4968 842.363 Z" fill="#000000" fill-rule="nonzero" fill-opacity="1" /><path clip-path="url(#clip380)" d="M58.657 809.516 L77.5631 809.516 L77.5631 815.405 L28.3562 815.405 L28.3562 809.516 L33.7671 809.516 Q30.5842 807.67 29.0564 804.869 Q27.4968 802.037 27.4968 798.122 Q27.4968 791.629 32.6531 787.586 Q37.8093 783.512 46.212 783.512 Q54.6147 783.512 59.771 787.586 Q64.9272 791.629 64.9272 798.122 Q64.9272 802.037 63.3994 804.869 Q61.8398 807.67 58.657 809.516 M46.212 789.592 Q39.7508 789.592 36.0905 792.265 Q32.3984 794.907 32.3984 799.554 Q32.3984 804.201 36.0905 806.875 Q39.7508 809.516 46.212 809.516 Q52.6732 809.516 56.3653 806.875 Q60.0256 804.201 60.0256 799.554 Q60.0256 794.907 56.3653 792.265 Q52.6732 789.592 46.212 789.592 Z" fill="#000000" fill-rule="nonzero" fill-opacity="1" /><path clip-path="url(#clip380)" d="M28.3562 757.286 L28.3562 751.079 L58.275 739.939 L28.3562 728.799 L28.3562 722.593 L64.0042 735.961 L64.0042 743.918 L28.3562 757.286 Z" fill="#000000" fill-rule="nonzero" fill-opacity="1" /><path clip-path="url(#clip380)" d="M29.4065 691.783 L34.9447 691.783 Q33.6716 694.265 33.035 696.939 Q32.3984 699.612 32.3984 702.477 Q32.3984 706.837 33.7352 709.034 Q35.072 711.198 37.7456 711.198 Q39.7826 711.198 40.9603 709.638 Q42.1061 708.079 43.1565 703.368 L43.6021 701.363 Q44.9389 695.125 47.3897 692.515 Q49.8086 689.873 54.1691 689.873 Q59.1344 689.873 62.0308 693.82 Q64.9272 697.735 64.9272 704.609 Q64.9272 707.474 64.3543 710.593 Q63.8132 713.681 62.6992 717.118 L56.6518 717.118 Q58.3387 713.872 59.198 710.721 Q60.0256 707.57 60.0256 704.482 Q60.0256 700.344 58.6251 698.116 Q57.1929 695.888 54.6147 695.888 Q52.2276 695.888 50.9545 697.512 Q49.6813 699.103 48.5037 704.546 L48.0262 706.583 Q46.8804 712.026 44.5251 714.445 Q42.138 716.863 38.0002 716.863 Q32.9713 716.863 30.2341 713.299 Q27.4968 709.734 27.4968 703.177 Q27.4968 699.931 27.9743 697.066 Q28.4517 694.202 29.4065 691.783 Z" fill="#000000" fill-rule="nonzero" fill-opacity="1" /><path clip-path="url(#clip380)" d="M55.9197 679.72 L55.9197 673.004 L64.0042 673.004 L64.0042 679.72 L55.9197 679.72 Z" fill="#000000" fill-rule="nonzero" fill-opacity="1" /><path clip-path="url(#clip380)" d="M16.4842 638.852 L16.4842 629.271 L48.8219 617.145 L16.4842 604.954 L16.4842 595.374 L64.0042 595.374 L64.0042 601.644 L22.277 601.644 L54.8694 613.898 L54.8694 620.359 L22.277 632.613 L64.0042 632.613 L64.0042 638.852 L16.4842 638.852 Z" fill="#000000" fill-rule="nonzero" fill-opacity="1" /><path clip-path="url(#clip380)" d="M46.0847 566.665 Q46.0847 573.762 47.7079 576.5 Q49.3312 579.237 53.2461 579.237 Q56.3653 579.237 58.2114 577.2 Q60.0256 575.131 60.0256 571.598 Q60.0256 566.728 56.5881 563.8 Q53.1188 560.84 47.3897 560.84 L46.0847 560.84 L46.0847 566.665 M43.6657 554.984 L64.0042 554.984 L64.0042 560.84 L58.5933 560.84 Q61.8398 562.845 63.3994 565.837 Q64.9272 568.829 64.9272 573.158 Q64.9272 578.632 61.8716 581.879 Q58.7843 585.093 53.6281 585.093 Q47.6125 585.093 44.5569 581.083 Q41.5014 577.041 41.5014 569.052 L41.5014 560.84 L40.9285 560.84 Q36.8862 560.84 34.6901 563.514 Q32.4621 566.155 32.4621 570.961 Q32.4621 574.017 33.1941 576.913 Q33.9262 579.81 35.3903 582.483 L29.9795 582.483 Q28.7381 579.269 28.1334 576.245 Q27.4968 573.221 27.4968 570.357 Q27.4968 562.622 31.5072 558.803 Q35.5176 554.984 43.6657 554.984 Z" fill="#000000" fill-rule="nonzero" fill-opacity="1" /><path clip-path="url(#clip380)" d="M58.5933 536.555 L58.5933 514.116 L64.0042 514.116 L64.0042 544.289 L58.5933 544.289 Q54.8057 540.629 48.44 534.327 Q42.0425 527.993 40.1964 526.37 Q36.7271 523.282 34.34 522.073 Q31.921 520.832 29.5975 520.832 Q25.8099 520.832 23.4228 523.505 Q21.0356 526.147 21.0356 530.412 Q21.0356 533.436 22.086 536.809 Q23.1363 540.151 25.2688 543.971 L18.7758 543.971 Q17.2162 540.088 16.4205 536.714 Q15.6248 533.34 15.6248 530.539 Q15.6248 523.155 19.3169 518.763 Q23.009 514.37 29.1837 514.37 Q32.112 514.37 34.7537 515.484 Q37.3637 516.567 40.9285 519.463 Q41.8515 520.259 46.2757 524.524 Q50.668 528.789 58.5933 536.555 Z" fill="#000000" fill-rule="nonzero" fill-opacity="1" /><path clip-path="url(#clip380)" d="M16.4842 502.244 L16.4842 471.688 L19.2214 471.688 L64.0042 488.939 L64.0042 495.655 L21.895 479.423 L21.895 502.244 L16.4842 502.244 Z" fill="#000000" fill-rule="nonzero" fill-opacity="1" /><path clip-path="url(#clip380)" d="M594.958 14.0809 L594.958 22.0612 Q590.3 19.8332 586.168 18.7395 Q582.036 17.6457 578.188 17.6457 Q571.504 17.6457 567.858 20.2383 Q564.253 22.8309 564.253 27.611 Q564.253 31.6214 566.643 33.6873 Q569.073 35.7128 575.798 36.9686 L580.74 37.9813 Q589.895 39.7232 594.229 44.1387 Q598.604 48.5136 598.604 55.8863 Q598.604 64.6767 592.69 69.2137 Q586.816 73.7508 575.433 73.7508 Q571.139 73.7508 566.278 72.7785 Q561.457 71.8063 556.272 69.9024 L556.272 61.4765 Q561.255 64.2716 566.035 65.6895 Q570.815 67.1073 575.433 67.1073 Q582.441 67.1073 586.249 64.3527 Q590.057 61.598 590.057 56.4939 Q590.057 52.0379 587.302 49.5264 Q584.588 47.0148 578.35 45.759 L573.367 44.7868 Q564.212 42.9639 560.121 39.075 Q556.029 35.1862 556.029 28.2591 Q556.029 20.2383 561.66 15.6203 Q567.331 11.0023 577.256 11.0023 Q581.509 11.0023 585.925 11.7719 Q590.34 12.5416 594.958 14.0809 Z" fill="#000000" fill-rule="nonzero" fill-opacity="1" /><path clip-path="url(#clip380)" d="M618.251 65.7705 L618.251 89.8329 L610.757 89.8329 L610.757 27.2059 L618.251 27.2059 L618.251 34.0924 Q620.601 30.0415 624.165 28.0971 Q627.771 26.1121 632.753 26.1121 Q641.017 26.1121 646.162 32.6746 Q651.347 39.2371 651.347 49.9314 Q651.347 60.6258 646.162 67.1883 Q641.017 73.7508 632.753 73.7508 Q627.771 73.7508 624.165 71.8063 Q620.601 69.8214 618.251 65.7705 M643.61 49.9314 Q643.61 41.7081 640.207 37.0496 Q636.845 32.3505 630.93 32.3505 Q625.016 32.3505 621.613 37.0496 Q618.251 41.7081 618.251 49.9314 Q618.251 58.1548 621.613 62.8538 Q625.016 67.5124 630.93 67.5124 Q636.845 67.5124 640.207 62.8538 Q643.61 58.1548 643.61 49.9314 Z" fill="#000000" fill-rule="nonzero" fill-opacity="1" /><path clip-path="url(#clip380)" d="M702.51 48.0275 L702.51 51.6733 L668.239 51.6733 Q668.725 59.3701 672.857 63.421 Q677.03 67.4314 684.443 67.4314 Q688.737 67.4314 692.747 66.3781 Q696.798 65.3249 700.768 63.2184 L700.768 70.267 Q696.758 71.9684 692.545 72.8596 Q688.332 73.7508 683.997 73.7508 Q673.141 73.7508 666.781 67.4314 Q660.462 61.1119 660.462 50.3365 Q660.462 39.1965 666.457 32.6746 Q672.493 26.1121 682.701 26.1121 Q691.856 26.1121 697.163 32.0264 Q702.51 37.9003 702.51 48.0275 M695.056 45.84 Q694.975 39.7232 691.613 36.0774 Q688.291 32.4315 682.782 32.4315 Q676.544 32.4315 672.776 35.9558 Q669.049 39.4801 668.482 45.8805 L695.056 45.84 Z" fill="#000000" fill-rule="nonzero" fill-opacity="1" /><path clip-path="url(#clip380)" d="M753.551 48.0275 L753.551 51.6733 L719.281 51.6733 Q719.767 59.3701 723.899 63.421 Q728.071 67.4314 735.484 67.4314 Q739.778 67.4314 743.789 66.3781 Q747.84 65.3249 751.809 63.2184 L751.809 70.267 Q747.799 71.9684 743.586 72.8596 Q739.373 73.7508 735.039 73.7508 Q724.182 73.7508 717.822 67.4314 Q711.503 61.1119 711.503 50.3365 Q711.503 39.1965 717.498 32.6746 Q723.534 26.1121 733.742 26.1121 Q742.897 26.1121 748.204 32.0264 Q753.551 37.9003 753.551 48.0275 M746.098 45.84 Q746.017 39.7232 742.654 36.0774 Q739.333 32.4315 733.823 32.4315 Q727.585 32.4315 723.818 35.9558 Q720.091 39.4801 719.524 45.8805 L746.098 45.84 Z" fill="#000000" fill-rule="nonzero" fill-opacity="1" /><path clip-path="url(#clip380)" d="M795.64 34.0924 L795.64 9.54393 L803.094 9.54393 L803.094 72.576 L795.64 72.576 L795.64 65.7705 Q793.291 69.8214 789.685 71.8063 Q786.121 73.7508 781.098 73.7508 Q772.874 73.7508 767.689 67.1883 Q762.544 60.6258 762.544 49.9314 Q762.544 39.2371 767.689 32.6746 Q772.874 26.1121 781.098 26.1121 Q786.121 26.1121 789.685 28.0971 Q793.291 30.0415 795.64 34.0924 M770.241 49.9314 Q770.241 58.1548 773.603 62.8538 Q777.006 67.5124 782.92 67.5124 Q788.835 67.5124 792.237 62.8538 Q795.64 58.1548 795.64 49.9314 Q795.64 41.7081 792.237 37.0496 Q788.835 32.3505 782.92 32.3505 Q777.006 32.3505 773.603 37.0496 Q770.241 41.7081 770.241 49.9314 Z" fill="#000000" fill-rule="nonzero" fill-opacity="1" /><path clip-path="url(#clip380)" d="M817.677 54.671 L817.677 27.2059 L825.131 27.2059 L825.131 54.3874 Q825.131 60.8284 827.642 64.0691 Q830.154 67.2693 835.177 67.2693 Q841.213 67.2693 844.697 63.421 Q848.221 59.5726 848.221 52.9291 L848.221 27.2059 L855.675 27.2059 L855.675 72.576 L848.221 72.576 L848.221 65.6084 Q845.507 69.7404 841.902 71.7658 Q838.337 73.7508 833.597 73.7508 Q825.779 73.7508 821.728 68.8897 Q817.677 64.0286 817.677 54.671 M836.433 26.1121 L836.433 26.1121 Z" fill="#000000" fill-rule="nonzero" fill-opacity="1" /><path clip-path="url(#clip380)" d="M878.238 65.7705 L878.238 89.8329 L870.744 89.8329 L870.744 27.2059 L878.238 27.2059 L878.238 34.0924 Q880.588 30.0415 884.153 28.0971 Q887.758 26.1121 892.74 26.1121 Q901.004 26.1121 906.149 32.6746 Q911.334 39.2371 911.334 49.9314 Q911.334 60.6258 906.149 67.1883 Q901.004 73.7508 892.74 73.7508 Q887.758 73.7508 884.153 71.8063 Q880.588 69.8214 878.238 65.7705 M903.597 49.9314 Q903.597 41.7081 900.194 37.0496 Q896.832 32.3505 890.918 32.3505 Q885.003 32.3505 881.6 37.0496 Q878.238 41.7081 878.238 49.9314 Q878.238 58.1548 881.6 62.8538 Q885.003 67.5124 890.918 67.5124 Q896.832 67.5124 900.194 62.8538 Q903.597 58.1548 903.597 49.9314 Z" fill="#000000" fill-rule="nonzero" fill-opacity="1" /><path clip-path="url(#clip380)" d="M944.714 27.2059 L952.613 27.2059 L966.791 65.2844 L980.969 27.2059 L988.868 27.2059 L971.855 72.576 L961.727 72.576 L944.714 27.2059 Z" fill="#000000" fill-rule="nonzero" fill-opacity="1" /><path clip-path="url(#clip380)" d="M1028.08 28.5427 L1028.08 35.5912 Q1024.92 33.9709 1021.52 33.1607 Q1018.12 32.3505 1014.47 32.3505 Q1008.92 32.3505 1006.13 34.0519 Q1003.37 35.7533 1003.37 39.156 Q1003.37 41.7486 1005.36 43.2475 Q1007.34 44.7058 1013.34 46.0426 L1015.89 46.6097 Q1023.83 48.3111 1027.15 51.4303 Q1030.51 54.509 1030.51 60.0587 Q1030.51 66.3781 1025.49 70.0644 Q1020.51 73.7508 1011.76 73.7508 Q1008.11 73.7508 1004.14 73.0216 Q1000.21 72.3329 995.836 70.9151 L995.836 63.2184 Q999.968 65.3654 1003.98 66.4591 Q1007.99 67.5124 1011.92 67.5124 Q1017.18 67.5124 1020.02 65.73 Q1022.86 63.9071 1022.86 60.6258 Q1022.86 57.5877 1020.79 55.9673 Q1018.76 54.3469 1011.84 52.8481 L1009.24 52.2405 Q1002.32 50.7821 999.239 47.7845 Q996.16 44.7463 996.16 39.4801 Q996.16 33.0797 1000.7 29.5959 Q1005.23 26.1121 1013.58 26.1121 Q1017.71 26.1121 1021.36 26.7198 Q1025 27.3274 1028.08 28.5427 Z" fill="#000000" fill-rule="nonzero" fill-opacity="1" /><path clip-path="url(#clip380)" d="M1043.43 62.2867 L1051.98 62.2867 L1051.98 72.576 L1043.43 72.576 L1043.43 62.2867 Z" fill="#000000" fill-rule="nonzero" fill-opacity="1" /><path clip-path="url(#clip380)" d="M1103.63 18.8205 L1103.63 41.5461 L1113.92 41.5461 Q1119.63 41.5461 1122.75 38.5889 Q1125.87 35.6318 1125.87 30.163 Q1125.87 24.7348 1122.75 21.7777 Q1119.63 18.8205 1113.92 18.8205 L1103.63 18.8205 M1095.45 12.096 L1113.92 12.096 Q1124.09 12.096 1129.27 16.714 Q1134.5 21.2916 1134.5 30.163 Q1134.5 39.1155 1129.27 43.6931 Q1124.09 48.2706 1113.92 48.2706 L1103.63 48.2706 L1103.63 72.576 L1095.45 72.576 L1095.45 12.096 Z" fill="#000000" fill-rule="nonzero" fill-opacity="1" /><path clip-path="url(#clip380)" d="M1169.98 34.1734 Q1168.73 33.4443 1167.23 33.1202 Q1165.77 32.7556 1163.99 32.7556 Q1157.67 32.7556 1154.27 36.8875 Q1150.9 40.9789 1150.9 48.6757 L1150.9 72.576 L1143.41 72.576 L1143.41 27.2059 L1150.9 27.2059 L1150.9 34.2544 Q1153.25 30.1225 1157.02 28.1376 Q1160.79 26.1121 1166.18 26.1121 Q1166.95 26.1121 1167.88 26.2337 Q1168.81 26.3147 1169.94 26.5172 L1169.98 34.1734 Z" fill="#000000" fill-rule="nonzero" fill-opacity="1" /><path clip-path="url(#clip380)" d="M1193.56 32.4315 Q1187.57 32.4315 1184.08 37.1306 Q1180.6 41.7891 1180.6 49.9314 Q1180.6 58.0738 1184.04 62.7728 Q1187.52 67.4314 1193.56 67.4314 Q1199.52 67.4314 1203 62.7323 Q1206.48 58.0333 1206.48 49.9314 Q1206.48 41.8701 1203 37.1711 Q1199.52 32.4315 1193.56 32.4315 M1193.56 26.1121 Q1203.28 26.1121 1208.83 32.4315 Q1214.38 38.7509 1214.38 49.9314 Q1214.38 61.0714 1208.83 67.4314 Q1203.28 73.7508 1193.56 73.7508 Q1183.8 73.7508 1178.25 67.4314 Q1172.74 61.0714 1172.74 49.9314 Q1172.74 38.7509 1178.25 32.4315 Q1183.8 26.1121 1193.56 26.1121 Z" fill="#000000" fill-rule="nonzero" fill-opacity="1" /><path clip-path="url(#clip380)" d="M1259.31 49.9314 Q1259.31 41.7081 1255.9 37.0496 Q1252.54 32.3505 1246.63 32.3505 Q1240.71 32.3505 1237.31 37.0496 Q1233.95 41.7081 1233.95 49.9314 Q1233.95 58.1548 1237.31 62.8538 Q1240.71 67.5124 1246.63 67.5124 Q1252.54 67.5124 1255.9 62.8538 Q1259.31 58.1548 1259.31 49.9314 M1233.95 34.0924 Q1236.3 30.0415 1239.86 28.0971 Q1243.47 26.1121 1248.45 26.1121 Q1256.71 26.1121 1261.86 32.6746 Q1267.04 39.2371 1267.04 49.9314 Q1267.04 60.6258 1261.86 67.1883 Q1256.71 73.7508 1248.45 73.7508 Q1243.47 73.7508 1239.86 71.8063 Q1236.3 69.8214 1233.95 65.7705 L1233.95 72.576 L1226.45 72.576 L1226.45 9.54393 L1233.95 9.54393 L1233.95 34.0924 Z" fill="#000000" fill-rule="nonzero" fill-opacity="1" /><path clip-path="url(#clip380)" d="M1279.4 9.54393 L1286.85 9.54393 L1286.85 72.576 L1279.4 72.576 L1279.4 9.54393 Z" fill="#000000" fill-rule="nonzero" fill-opacity="1" /><path clip-path="url(#clip380)" d="M1341.26 48.0275 L1341.26 51.6733 L1306.99 51.6733 Q1307.47 59.3701 1311.6 63.421 Q1315.78 67.4314 1323.19 67.4314 Q1327.48 67.4314 1331.49 66.3781 Q1335.54 65.3249 1339.51 63.2184 L1339.51 70.267 Q1335.5 71.9684 1331.29 72.8596 Q1327.08 73.7508 1322.74 73.7508 Q1311.89 73.7508 1305.53 67.4314 Q1299.21 61.1119 1299.21 50.3365 Q1299.21 39.1965 1305.2 32.6746 Q1311.24 26.1121 1321.45 26.1121 Q1330.6 26.1121 1335.91 32.0264 Q1341.26 37.9003 1341.26 48.0275 M1333.8 45.84 Q1333.72 39.7232 1330.36 36.0774 Q1327.04 32.4315 1321.53 32.4315 Q1315.29 32.4315 1311.52 35.9558 Q1307.8 39.4801 1307.23 45.8805 L1333.8 45.84 Z" fill="#000000" fill-rule="nonzero" fill-opacity="1" /><path clip-path="url(#clip380)" d="M1388.81 35.9153 Q1391.61 30.8922 1395.5 28.5022 Q1399.39 26.1121 1404.65 26.1121 Q1411.74 26.1121 1415.59 31.0947 Q1419.44 36.0368 1419.44 45.1919 L1419.44 72.576 L1411.94 72.576 L1411.94 45.4349 Q1411.94 38.913 1409.64 35.7533 Q1407.33 32.5936 1402.59 32.5936 Q1396.79 32.5936 1393.43 36.4419 Q1390.07 40.2903 1390.07 46.9338 L1390.07 72.576 L1382.58 72.576 L1382.58 45.4349 Q1382.58 38.8725 1380.27 35.7533 Q1377.96 32.5936 1373.14 32.5936 Q1367.43 32.5936 1364.06 36.4824 Q1360.7 40.3308 1360.7 46.9338 L1360.7 72.576 L1353.21 72.576 L1353.21 27.2059 L1360.7 27.2059 L1360.7 34.2544 Q1363.25 30.082 1366.82 28.0971 Q1370.38 26.1121 1375.28 26.1121 Q1380.23 26.1121 1383.67 28.6237 Q1387.15 31.1352 1388.81 35.9153 Z" fill="#000000" fill-rule="nonzero" fill-opacity="1" /><path clip-path="url(#clip380)" d="M1497.26 14.0809 L1497.26 22.0612 Q1492.6 19.8332 1488.47 18.7395 Q1484.33 17.6457 1480.49 17.6457 Q1473.8 17.6457 1470.16 20.2383 Q1466.55 22.8309 1466.55 27.611 Q1466.55 31.6214 1468.94 33.6873 Q1471.37 35.7128 1478.1 36.9686 L1483.04 37.9813 Q1492.19 39.7232 1496.53 44.1387 Q1500.9 48.5136 1500.9 55.8863 Q1500.9 64.6767 1494.99 69.2137 Q1489.11 73.7508 1477.73 73.7508 Q1473.44 73.7508 1468.58 72.7785 Q1463.76 71.8063 1458.57 69.9024 L1458.57 61.4765 Q1463.55 64.2716 1468.33 65.6895 Q1473.11 67.1073 1477.73 67.1073 Q1484.74 67.1073 1488.55 64.3527 Q1492.36 61.598 1492.36 56.4939 Q1492.36 52.0379 1489.6 49.5264 Q1486.89 47.0148 1480.65 45.759 L1475.67 44.7868 Q1466.51 42.9639 1462.42 39.075 Q1458.33 35.1862 1458.33 28.2591 Q1458.33 20.2383 1463.96 15.6203 Q1469.63 11.0023 1479.55 11.0023 Q1483.81 11.0023 1488.22 11.7719 Q1492.64 12.5416 1497.26 14.0809 Z" fill="#000000" fill-rule="nonzero" fill-opacity="1" /><path clip-path="url(#clip380)" d="M1513.34 27.2059 L1520.79 27.2059 L1520.79 72.576 L1513.34 72.576 L1513.34 27.2059 M1513.34 9.54393 L1520.79 9.54393 L1520.79 18.9825 L1513.34 18.9825 L1513.34 9.54393 Z" fill="#000000" fill-rule="nonzero" fill-opacity="1" /><path clip-path="url(#clip380)" d="M1533.15 27.2059 L1568.55 27.2059 L1568.55 34.0114 L1540.52 66.6212 L1568.55 66.6212 L1568.55 72.576 L1532.14 72.576 L1532.14 65.7705 L1560.17 33.1607 L1533.15 33.1607 L1533.15 27.2059 Z" fill="#000000" fill-rule="nonzero" fill-opacity="1" /><path clip-path="url(#clip380)" d="M1618.74 48.0275 L1618.74 51.6733 L1584.47 51.6733 Q1584.96 59.3701 1589.09 63.421 Q1593.26 67.4314 1600.68 67.4314 Q1604.97 67.4314 1608.98 66.3781 Q1613.03 65.3249 1617 63.2184 L1617 70.267 Q1612.99 71.9684 1608.78 72.8596 Q1604.57 73.7508 1600.23 73.7508 Q1589.37 73.7508 1583.01 67.4314 Q1576.7 61.1119 1576.7 50.3365 Q1576.7 39.1965 1582.69 32.6746 Q1588.73 26.1121 1598.93 26.1121 Q1608.09 26.1121 1613.4 32.0264 Q1618.74 37.9003 1618.74 48.0275 M1611.29 45.84 Q1611.21 39.7232 1607.85 36.0774 Q1604.52 32.4315 1599.02 32.4315 Q1592.78 32.4315 1589.01 35.9558 Q1585.28 39.4801 1584.72 45.8805 L1611.29 45.84 Z" fill="#000000" fill-rule="nonzero" fill-opacity="1" /><path clip-path="url(#clip380)" d="M1675.25 9.62495 Q1669.83 18.942 1667.19 28.0566 Q1664.56 37.1711 1664.56 46.5287 Q1664.56 55.8863 1667.19 65.0818 Q1669.87 74.2369 1675.25 83.5134 L1668.77 83.5134 Q1662.7 73.9938 1659.66 64.7983 Q1656.66 55.6027 1656.66 46.5287 Q1656.66 37.4952 1659.66 28.3401 Q1662.66 19.1851 1668.77 9.62495 L1675.25 9.62495 Z" fill="#000000" fill-rule="nonzero" fill-opacity="1" /><path clip-path="url(#clip380)" d="M1725.04 35.9153 Q1727.83 30.8922 1731.72 28.5022 Q1735.61 26.1121 1740.88 26.1121 Q1747.97 26.1121 1751.82 31.0947 Q1755.66 36.0368 1755.66 45.1919 L1755.66 72.576 L1748.17 72.576 L1748.17 45.4349 Q1748.17 38.913 1745.86 35.7533 Q1743.55 32.5936 1738.81 32.5936 Q1733.02 32.5936 1729.66 36.4419 Q1726.29 40.2903 1726.29 46.9338 L1726.29 72.576 L1718.8 72.576 L1718.8 45.4349 Q1718.8 38.8725 1716.49 35.7533 Q1714.18 32.5936 1709.36 32.5936 Q1703.65 32.5936 1700.29 36.4824 Q1696.93 40.3308 1696.93 46.9338 L1696.93 72.576 L1689.43 72.576 L1689.43 27.2059 L1696.93 27.2059 L1696.93 34.2544 Q1699.48 30.082 1703.04 28.0971 Q1706.61 26.1121 1711.51 26.1121 Q1716.45 26.1121 1719.89 28.6237 Q1723.38 31.1352 1725.04 35.9153 Z" fill="#000000" fill-rule="nonzero" fill-opacity="1" /><path clip-path="url(#clip380)" d="M1809.34 48.0275 L1809.34 51.6733 L1775.07 51.6733 Q1775.55 59.3701 1779.69 63.421 Q1783.86 67.4314 1791.27 67.4314 Q1795.57 67.4314 1799.58 66.3781 Q1803.63 65.3249 1807.6 63.2184 L1807.6 70.267 Q1803.59 71.9684 1799.37 72.8596 Q1795.16 73.7508 1790.83 73.7508 Q1779.97 73.7508 1773.61 67.4314 Q1767.29 61.1119 1767.29 50.3365 Q1767.29 39.1965 1773.29 32.6746 Q1779.32 26.1121 1789.53 26.1121 Q1798.68 26.1121 1803.99 32.0264 Q1809.34 37.9003 1809.34 48.0275 M1801.88 45.84 Q1801.8 39.7232 1798.44 36.0774 Q1795.12 32.4315 1789.61 32.4315 Q1783.37 32.4315 1779.6 35.9558 Q1775.88 39.4801 1775.31 45.8805 L1801.88 45.84 Z" fill="#000000" fill-rule="nonzero" fill-opacity="1" /><path clip-path="url(#clip380)" d="M1851.43 34.0924 L1851.43 9.54393 L1858.88 9.54393 L1858.88 72.576 L1851.43 72.576 L1851.43 65.7705 Q1849.08 69.8214 1845.47 71.8063 Q1841.91 73.7508 1836.88 73.7508 Q1828.66 73.7508 1823.48 67.1883 Q1818.33 60.6258 1818.33 49.9314 Q1818.33 39.2371 1823.48 32.6746 Q1828.66 26.1121 1836.88 26.1121 Q1841.91 26.1121 1845.47 28.0971 Q1849.08 30.0415 1851.43 34.0924 M1826.03 49.9314 Q1826.03 58.1548 1829.39 62.8538 Q1832.79 67.5124 1838.71 67.5124 Q1844.62 67.5124 1848.02 62.8538 Q1851.43 58.1548 1851.43 49.9314 Q1851.43 41.7081 1848.02 37.0496 Q1844.62 32.3505 1838.71 32.3505 Q1832.79 32.3505 1829.39 37.0496 Q1826.03 41.7081 1826.03 49.9314 Z" fill="#000000" fill-rule="nonzero" fill-opacity="1" /><path clip-path="url(#clip380)" d="M1874.23 27.2059 L1881.69 27.2059 L1881.69 72.576 L1874.23 72.576 L1874.23 27.2059 M1874.23 9.54393 L1881.69 9.54393 L1881.69 18.9825 L1874.23 18.9825 L1874.23 9.54393 Z" fill="#000000" fill-rule="nonzero" fill-opacity="1" /><path clip-path="url(#clip380)" d="M1896.51 54.671 L1896.51 27.2059 L1903.97 27.2059 L1903.97 54.3874 Q1903.97 60.8284 1906.48 64.0691 Q1908.99 67.2693 1914.01 67.2693 Q1920.05 67.2693 1923.53 63.421 Q1927.06 59.5726 1927.06 52.9291 L1927.06 27.2059 L1934.51 27.2059 L1934.51 72.576 L1927.06 72.576 L1927.06 65.6084 Q1924.34 69.7404 1920.74 71.7658 Q1917.17 73.7508 1912.43 73.7508 Q1904.62 73.7508 1900.56 68.8897 Q1896.51 64.0286 1896.51 54.671 M1915.27 26.1121 L1915.27 26.1121 Z" fill="#000000" fill-rule="nonzero" fill-opacity="1" /><path clip-path="url(#clip380)" d="M1985.19 35.9153 Q1987.98 30.8922 1991.87 28.5022 Q1995.76 26.1121 2001.03 26.1121 Q2008.12 26.1121 2011.96 31.0947 Q2015.81 36.0368 2015.81 45.1919 L2015.81 72.576 L2008.32 72.576 L2008.32 45.4349 Q2008.32 38.913 2006.01 35.7533 Q2003.7 32.5936 1998.96 32.5936 Q1993.17 32.5936 1989.81 36.4419 Q1986.44 40.2903 1986.44 46.9338 L1986.44 72.576 L1978.95 72.576 L1978.95 45.4349 Q1978.95 38.8725 1976.64 35.7533 Q1974.33 32.5936 1969.51 32.5936 Q1963.8 32.5936 1960.44 36.4824 Q1957.07 40.3308 1957.07 46.9338 L1957.07 72.576 L1949.58 72.576 L1949.58 27.2059 L1957.07 27.2059 L1957.07 34.2544 Q1959.63 30.082 1963.19 28.0971 Q1966.76 26.1121 1971.66 26.1121 Q1976.6 26.1121 1980.04 28.6237 Q1983.53 31.1352 1985.19 35.9153 Z" fill="#000000" fill-rule="nonzero" fill-opacity="1" /><path clip-path="url(#clip380)" d="M2029.51 9.62495 L2035.99 9.62495 Q2042.06 19.1851 2045.06 28.3401 Q2048.1 37.4952 2048.1 46.5287 Q2048.1 55.6027 2045.06 64.7983 Q2042.06 73.9938 2035.99 83.5134 L2029.51 83.5134 Q2034.89 74.2369 2037.53 65.0818 Q2040.2 55.8863 2040.2 46.5287 Q2040.2 37.1711 2037.53 28.0566 Q2034.89 18.942 2029.51 9.62495 Z" fill="#000000" fill-rule="nonzero" fill-opacity="1" /><circle clip-path="url(#clip382)" cx="310.845" cy="291.886" r="14.4" fill="#009af9" fill-rule="evenodd" fill-opacity="1" stroke="#000000" stroke-opacity="1" stroke-width="3.2"/>
<circle clip-path="url(#clip382)" cx="759.288" cy="282.185" r="14.4" fill="#009af9" fill-rule="evenodd" fill-opacity="1" stroke="#000000" stroke-opacity="1" stroke-width="3.2"/>
<circle clip-path="url(#clip382)" cx="1566.83" cy="417.25" r="14.4" fill="#009af9" fill-rule="evenodd" fill-opacity="1" stroke="#000000" stroke-opacity="1" stroke-width="3.2"/>
<circle clip-path="url(#clip382)" cx="2293.28" cy="159.909" r="14.4" fill="#009af9" fill-rule="evenodd" fill-opacity="1" stroke="#000000" stroke-opacity="1" stroke-width="3.2"/>
<circle clip-path="url(#clip382)" cx="2216.07" cy="411.767" r="14.4" fill="#009af9" fill-rule="evenodd" fill-opacity="1" stroke="#000000" stroke-opacity="1" stroke-width="3.2"/>
<circle clip-path="url(#clip382)" cx="2216.07" cy="380.92" r="14.4" fill="#009af9" fill-rule="evenodd" fill-opacity="1" stroke="#000000" stroke-opacity="1" stroke-width="3.2"/>
<circle clip-path="url(#clip382)" cx="310.845" cy="299.326" r="14.4" fill="#e26f46" fill-rule="evenodd" fill-opacity="1" stroke="#000000" stroke-opacity="1" stroke-width="3.2"/>
<circle clip-path="url(#clip382)" cx="759.288" cy="328.796" r="14.4" fill="#e26f46" fill-rule="evenodd" fill-opacity="1" stroke="#000000" stroke-opacity="1" stroke-width="3.2"/>
<circle clip-path="url(#clip382)" cx="1566.83" cy="280.703" r="14.4" fill="#e26f46" fill-rule="evenodd" fill-opacity="1" stroke="#000000" stroke-opacity="1" stroke-width="3.2"/>
<circle clip-path="url(#clip382)" cx="2293.28" cy="702.776" r="14.4" fill="#e26f46" fill-rule="evenodd" fill-opacity="1" stroke="#000000" stroke-opacity="1" stroke-width="3.2"/>
<circle clip-path="url(#clip382)" cx="2216.07" cy="332.673" r="14.4" fill="#e26f46" fill-rule="evenodd" fill-opacity="1" stroke="#000000" stroke-opacity="1" stroke-width="3.2"/>
<circle clip-path="url(#clip382)" cx="2216.07" cy="393.755" r="14.4" fill="#e26f46" fill-rule="evenodd" fill-opacity="1" stroke="#000000" stroke-opacity="1" stroke-width="3.2"/>
<circle clip-path="url(#clip382)" cx="310.845" cy="288.439" r="14.4" fill="#3da44d" fill-rule="evenodd" fill-opacity="1" stroke="#000000" stroke-opacity="1" stroke-width="3.2"/>
<circle clip-path="url(#clip382)" cx="759.288" cy="288.439" r="14.4" fill="#3da44d" fill-rule="evenodd" fill-opacity="1" stroke="#000000" stroke-opacity="1" stroke-width="3.2"/>
<circle clip-path="url(#clip382)" cx="1566.83" cy="288.439" r="14.4" fill="#3da44d" fill-rule="evenodd" fill-opacity="1" stroke="#000000" stroke-opacity="1" stroke-width="3.2"/>
<circle clip-path="url(#clip382)" cx="2293.28" cy="288.439" r="14.4" fill="#3da44d" fill-rule="evenodd" fill-opacity="1" stroke="#000000" stroke-opacity="1" stroke-width="3.2"/>
<circle clip-path="url(#clip382)" cx="2216.07" cy="288.439" r="14.4" fill="#3da44d" fill-rule="evenodd" fill-opacity="1" stroke="#000000" stroke-opacity="1" stroke-width="3.2"/>
<circle clip-path="url(#clip382)" cx="2216.07" cy="288.439" r="14.4" fill="#3da44d" fill-rule="evenodd" fill-opacity="1" stroke="#000000" stroke-opacity="1" stroke-width="3.2"/>
<circle clip-path="url(#clip382)" cx="310.845" cy="957.698" r="14.4" fill="#c271d2" fill-rule="evenodd" fill-opacity="1" stroke="#000000" stroke-opacity="1" stroke-width="3.2"/>
<circle clip-path="url(#clip382)" cx="759.288" cy="733.55" r="14.4" fill="#c271d2" fill-rule="evenodd" fill-opacity="1" stroke="#000000" stroke-opacity="1" stroke-width="3.2"/>
<circle clip-path="url(#clip382)" cx="1566.83" cy="686.509" r="14.4" fill="#c271d2" fill-rule="evenodd" fill-opacity="1" stroke="#000000" stroke-opacity="1" stroke-width="3.2"/>
<circle clip-path="url(#clip382)" cx="2293.28" cy="1374.46" r="14.4" fill="#c271d2" fill-rule="evenodd" fill-opacity="1" stroke="#000000" stroke-opacity="1" stroke-width="3.2"/>
<circle clip-path="url(#clip382)" cx="2216.07" cy="649.511" r="14.4" fill="#c271d2" fill-rule="evenodd" fill-opacity="1" stroke="#000000" stroke-opacity="1" stroke-width="3.2"/>
<circle clip-path="url(#clip382)" cx="2216.07" cy="684.861" r="14.4" fill="#c271d2" fill-rule="evenodd" fill-opacity="1" stroke="#000000" stroke-opacity="1" stroke-width="3.2"/>
<circle clip-path="url(#clip382)" cx="310.845" cy="1277.75" r="14.4" fill="#ac8d18" fill-rule="evenodd" fill-opacity="1" stroke="#000000" stroke-opacity="1" stroke-width="3.2"/>
<circle clip-path="url(#clip382)" cx="759.288" cy="465.004" r="14.4" fill="#ac8d18" fill-rule="evenodd" fill-opacity="1" stroke="#000000" stroke-opacity="1" stroke-width="3.2"/>
<circle clip-path="url(#clip382)" cx="1566.83" cy="410.692" r="14.4" fill="#ac8d18" fill-rule="evenodd" fill-opacity="1" stroke="#000000" stroke-opacity="1" stroke-width="3.2"/>
<circle clip-path="url(#clip382)" cx="2293.28" cy="786.484" r="14.4" fill="#ac8d18" fill-rule="evenodd" fill-opacity="1" stroke="#000000" stroke-opacity="1" stroke-width="3.2"/>
<circle clip-path="url(#clip382)" cx="2216.07" cy="303.522" r="14.4" fill="#ac8d18" fill-rule="evenodd" fill-opacity="1" stroke="#000000" stroke-opacity="1" stroke-width="3.2"/>
<circle clip-path="url(#clip382)" cx="2216.07" cy="286.426" r="14.4" fill="#ac8d18" fill-rule="evenodd" fill-opacity="1" stroke="#000000" stroke-opacity="1" stroke-width="3.2"/>
<circle clip-path="url(#clip382)" cx="310.845" cy="541.22" r="14.4" fill="#00a9ad" fill-rule="evenodd" fill-opacity="1" stroke="#000000" stroke-opacity="1" stroke-width="3.2"/>
<circle clip-path="url(#clip382)" cx="759.288" cy="493.033" r="14.4" fill="#00a9ad" fill-rule="evenodd" fill-opacity="1" stroke="#000000" stroke-opacity="1" stroke-width="3.2"/>
<circle clip-path="url(#clip382)" cx="1566.83" cy="331.689" r="14.4" fill="#00a9ad" fill-rule="evenodd" fill-opacity="1" stroke="#000000" stroke-opacity="1" stroke-width="3.2"/>
<circle clip-path="url(#clip382)" cx="2293.28" cy="596.089" r="14.4" fill="#00a9ad" fill-rule="evenodd" fill-opacity="1" stroke="#000000" stroke-opacity="1" stroke-width="3.2"/>
<circle clip-path="url(#clip382)" cx="2216.07" cy="301.979" r="14.4" fill="#00a9ad" fill-rule="evenodd" fill-opacity="1" stroke="#000000" stroke-opacity="1" stroke-width="3.2"/>
<circle clip-path="url(#clip382)" cx="2216.07" cy="325.191" r="14.4" fill="#00a9ad" fill-rule="evenodd" fill-opacity="1" stroke="#000000" stroke-opacity="1" stroke-width="3.2"/>
<path clip-path="url(#clip380)" d="M321.418 529.266 L1149.15 529.266 L1149.15 166.386 L321.418 166.386  Z" fill="#ffffff" fill-rule="evenodd" fill-opacity="1"/>
<polyline clip-path="url(#clip380)" style="stroke:#000000; stroke-linecap:round; stroke-linejoin:round; stroke-width:4; stroke-opacity:1; fill:none" points="321.418,529.266 1149.15,529.266 1149.15,166.386 321.418,166.386 321.418,529.266 "/>
<circle clip-path="url(#clip380)" cx="414.813" cy="218.226" r="20.48" fill="#009af9" fill-rule="evenodd" fill-opacity="1" stroke="#000000" stroke-opacity="1" stroke-width="4.55111"/>
<path clip-path="url(#clip380)" d="M508.208 200.946 L512.884 200.946 L512.884 235.506 L508.208 235.506 L508.208 200.946 Z" fill="#000000" fill-rule="nonzero" fill-opacity="1" /><path clip-path="url(#clip380)" d="M526.125 231.617 L526.125 245.367 L521.842 245.367 L521.842 209.58 L526.125 209.58 L526.125 213.516 Q527.467 211.201 529.504 210.09 Q531.564 208.955 534.412 208.955 Q539.134 208.955 542.074 212.705 Q545.036 216.455 545.036 222.567 Q545.036 228.678 542.074 232.428 Q539.134 236.178 534.412 236.178 Q531.564 236.178 529.504 235.066 Q527.467 233.932 526.125 231.617 M540.615 222.567 Q540.615 217.867 538.671 215.205 Q536.749 212.52 533.37 212.52 Q529.99 212.52 528.046 215.205 Q526.125 217.867 526.125 222.567 Q526.125 227.266 528.046 229.951 Q529.99 232.613 533.37 232.613 Q536.749 232.613 538.671 229.951 Q540.615 227.266 540.615 222.567 Z" fill="#000000" fill-rule="nonzero" fill-opacity="1" /><path clip-path="url(#clip380)" d="M562.143 212.567 Q558.717 212.567 556.726 215.252 Q554.735 217.914 554.735 222.567 Q554.735 227.219 556.703 229.904 Q558.694 232.566 562.143 232.566 Q565.546 232.566 567.536 229.881 Q569.527 227.196 569.527 222.567 Q569.527 217.96 567.536 215.275 Q565.546 212.567 562.143 212.567 M562.143 208.955 Q567.698 208.955 570.87 212.567 Q574.041 216.178 574.041 222.567 Q574.041 228.932 570.87 232.566 Q567.698 236.178 562.143 236.178 Q556.564 236.178 553.393 232.566 Q550.245 228.932 550.245 222.567 Q550.245 216.178 553.393 212.567 Q556.564 208.955 562.143 208.955 Z" fill="#000000" fill-rule="nonzero" fill-opacity="1" /><path clip-path="url(#clip380)" d="M585.221 231.617 L585.221 245.367 L580.939 245.367 L580.939 209.58 L585.221 209.58 L585.221 213.516 Q586.564 211.201 588.601 210.09 Q590.661 208.955 593.508 208.955 Q598.231 208.955 601.17 212.705 Q604.133 216.455 604.133 222.567 Q604.133 228.678 601.17 232.428 Q598.231 236.178 593.508 236.178 Q590.661 236.178 588.601 235.066 Q586.564 233.932 585.221 231.617 M599.712 222.567 Q599.712 217.867 597.768 215.205 Q595.846 212.52 592.467 212.52 Q589.087 212.52 587.143 215.205 Q585.221 217.867 585.221 222.567 Q585.221 227.266 587.143 229.951 Q589.087 232.613 592.467 232.613 Q595.846 232.613 597.768 229.951 Q599.712 227.266 599.712 222.567 Z" fill="#000000" fill-rule="nonzero" fill-opacity="1" /><path clip-path="url(#clip380)" d="M615.406 202.219 L615.406 209.58 L624.18 209.58 L624.18 212.891 L615.406 212.891 L615.406 226.965 Q615.406 230.136 616.263 231.039 Q617.143 231.941 619.805 231.941 L624.18 231.941 L624.18 235.506 L619.805 235.506 Q614.874 235.506 612.999 233.678 Q611.124 231.826 611.124 226.965 L611.124 212.891 L607.999 212.891 L607.999 209.58 L611.124 209.58 L611.124 202.219 L615.406 202.219 Z" fill="#000000" fill-rule="nonzero" fill-opacity="1" /><path clip-path="url(#clip380)" d="M647.119 205.784 L647.119 218.678 L660.013 218.678 L660.013 222.613 L647.119 222.613 L647.119 235.506 L643.23 235.506 L643.23 222.613 L630.337 222.613 L630.337 218.678 L643.23 218.678 L643.23 205.784 L647.119 205.784 Z" fill="#000000" fill-rule="nonzero" fill-opacity="1" /><path clip-path="url(#clip380)" d="M669.689 200.946 L676.656 200.946 L685.476 224.465 L694.341 200.946 L701.309 200.946 L701.309 235.506 L696.749 235.506 L696.749 205.159 L687.837 228.863 L683.138 228.863 L674.226 205.159 L674.226 235.506 L669.689 235.506 L669.689 200.946 Z" fill="#000000" fill-rule="nonzero" fill-opacity="1" /><path clip-path="url(#clip380)" d="M722.188 222.474 Q717.026 222.474 715.036 223.654 Q713.045 224.835 713.045 227.682 Q713.045 229.951 714.526 231.293 Q716.031 232.613 718.6 232.613 Q722.142 232.613 724.272 230.113 Q726.424 227.59 726.424 223.423 L726.424 222.474 L722.188 222.474 M730.684 220.715 L730.684 235.506 L726.424 235.506 L726.424 231.571 Q724.966 233.932 722.79 235.066 Q720.614 236.178 717.466 236.178 Q713.485 236.178 711.124 233.955 Q708.786 231.71 708.786 227.96 Q708.786 223.585 711.702 221.363 Q714.642 219.141 720.452 219.141 L726.424 219.141 L726.424 218.724 Q726.424 215.784 724.48 214.187 Q722.559 212.567 719.063 212.567 Q716.841 212.567 714.735 213.099 Q712.628 213.631 710.684 214.696 L710.684 210.761 Q713.022 209.858 715.221 209.418 Q717.42 208.955 719.503 208.955 Q725.128 208.955 727.906 211.872 Q730.684 214.789 730.684 220.715 Z" fill="#000000" fill-rule="nonzero" fill-opacity="1" /><path clip-path="url(#clip380)" d="M740.197 234.789 L740.197 230.529 Q741.957 231.363 743.762 231.803 Q745.568 232.242 747.304 232.242 Q751.934 232.242 754.364 229.141 Q756.818 226.016 757.165 219.673 Q755.822 221.664 753.762 222.729 Q751.702 223.793 749.202 223.793 Q744.017 223.793 740.984 220.668 Q737.975 217.52 737.975 212.08 Q737.975 206.756 741.123 203.539 Q744.272 200.321 749.503 200.321 Q755.498 200.321 758.646 204.928 Q761.818 209.511 761.818 218.261 Q761.818 226.432 757.929 231.316 Q754.063 236.178 747.512 236.178 Q745.753 236.178 743.947 235.83 Q742.142 235.483 740.197 234.789 M749.503 220.136 Q752.651 220.136 754.48 217.983 Q756.332 215.83 756.332 212.08 Q756.332 208.354 754.48 206.201 Q752.651 204.025 749.503 204.025 Q746.355 204.025 744.503 206.201 Q742.674 208.354 742.674 212.08 Q742.674 215.83 744.503 217.983 Q746.355 220.136 749.503 220.136 Z" fill="#000000" fill-rule="nonzero" fill-opacity="1" /><path clip-path="url(#clip380)" d="M769.04 200.946 L791.262 200.946 L791.262 202.937 L778.716 235.506 L773.832 235.506 L785.637 204.881 L769.04 204.881 L769.04 200.946 Z" fill="#000000" fill-rule="nonzero" fill-opacity="1" /><path clip-path="url(#clip380)" d="M825.081 199.534 Q821.979 204.858 820.475 210.067 Q818.97 215.275 818.97 220.622 Q818.97 225.969 820.475 231.224 Q822.003 236.455 825.081 241.756 L821.378 241.756 Q817.905 236.316 816.169 231.062 Q814.456 225.807 814.456 220.622 Q814.456 215.46 816.169 210.229 Q817.882 204.997 821.378 199.534 L825.081 199.534 Z" fill="#000000" fill-rule="nonzero" fill-opacity="1" /><path clip-path="url(#clip380)" d="M859.41 203.608 L859.41 208.539 Q857.049 206.34 854.364 205.252 Q851.701 204.164 848.692 204.164 Q842.766 204.164 839.618 207.798 Q836.47 211.409 836.47 218.261 Q836.47 225.09 839.618 228.724 Q842.766 232.335 848.692 232.335 Q851.701 232.335 854.364 231.247 Q857.049 230.159 859.41 227.96 L859.41 232.844 Q856.956 234.511 854.201 235.344 Q851.47 236.178 848.414 236.178 Q840.567 236.178 836.053 231.386 Q831.54 226.571 831.54 218.261 Q831.54 209.928 836.053 205.136 Q840.567 200.321 848.414 200.321 Q851.516 200.321 854.248 201.155 Q857.002 201.965 859.41 203.608 Z" fill="#000000" fill-rule="nonzero" fill-opacity="1" /><path clip-path="url(#clip380)" d="M871.308 204.789 L871.308 217.775 L877.187 217.775 Q880.451 217.775 882.234 216.085 Q884.016 214.395 884.016 211.27 Q884.016 208.168 882.234 206.479 Q880.451 204.789 877.187 204.789 L871.308 204.789 M866.632 200.946 L877.187 200.946 Q882.998 200.946 885.961 203.585 Q888.947 206.201 888.947 211.27 Q888.947 216.386 885.961 219.002 Q882.998 221.617 877.187 221.617 L871.308 221.617 L871.308 235.506 L866.632 235.506 L866.632 200.946 Z" fill="#000000" fill-rule="nonzero" fill-opacity="1" /><path clip-path="url(#clip380)" d="M894.687 200.946 L899.386 200.946 L899.386 221.942 Q899.386 227.497 901.4 229.951 Q903.414 232.381 907.928 232.381 Q912.419 232.381 914.433 229.951 Q916.447 227.497 916.447 221.942 L916.447 200.946 L921.146 200.946 L921.146 222.52 Q921.146 229.279 917.789 232.729 Q914.456 236.178 907.928 236.178 Q901.377 236.178 898.021 232.729 Q894.687 229.279 894.687 222.52 L894.687 200.946 Z" fill="#000000" fill-rule="nonzero" fill-opacity="1" /><path clip-path="url(#clip380)" d="M929.062 199.534 L932.766 199.534 Q936.238 204.997 937.951 210.229 Q939.687 215.46 939.687 220.622 Q939.687 225.807 937.951 231.062 Q936.238 236.316 932.766 241.756 L929.062 241.756 Q932.141 236.455 933.645 231.224 Q935.173 225.969 935.173 220.622 Q935.173 215.275 933.645 210.067 Q932.141 204.858 929.062 199.534 Z" fill="#000000" fill-rule="nonzero" fill-opacity="1" /><circle clip-path="url(#clip380)" cx="414.813" cy="270.066" r="20.48" fill="#e26f46" fill-rule="evenodd" fill-opacity="1" stroke="#000000" stroke-opacity="1" stroke-width="4.55111"/>
<path clip-path="url(#clip380)" d="M508.208 252.786 L515.176 252.786 L523.995 276.305 L532.861 252.786 L539.828 252.786 L539.828 287.346 L535.268 287.346 L535.268 256.999 L526.356 280.703 L521.657 280.703 L512.745 256.999 L512.745 287.346 L508.208 287.346 L508.208 252.786 Z" fill="#000000" fill-rule="nonzero" fill-opacity="1" /><path clip-path="url(#clip380)" d="M560.708 274.314 Q555.546 274.314 553.555 275.494 Q551.564 276.675 551.564 279.522 Q551.564 281.791 553.046 283.133 Q554.55 284.453 557.12 284.453 Q560.661 284.453 562.791 281.953 Q564.944 279.43 564.944 275.263 L564.944 274.314 L560.708 274.314 M569.203 272.555 L569.203 287.346 L564.944 287.346 L564.944 283.411 Q563.485 285.772 561.31 286.906 Q559.134 288.018 555.985 288.018 Q552.004 288.018 549.643 285.795 Q547.305 283.55 547.305 279.8 Q547.305 275.425 550.222 273.203 Q553.161 270.981 558.972 270.981 L564.944 270.981 L564.944 270.564 Q564.944 267.624 562.999 266.027 Q561.078 264.407 557.583 264.407 Q555.36 264.407 553.254 264.939 Q551.148 265.471 549.203 266.536 L549.203 262.601 Q551.541 261.698 553.74 261.258 Q555.939 260.795 558.023 260.795 Q563.647 260.795 566.425 263.712 Q569.203 266.629 569.203 272.555 Z" fill="#000000" fill-rule="nonzero" fill-opacity="1" /><path clip-path="url(#clip380)" d="M595.036 265.356 L595.036 251.328 L599.295 251.328 L599.295 287.346 L595.036 287.346 L595.036 283.457 Q593.694 285.772 591.633 286.906 Q589.596 288.018 586.726 288.018 Q582.027 288.018 579.064 284.268 Q576.124 280.518 576.124 274.407 Q576.124 268.295 579.064 264.545 Q582.027 260.795 586.726 260.795 Q589.596 260.795 591.633 261.93 Q593.694 263.041 595.036 265.356 M580.522 274.407 Q580.522 279.106 582.444 281.791 Q584.388 284.453 587.768 284.453 Q591.147 284.453 593.092 281.791 Q595.036 279.106 595.036 274.407 Q595.036 269.707 593.092 267.045 Q591.147 264.36 587.768 264.36 Q584.388 264.36 582.444 267.045 Q580.522 269.707 580.522 274.407 Z" fill="#000000" fill-rule="nonzero" fill-opacity="1" /><path clip-path="url(#clip380)" d="M608.254 252.786 L614.55 252.786 L629.874 281.698 L629.874 252.786 L634.411 252.786 L634.411 287.346 L628.115 287.346 L612.791 258.434 L612.791 287.346 L608.254 287.346 L608.254 252.786 Z" fill="#000000" fill-rule="nonzero" fill-opacity="1" /><path clip-path="url(#clip380)" d="M643.716 252.786 L648.392 252.786 L648.392 283.411 L665.221 283.411 L665.221 287.346 L643.716 287.346 L643.716 252.786 Z" fill="#000000" fill-rule="nonzero" fill-opacity="1" /><path clip-path="url(#clip380)" d="M674.804 256.629 L674.804 269.615 L680.684 269.615 Q683.948 269.615 685.73 267.925 Q687.513 266.235 687.513 263.11 Q687.513 260.008 685.73 258.319 Q683.948 256.629 680.684 256.629 L674.804 256.629 M670.128 252.786 L680.684 252.786 Q686.494 252.786 689.457 255.425 Q692.443 258.041 692.443 263.11 Q692.443 268.226 689.457 270.842 Q686.494 273.457 680.684 273.457 L674.804 273.457 L674.804 287.346 L670.128 287.346 L670.128 252.786 Z" fill="#000000" fill-rule="nonzero" fill-opacity="1" /><path clip-path="url(#clip380)" d="M715.869 257.624 L715.869 270.518 L728.762 270.518 L728.762 274.453 L715.869 274.453 L715.869 287.346 L711.98 287.346 L711.98 274.453 L699.087 274.453 L699.087 270.518 L711.98 270.518 L711.98 257.624 L715.869 257.624 Z" fill="#000000" fill-rule="nonzero" fill-opacity="1" /><path clip-path="url(#clip380)" d="M738.438 252.786 L745.406 252.786 L754.225 276.305 L763.091 252.786 L770.058 252.786 L770.058 287.346 L765.498 287.346 L765.498 256.999 L756.586 280.703 L751.887 280.703 L742.975 256.999 L742.975 287.346 L738.438 287.346 L738.438 252.786 Z" fill="#000000" fill-rule="nonzero" fill-opacity="1" /><path clip-path="url(#clip380)" d="M790.938 274.314 Q785.776 274.314 783.785 275.494 Q781.794 276.675 781.794 279.522 Q781.794 281.791 783.276 283.133 Q784.781 284.453 787.35 284.453 Q790.892 284.453 793.021 281.953 Q795.174 279.43 795.174 275.263 L795.174 274.314 L790.938 274.314 M799.433 272.555 L799.433 287.346 L795.174 287.346 L795.174 283.411 Q793.716 285.772 791.54 286.906 Q789.364 288.018 786.216 288.018 Q782.234 288.018 779.873 285.795 Q777.535 283.55 777.535 279.8 Q777.535 275.425 780.452 273.203 Q783.392 270.981 789.202 270.981 L795.174 270.981 L795.174 270.564 Q795.174 267.624 793.23 266.027 Q791.308 264.407 787.813 264.407 Q785.591 264.407 783.484 264.939 Q781.378 265.471 779.433 266.536 L779.433 262.601 Q781.771 261.698 783.97 261.258 Q786.169 260.795 788.253 260.795 Q793.878 260.795 796.655 263.712 Q799.433 266.629 799.433 272.555 Z" fill="#000000" fill-rule="nonzero" fill-opacity="1" /><path clip-path="url(#clip380)" d="M818.808 270.934 Q815.475 270.934 813.554 272.717 Q811.655 274.499 811.655 277.624 Q811.655 280.749 813.554 282.531 Q815.475 284.314 818.808 284.314 Q822.141 284.314 824.063 282.531 Q825.984 280.726 825.984 277.624 Q825.984 274.499 824.063 272.717 Q822.165 270.934 818.808 270.934 M814.132 268.944 Q811.123 268.203 809.433 266.143 Q807.767 264.083 807.767 261.12 Q807.767 256.976 810.706 254.569 Q813.669 252.161 818.808 252.161 Q823.97 252.161 826.91 254.569 Q829.85 256.976 829.85 261.12 Q829.85 264.083 828.16 266.143 Q826.493 268.203 823.507 268.944 Q826.887 269.731 828.762 272.022 Q830.66 274.314 830.66 277.624 Q830.66 282.647 827.581 285.332 Q824.526 288.018 818.808 288.018 Q813.091 288.018 810.012 285.332 Q806.956 282.647 806.956 277.624 Q806.956 274.314 808.855 272.022 Q810.753 269.731 814.132 268.944 M812.419 261.559 Q812.419 264.245 814.086 265.749 Q815.776 267.254 818.808 267.254 Q821.817 267.254 823.507 265.749 Q825.22 264.245 825.22 261.559 Q825.22 258.874 823.507 257.37 Q821.817 255.865 818.808 255.865 Q815.776 255.865 814.086 257.37 Q812.419 258.874 812.419 261.559 Z" fill="#000000" fill-rule="nonzero" fill-opacity="1" /><path clip-path="url(#clip380)" d="M849.549 268.203 Q846.401 268.203 844.549 270.356 Q842.72 272.508 842.72 276.258 Q842.72 279.985 844.549 282.161 Q846.401 284.314 849.549 284.314 Q852.697 284.314 854.526 282.161 Q856.377 279.985 856.377 276.258 Q856.377 272.508 854.526 270.356 Q852.697 268.203 849.549 268.203 M858.831 253.55 L858.831 257.809 Q857.072 256.976 855.266 256.536 Q853.484 256.096 851.725 256.096 Q847.095 256.096 844.641 259.221 Q842.211 262.346 841.864 268.666 Q843.229 266.652 845.289 265.587 Q847.35 264.499 849.827 264.499 Q855.035 264.499 858.044 267.67 Q861.076 270.819 861.076 276.258 Q861.076 281.582 857.928 284.8 Q854.78 288.018 849.549 288.018 Q843.553 288.018 840.382 283.434 Q837.211 278.828 837.211 270.101 Q837.211 261.907 841.1 257.046 Q844.989 252.161 851.539 252.161 Q853.299 252.161 855.081 252.509 Q856.887 252.856 858.831 253.55 Z" fill="#000000" fill-rule="nonzero" fill-opacity="1" /><path clip-path="url(#clip380)" d="M893.831 251.374 Q890.729 256.698 889.224 261.907 Q887.72 267.115 887.72 272.462 Q887.72 277.809 889.224 283.064 Q890.752 288.295 893.831 293.596 L890.127 293.596 Q886.655 288.156 884.919 282.902 Q883.206 277.647 883.206 272.462 Q883.206 267.3 884.919 262.069 Q886.632 256.837 890.127 251.374 L893.831 251.374 Z" fill="#000000" fill-rule="nonzero" fill-opacity="1" /><path clip-path="url(#clip380)" d="M928.159 255.448 L928.159 260.379 Q925.798 258.18 923.113 257.092 Q920.451 256.004 917.442 256.004 Q911.516 256.004 908.368 259.638 Q905.22 263.249 905.22 270.101 Q905.22 276.93 908.368 280.564 Q911.516 284.175 917.442 284.175 Q920.451 284.175 923.113 283.087 Q925.798 281.999 928.159 279.8 L928.159 284.684 Q925.706 286.351 922.951 287.184 Q920.22 288.018 917.164 288.018 Q909.317 288.018 904.803 283.226 Q900.289 278.411 900.289 270.101 Q900.289 261.768 904.803 256.976 Q909.317 252.161 917.164 252.161 Q920.266 252.161 922.997 252.995 Q925.752 253.805 928.159 255.448 Z" fill="#000000" fill-rule="nonzero" fill-opacity="1" /><path clip-path="url(#clip380)" d="M940.058 256.629 L940.058 269.615 L945.937 269.615 Q949.201 269.615 950.983 267.925 Q952.766 266.235 952.766 263.11 Q952.766 260.008 950.983 258.319 Q949.201 256.629 945.937 256.629 L940.058 256.629 M935.382 252.786 L945.937 252.786 Q951.747 252.786 954.71 255.425 Q957.696 258.041 957.696 263.11 Q957.696 268.226 954.71 270.842 Q951.747 273.457 945.937 273.457 L940.058 273.457 L940.058 287.346 L935.382 287.346 L935.382 252.786 Z" fill="#000000" fill-rule="nonzero" fill-opacity="1" /><path clip-path="url(#clip380)" d="M963.437 252.786 L968.136 252.786 L968.136 273.782 Q968.136 279.337 970.15 281.791 Q972.164 284.221 976.678 284.221 Q981.168 284.221 983.182 281.791 Q985.196 279.337 985.196 273.782 L985.196 252.786 L989.895 252.786 L989.895 274.36 Q989.895 281.119 986.539 284.569 Q983.205 288.018 976.678 288.018 Q970.127 288.018 966.77 284.569 Q963.437 281.119 963.437 274.36 L963.437 252.786 Z" fill="#000000" fill-rule="nonzero" fill-opacity="1" /><path clip-path="url(#clip380)" d="M997.812 251.374 L1001.52 251.374 Q1004.99 256.837 1006.7 262.069 Q1008.44 267.3 1008.44 272.462 Q1008.44 277.647 1006.7 282.902 Q1004.99 288.156 1001.52 293.596 L997.812 293.596 Q1000.89 288.295 1002.4 283.064 Q1003.92 277.809 1003.92 272.462 Q1003.92 267.115 1002.4 261.907 Q1000.89 256.698 997.812 251.374 Z" fill="#000000" fill-rule="nonzero" fill-opacity="1" /><circle clip-path="url(#clip380)" cx="414.813" cy="321.906" r="20.48" fill="#3da44d" fill-rule="evenodd" fill-opacity="1" stroke="#000000" stroke-opacity="1" stroke-width="4.55111"/>
<path clip-path="url(#clip380)" d="M508.208 304.626 L512.884 304.626 L512.884 339.186 L508.208 339.186 L508.208 304.626 Z" fill="#000000" fill-rule="nonzero" fill-opacity="1" /><path clip-path="url(#clip380)" d="M526.125 335.297 L526.125 349.047 L521.842 349.047 L521.842 313.26 L526.125 313.26 L526.125 317.196 Q527.467 314.881 529.504 313.77 Q531.564 312.635 534.412 312.635 Q539.134 312.635 542.074 316.385 Q545.036 320.135 545.036 326.247 Q545.036 332.358 542.074 336.108 Q539.134 339.858 534.412 339.858 Q531.564 339.858 529.504 338.746 Q527.467 337.612 526.125 335.297 M540.615 326.247 Q540.615 321.547 538.671 318.885 Q536.749 316.2 533.37 316.2 Q529.99 316.2 528.046 318.885 Q526.125 321.547 526.125 326.247 Q526.125 330.946 528.046 333.631 Q529.99 336.293 533.37 336.293 Q536.749 336.293 538.671 333.631 Q540.615 330.946 540.615 326.247 Z" fill="#000000" fill-rule="nonzero" fill-opacity="1" /><path clip-path="url(#clip380)" d="M562.143 316.247 Q558.717 316.247 556.726 318.932 Q554.735 321.594 554.735 326.247 Q554.735 330.899 556.703 333.584 Q558.694 336.246 562.143 336.246 Q565.546 336.246 567.536 333.561 Q569.527 330.876 569.527 326.247 Q569.527 321.64 567.536 318.955 Q565.546 316.247 562.143 316.247 M562.143 312.635 Q567.698 312.635 570.87 316.247 Q574.041 319.858 574.041 326.247 Q574.041 332.612 570.87 336.246 Q567.698 339.858 562.143 339.858 Q556.564 339.858 553.393 336.246 Q550.245 332.612 550.245 326.247 Q550.245 319.858 553.393 316.247 Q556.564 312.635 562.143 312.635 Z" fill="#000000" fill-rule="nonzero" fill-opacity="1" /><path clip-path="url(#clip380)" d="M585.221 335.297 L585.221 349.047 L580.939 349.047 L580.939 313.26 L585.221 313.26 L585.221 317.196 Q586.564 314.881 588.601 313.77 Q590.661 312.635 593.508 312.635 Q598.231 312.635 601.17 316.385 Q604.133 320.135 604.133 326.247 Q604.133 332.358 601.17 336.108 Q598.231 339.858 593.508 339.858 Q590.661 339.858 588.601 338.746 Q586.564 337.612 585.221 335.297 M599.712 326.247 Q599.712 321.547 597.768 318.885 Q595.846 316.2 592.467 316.2 Q589.087 316.2 587.143 318.885 Q585.221 321.547 585.221 326.247 Q585.221 330.946 587.143 333.631 Q589.087 336.293 592.467 336.293 Q595.846 336.293 597.768 333.631 Q599.712 330.946 599.712 326.247 Z" fill="#000000" fill-rule="nonzero" fill-opacity="1" /><path clip-path="url(#clip380)" d="M615.406 305.899 L615.406 313.26 L624.18 313.26 L624.18 316.571 L615.406 316.571 L615.406 330.645 Q615.406 333.816 616.263 334.719 Q617.143 335.621 619.805 335.621 L624.18 335.621 L624.18 339.186 L619.805 339.186 Q614.874 339.186 612.999 337.358 Q611.124 335.506 611.124 330.645 L611.124 316.571 L607.999 316.571 L607.999 313.26 L611.124 313.26 L611.124 305.899 L615.406 305.899 Z" fill="#000000" fill-rule="nonzero" fill-opacity="1" /><path clip-path="url(#clip380)" d="M647.119 309.464 L647.119 322.358 L660.013 322.358 L660.013 326.293 L647.119 326.293 L647.119 339.186 L643.23 339.186 L643.23 326.293 L630.337 326.293 L630.337 322.358 L643.23 322.358 L643.23 309.464 L647.119 309.464 Z" fill="#000000" fill-rule="nonzero" fill-opacity="1" /><path clip-path="url(#clip380)" d="M669.689 304.626 L676.656 304.626 L685.476 328.145 L694.341 304.626 L701.309 304.626 L701.309 339.186 L696.749 339.186 L696.749 308.839 L687.837 332.543 L683.138 332.543 L674.226 308.839 L674.226 339.186 L669.689 339.186 L669.689 304.626 Z" fill="#000000" fill-rule="nonzero" fill-opacity="1" /><path clip-path="url(#clip380)" d="M722.188 326.154 Q717.026 326.154 715.036 327.334 Q713.045 328.515 713.045 331.362 Q713.045 333.631 714.526 334.973 Q716.031 336.293 718.6 336.293 Q722.142 336.293 724.272 333.793 Q726.424 331.27 726.424 327.103 L726.424 326.154 L722.188 326.154 M730.684 324.395 L730.684 339.186 L726.424 339.186 L726.424 335.251 Q724.966 337.612 722.79 338.746 Q720.614 339.858 717.466 339.858 Q713.485 339.858 711.124 337.635 Q708.786 335.39 708.786 331.64 Q708.786 327.265 711.702 325.043 Q714.642 322.821 720.452 322.821 L726.424 322.821 L726.424 322.404 Q726.424 319.464 724.48 317.867 Q722.559 316.247 719.063 316.247 Q716.841 316.247 714.735 316.779 Q712.628 317.311 710.684 318.376 L710.684 314.441 Q713.022 313.538 715.221 313.098 Q717.42 312.635 719.503 312.635 Q725.128 312.635 727.906 315.552 Q730.684 318.469 730.684 324.395 Z" fill="#000000" fill-rule="nonzero" fill-opacity="1" /><path clip-path="url(#clip380)" d="M744.086 335.251 L760.406 335.251 L760.406 339.186 L738.461 339.186 L738.461 335.251 Q741.123 332.496 745.707 327.867 Q750.313 323.214 751.494 321.872 Q753.739 319.348 754.619 317.612 Q755.521 315.853 755.521 314.163 Q755.521 311.409 753.577 309.673 Q751.656 307.936 748.554 307.936 Q746.355 307.936 743.901 308.7 Q741.471 309.464 738.693 311.015 L738.693 306.293 Q741.517 305.159 743.971 304.58 Q746.424 304.001 748.461 304.001 Q753.832 304.001 757.026 306.686 Q760.221 309.372 760.221 313.862 Q760.221 315.992 759.41 317.913 Q758.623 319.811 756.517 322.404 Q755.938 323.075 752.836 326.293 Q749.734 329.487 744.086 335.251 Z" fill="#000000" fill-rule="nonzero" fill-opacity="1" /><path clip-path="url(#clip380)" d="M769.04 304.626 L791.262 304.626 L791.262 306.617 L778.716 339.186 L773.832 339.186 L785.637 308.561 L769.04 308.561 L769.04 304.626 Z" fill="#000000" fill-rule="nonzero" fill-opacity="1" /><path clip-path="url(#clip380)" d="M825.081 303.214 Q821.979 308.538 820.475 313.747 Q818.97 318.955 818.97 324.302 Q818.97 329.649 820.475 334.904 Q822.003 340.135 825.081 345.436 L821.378 345.436 Q817.905 339.996 816.169 334.742 Q814.456 329.487 814.456 324.302 Q814.456 319.14 816.169 313.909 Q817.882 308.677 821.378 303.214 L825.081 303.214 Z" fill="#000000" fill-rule="nonzero" fill-opacity="1" /><path clip-path="url(#clip380)" d="M859.41 307.288 L859.41 312.219 Q857.049 310.02 854.364 308.932 Q851.701 307.844 848.692 307.844 Q842.766 307.844 839.618 311.478 Q836.47 315.089 836.47 321.941 Q836.47 328.77 839.618 332.404 Q842.766 336.015 848.692 336.015 Q851.701 336.015 854.364 334.927 Q857.049 333.839 859.41 331.64 L859.41 336.524 Q856.956 338.191 854.201 339.024 Q851.47 339.858 848.414 339.858 Q840.567 339.858 836.053 335.066 Q831.54 330.251 831.54 321.941 Q831.54 313.608 836.053 308.816 Q840.567 304.001 848.414 304.001 Q851.516 304.001 854.248 304.835 Q857.002 305.645 859.41 307.288 Z" fill="#000000" fill-rule="nonzero" fill-opacity="1" /><path clip-path="url(#clip380)" d="M871.308 308.469 L871.308 321.455 L877.187 321.455 Q880.451 321.455 882.234 319.765 Q884.016 318.075 884.016 314.95 Q884.016 311.848 882.234 310.159 Q880.451 308.469 877.187 308.469 L871.308 308.469 M866.632 304.626 L877.187 304.626 Q882.998 304.626 885.961 307.265 Q888.947 309.881 888.947 314.95 Q888.947 320.066 885.961 322.682 Q882.998 325.297 877.187 325.297 L871.308 325.297 L871.308 339.186 L866.632 339.186 L866.632 304.626 Z" fill="#000000" fill-rule="nonzero" fill-opacity="1" /><path clip-path="url(#clip380)" d="M894.687 304.626 L899.386 304.626 L899.386 325.622 Q899.386 331.177 901.4 333.631 Q903.414 336.061 907.928 336.061 Q912.419 336.061 914.433 333.631 Q916.447 331.177 916.447 325.622 L916.447 304.626 L921.146 304.626 L921.146 326.2 Q921.146 332.959 917.789 336.409 Q914.456 339.858 907.928 339.858 Q901.377 339.858 898.021 336.409 Q894.687 332.959 894.687 326.2 L894.687 304.626 Z" fill="#000000" fill-rule="nonzero" fill-opacity="1" /><path clip-path="url(#clip380)" d="M929.062 303.214 L932.766 303.214 Q936.238 308.677 937.951 313.909 Q939.687 319.14 939.687 324.302 Q939.687 329.487 937.951 334.742 Q936.238 339.996 932.766 345.436 L929.062 345.436 Q932.141 340.135 933.645 334.904 Q935.173 329.649 935.173 324.302 Q935.173 318.955 933.645 313.747 Q932.141 308.538 929.062 303.214 Z" fill="#000000" fill-rule="nonzero" fill-opacity="1" /><circle clip-path="url(#clip380)" cx="414.813" cy="373.746" r="20.48" fill="#c271d2" fill-rule="evenodd" fill-opacity="1" stroke="#000000" stroke-opacity="1" stroke-width="4.55111"/>
<path clip-path="url(#clip380)" d="M508.208 356.466 L515.176 356.466 L523.995 379.985 L532.861 356.466 L539.828 356.466 L539.828 391.026 L535.268 391.026 L535.268 360.679 L526.356 384.383 L521.657 384.383 L512.745 360.679 L512.745 391.026 L508.208 391.026 L508.208 356.466 Z" fill="#000000" fill-rule="nonzero" fill-opacity="1" /><path clip-path="url(#clip380)" d="M560.708 377.994 Q555.546 377.994 553.555 379.174 Q551.564 380.355 551.564 383.202 Q551.564 385.471 553.046 386.813 Q554.55 388.133 557.12 388.133 Q560.661 388.133 562.791 385.633 Q564.944 383.11 564.944 378.943 L564.944 377.994 L560.708 377.994 M569.203 376.235 L569.203 391.026 L564.944 391.026 L564.944 387.091 Q563.485 389.452 561.31 390.586 Q559.134 391.698 555.985 391.698 Q552.004 391.698 549.643 389.475 Q547.305 387.23 547.305 383.48 Q547.305 379.105 550.222 376.883 Q553.161 374.661 558.972 374.661 L564.944 374.661 L564.944 374.244 Q564.944 371.304 562.999 369.707 Q561.078 368.087 557.583 368.087 Q555.36 368.087 553.254 368.619 Q551.148 369.151 549.203 370.216 L549.203 366.281 Q551.541 365.378 553.74 364.938 Q555.939 364.475 558.023 364.475 Q563.647 364.475 566.425 367.392 Q569.203 370.309 569.203 376.235 Z" fill="#000000" fill-rule="nonzero" fill-opacity="1" /><path clip-path="url(#clip380)" d="M595.036 369.036 L595.036 355.008 L599.295 355.008 L599.295 391.026 L595.036 391.026 L595.036 387.137 Q593.694 389.452 591.633 390.586 Q589.596 391.698 586.726 391.698 Q582.027 391.698 579.064 387.948 Q576.124 384.198 576.124 378.087 Q576.124 371.975 579.064 368.225 Q582.027 364.475 586.726 364.475 Q589.596 364.475 591.633 365.61 Q593.694 366.721 595.036 369.036 M580.522 378.087 Q580.522 382.786 582.444 385.471 Q584.388 388.133 587.768 388.133 Q591.147 388.133 593.092 385.471 Q595.036 382.786 595.036 378.087 Q595.036 373.387 593.092 370.725 Q591.147 368.04 587.768 368.04 Q584.388 368.04 582.444 370.725 Q580.522 373.387 580.522 378.087 Z" fill="#000000" fill-rule="nonzero" fill-opacity="1" /><path clip-path="url(#clip380)" d="M608.254 356.466 L614.55 356.466 L629.874 385.378 L629.874 356.466 L634.411 356.466 L634.411 391.026 L628.115 391.026 L612.791 362.114 L612.791 391.026 L608.254 391.026 L608.254 356.466 Z" fill="#000000" fill-rule="nonzero" fill-opacity="1" /><path clip-path="url(#clip380)" d="M643.716 356.466 L648.392 356.466 L648.392 387.091 L665.221 387.091 L665.221 391.026 L643.716 391.026 L643.716 356.466 Z" fill="#000000" fill-rule="nonzero" fill-opacity="1" /><path clip-path="url(#clip380)" d="M674.804 360.309 L674.804 373.295 L680.684 373.295 Q683.948 373.295 685.73 371.605 Q687.513 369.915 687.513 366.79 Q687.513 363.688 685.73 361.999 Q683.948 360.309 680.684 360.309 L674.804 360.309 M670.128 356.466 L680.684 356.466 Q686.494 356.466 689.457 359.105 Q692.443 361.721 692.443 366.79 Q692.443 371.906 689.457 374.522 Q686.494 377.137 680.684 377.137 L674.804 377.137 L674.804 391.026 L670.128 391.026 L670.128 356.466 Z" fill="#000000" fill-rule="nonzero" fill-opacity="1" /><path clip-path="url(#clip380)" d="M715.869 361.304 L715.869 374.198 L728.762 374.198 L728.762 378.133 L715.869 378.133 L715.869 391.026 L711.98 391.026 L711.98 378.133 L699.087 378.133 L699.087 374.198 L711.98 374.198 L711.98 361.304 L715.869 361.304 Z" fill="#000000" fill-rule="nonzero" fill-opacity="1" /><path clip-path="url(#clip380)" d="M738.438 356.466 L743.114 356.466 L743.114 370.633 L760.105 370.633 L760.105 356.466 L764.781 356.466 L764.781 391.026 L760.105 391.026 L760.105 374.568 L743.114 374.568 L743.114 391.026 L738.438 391.026 L738.438 356.466 Z" fill="#000000" fill-rule="nonzero" fill-opacity="1" /><path clip-path="url(#clip380)" d="M784.688 393.434 Q782.882 398.063 781.169 399.475 Q779.457 400.887 776.586 400.887 L773.183 400.887 L773.183 397.323 L775.683 397.323 Q777.443 397.323 778.415 396.489 Q779.387 395.656 780.568 392.554 L781.331 390.61 L770.845 365.1 L775.359 365.1 L783.461 385.378 L791.563 365.1 L796.077 365.1 L784.688 393.434 Z" fill="#000000" fill-rule="nonzero" fill-opacity="1" /><path clip-path="url(#clip380)" d="M820.567 378.087 Q820.567 373.387 818.623 370.725 Q816.702 368.04 813.322 368.04 Q809.942 368.04 807.998 370.725 Q806.077 373.387 806.077 378.087 Q806.077 382.786 807.998 385.471 Q809.942 388.133 813.322 388.133 Q816.702 388.133 818.623 385.471 Q820.567 382.786 820.567 378.087 M806.077 369.036 Q807.419 366.721 809.456 365.61 Q811.517 364.475 814.364 364.475 Q819.086 364.475 822.026 368.225 Q824.989 371.975 824.989 378.087 Q824.989 384.198 822.026 387.948 Q819.086 391.698 814.364 391.698 Q811.517 391.698 809.456 390.586 Q807.419 389.452 806.077 387.137 L806.077 391.026 L801.794 391.026 L801.794 355.008 L806.077 355.008 L806.077 369.036 Z" fill="#000000" fill-rule="nonzero" fill-opacity="1" /><path clip-path="url(#clip380)" d="M847.072 369.082 Q846.354 368.665 845.498 368.48 Q844.664 368.272 843.646 368.272 Q840.035 368.272 838.09 370.633 Q836.169 372.971 836.169 377.369 L836.169 391.026 L831.887 391.026 L831.887 365.1 L836.169 365.1 L836.169 369.128 Q837.512 366.767 839.665 365.633 Q841.817 364.475 844.896 364.475 Q845.336 364.475 845.868 364.545 Q846.401 364.591 847.049 364.707 L847.072 369.082 Z" fill="#000000" fill-rule="nonzero" fill-opacity="1" /><path clip-path="url(#clip380)" d="M851.539 365.1 L855.799 365.1 L855.799 391.026 L851.539 391.026 L851.539 365.1 M851.539 355.008 L855.799 355.008 L855.799 360.401 L851.539 360.401 L851.539 355.008 Z" fill="#000000" fill-rule="nonzero" fill-opacity="1" /><path clip-path="url(#clip380)" d="M881.771 369.036 L881.771 355.008 L886.03 355.008 L886.03 391.026 L881.771 391.026 L881.771 387.137 Q880.428 389.452 878.368 390.586 Q876.331 391.698 873.461 391.698 Q868.762 391.698 865.799 387.948 Q862.859 384.198 862.859 378.087 Q862.859 371.975 865.799 368.225 Q868.762 364.475 873.461 364.475 Q876.331 364.475 878.368 365.61 Q880.428 366.721 881.771 369.036 M867.257 378.087 Q867.257 382.786 869.178 385.471 Q871.123 388.133 874.502 388.133 Q877.882 388.133 879.826 385.471 Q881.771 382.786 881.771 378.087 Q881.771 373.387 879.826 370.725 Q877.882 368.04 874.502 368.04 Q871.123 368.04 869.178 370.725 Q867.257 373.387 867.257 378.087 Z" fill="#000000" fill-rule="nonzero" fill-opacity="1" /><path clip-path="url(#clip380)" d="M894.988 356.466 L899.664 356.466 L899.664 371.073 L915.173 356.466 L921.192 356.466 L904.039 372.577 L922.419 391.026 L916.261 391.026 L899.664 374.383 L899.664 391.026 L894.988 391.026 L894.988 356.466 Z" fill="#000000" fill-rule="nonzero" fill-opacity="1" /><path clip-path="url(#clip380)" d="M926.076 356.466 L930.752 356.466 L930.752 371.073 L946.261 356.466 L952.28 356.466 L935.127 372.577 L953.507 391.026 L947.349 391.026 L930.752 374.383 L930.752 391.026 L926.076 391.026 L926.076 356.466 Z" fill="#000000" fill-rule="nonzero" fill-opacity="1" /><path clip-path="url(#clip380)" d="M948.692 356.466 L977.928 356.466 L977.928 360.401 L965.659 360.401 L965.659 391.026 L960.96 391.026 L960.96 360.401 L948.692 360.401 L948.692 356.466 Z" fill="#000000" fill-rule="nonzero" fill-opacity="1" /><path clip-path="url(#clip380)" d="M1007.56 355.054 Q1004.46 360.378 1002.95 365.587 Q1001.45 370.795 1001.45 376.142 Q1001.45 381.489 1002.95 386.744 Q1004.48 391.975 1007.56 397.276 L1003.85 397.276 Q1000.38 391.836 998.645 386.582 Q996.932 381.327 996.932 376.142 Q996.932 370.98 998.645 365.749 Q1000.36 360.517 1003.85 355.054 L1007.56 355.054 Z" fill="#000000" fill-rule="nonzero" fill-opacity="1" /><path clip-path="url(#clip380)" d="M1039.57 386.096 L1039.57 376.813 L1031.93 376.813 L1031.93 372.971 L1044.2 372.971 L1044.2 387.809 Q1041.49 389.73 1038.23 390.725 Q1034.96 391.698 1031.26 391.698 Q1023.16 391.698 1018.58 386.975 Q1014.02 382.23 1014.02 373.781 Q1014.02 365.309 1018.58 360.587 Q1023.16 355.841 1031.26 355.841 Q1034.64 355.841 1037.67 356.675 Q1040.73 357.508 1043.3 359.128 L1043.3 364.105 Q1040.71 361.906 1037.79 360.795 Q1034.87 359.684 1031.65 359.684 Q1025.31 359.684 1022.12 363.225 Q1018.95 366.767 1018.95 373.781 Q1018.95 380.772 1022.12 384.313 Q1025.31 387.855 1031.65 387.855 Q1034.13 387.855 1036.08 387.438 Q1038.02 386.999 1039.57 386.096 Z" fill="#000000" fill-rule="nonzero" fill-opacity="1" /><path clip-path="url(#clip380)" d="M1057.42 360.309 L1057.42 373.295 L1063.3 373.295 Q1066.56 373.295 1068.34 371.605 Q1070.13 369.915 1070.13 366.79 Q1070.13 363.688 1068.34 361.999 Q1066.56 360.309 1063.3 360.309 L1057.42 360.309 M1052.74 356.466 L1063.3 356.466 Q1069.11 356.466 1072.07 359.105 Q1075.06 361.721 1075.06 366.79 Q1075.06 371.906 1072.07 374.522 Q1069.11 377.137 1063.3 377.137 L1057.42 377.137 L1057.42 391.026 L1052.74 391.026 L1052.74 356.466 Z" fill="#000000" fill-rule="nonzero" fill-opacity="1" /><path clip-path="url(#clip380)" d="M1080.8 356.466 L1085.5 356.466 L1085.5 377.462 Q1085.5 383.017 1087.51 385.471 Q1089.52 387.901 1094.04 387.901 Q1098.53 387.901 1100.54 385.471 Q1102.56 383.017 1102.56 377.462 L1102.56 356.466 L1107.26 356.466 L1107.26 378.04 Q1107.26 384.799 1103.9 388.249 Q1100.57 391.698 1094.04 391.698 Q1087.49 391.698 1084.13 388.249 Q1080.8 384.799 1080.8 378.04 L1080.8 356.466 Z" fill="#000000" fill-rule="nonzero" fill-opacity="1" /><path clip-path="url(#clip380)" d="M1115.17 355.054 L1118.88 355.054 Q1122.35 360.517 1124.06 365.749 Q1125.8 370.98 1125.8 376.142 Q1125.8 381.327 1124.06 386.582 Q1122.35 391.836 1118.88 397.276 L1115.17 397.276 Q1118.25 391.975 1119.76 386.744 Q1121.28 381.489 1121.28 376.142 Q1121.28 370.795 1119.76 365.587 Q1118.25 360.378 1115.17 355.054 Z" fill="#000000" fill-rule="nonzero" fill-opacity="1" /><circle clip-path="url(#clip380)" cx="414.813" cy="425.586" r="20.48" fill="#ac8d18" fill-rule="evenodd" fill-opacity="1" stroke="#000000" stroke-opacity="1" stroke-width="4.55111"/>
<path clip-path="url(#clip380)" d="M508.208 408.306 L515.176 408.306 L523.995 431.825 L532.861 408.306 L539.828 408.306 L539.828 442.866 L535.268 442.866 L535.268 412.519 L526.356 436.223 L521.657 436.223 L512.745 412.519 L512.745 442.866 L508.208 442.866 L508.208 408.306 Z" fill="#000000" fill-rule="nonzero" fill-opacity="1" /><path clip-path="url(#clip380)" d="M560.708 429.834 Q555.546 429.834 553.555 431.014 Q551.564 432.195 551.564 435.042 Q551.564 437.311 553.046 438.653 Q554.55 439.973 557.12 439.973 Q560.661 439.973 562.791 437.473 Q564.944 434.95 564.944 430.783 L564.944 429.834 L560.708 429.834 M569.203 428.075 L569.203 442.866 L564.944 442.866 L564.944 438.931 Q563.485 441.292 561.31 442.426 Q559.134 443.538 555.985 443.538 Q552.004 443.538 549.643 441.315 Q547.305 439.07 547.305 435.32 Q547.305 430.945 550.222 428.723 Q553.161 426.501 558.972 426.501 L564.944 426.501 L564.944 426.084 Q564.944 423.144 562.999 421.547 Q561.078 419.927 557.583 419.927 Q555.36 419.927 553.254 420.459 Q551.148 420.991 549.203 422.056 L549.203 418.121 Q551.541 417.218 553.74 416.778 Q555.939 416.315 558.023 416.315 Q563.647 416.315 566.425 419.232 Q569.203 422.149 569.203 428.075 Z" fill="#000000" fill-rule="nonzero" fill-opacity="1" /><path clip-path="url(#clip380)" d="M595.036 420.876 L595.036 406.848 L599.295 406.848 L599.295 442.866 L595.036 442.866 L595.036 438.977 Q593.694 441.292 591.633 442.426 Q589.596 443.538 586.726 443.538 Q582.027 443.538 579.064 439.788 Q576.124 436.038 576.124 429.927 Q576.124 423.815 579.064 420.065 Q582.027 416.315 586.726 416.315 Q589.596 416.315 591.633 417.45 Q593.694 418.561 595.036 420.876 M580.522 429.927 Q580.522 434.626 582.444 437.311 Q584.388 439.973 587.768 439.973 Q591.147 439.973 593.092 437.311 Q595.036 434.626 595.036 429.927 Q595.036 425.227 593.092 422.565 Q591.147 419.88 587.768 419.88 Q584.388 419.88 582.444 422.565 Q580.522 425.227 580.522 429.927 Z" fill="#000000" fill-rule="nonzero" fill-opacity="1" /><path clip-path="url(#clip380)" d="M608.254 408.306 L614.55 408.306 L629.874 437.218 L629.874 408.306 L634.411 408.306 L634.411 442.866 L628.115 442.866 L612.791 413.954 L612.791 442.866 L608.254 442.866 L608.254 408.306 Z" fill="#000000" fill-rule="nonzero" fill-opacity="1" /><path clip-path="url(#clip380)" d="M643.716 408.306 L648.392 408.306 L648.392 438.931 L665.221 438.931 L665.221 442.866 L643.716 442.866 L643.716 408.306 Z" fill="#000000" fill-rule="nonzero" fill-opacity="1" /><path clip-path="url(#clip380)" d="M674.804 412.149 L674.804 425.135 L680.684 425.135 Q683.948 425.135 685.73 423.445 Q687.513 421.755 687.513 418.63 Q687.513 415.528 685.73 413.839 Q683.948 412.149 680.684 412.149 L674.804 412.149 M670.128 408.306 L680.684 408.306 Q686.494 408.306 689.457 410.945 Q692.443 413.561 692.443 418.63 Q692.443 423.746 689.457 426.362 Q686.494 428.977 680.684 428.977 L674.804 428.977 L674.804 442.866 L670.128 442.866 L670.128 408.306 Z" fill="#000000" fill-rule="nonzero" fill-opacity="1" /><path clip-path="url(#clip380)" d="M715.869 413.144 L715.869 426.038 L728.762 426.038 L728.762 429.973 L715.869 429.973 L715.869 442.866 L711.98 442.866 L711.98 429.973 L699.087 429.973 L699.087 426.038 L711.98 426.038 L711.98 413.144 L715.869 413.144 Z" fill="#000000" fill-rule="nonzero" fill-opacity="1" /><path clip-path="url(#clip380)" d="M738.438 408.306 L743.114 408.306 L743.114 438.931 L759.943 438.931 L759.943 442.866 L738.438 442.866 L738.438 408.306 Z" fill="#000000" fill-rule="nonzero" fill-opacity="1" /><path clip-path="url(#clip380)" d="M764.665 416.94 L768.924 416.94 L768.924 442.866 L764.665 442.866 L764.665 416.94 M764.665 406.848 L768.924 406.848 L768.924 412.241 L764.665 412.241 L764.665 406.848 Z" fill="#000000" fill-rule="nonzero" fill-opacity="1" /><path clip-path="url(#clip380)" d="M790.961 406.848 L790.961 410.39 L786.887 410.39 Q784.595 410.39 783.693 411.316 Q782.813 412.241 782.813 414.649 L782.813 416.94 L789.827 416.94 L789.827 420.251 L782.813 420.251 L782.813 442.866 L778.531 442.866 L778.531 420.251 L774.457 420.251 L774.457 416.94 L778.531 416.94 L778.531 415.135 Q778.531 410.806 780.544 408.839 Q782.558 406.848 786.933 406.848 L790.961 406.848 Z" fill="#000000" fill-rule="nonzero" fill-opacity="1" /><path clip-path="url(#clip380)" d="M797.905 409.579 L797.905 416.94 L806.679 416.94 L806.679 420.251 L797.905 420.251 L797.905 434.325 Q797.905 437.496 798.762 438.399 Q799.642 439.301 802.304 439.301 L806.679 439.301 L806.679 442.866 L802.304 442.866 Q797.373 442.866 795.498 441.038 Q793.623 439.186 793.623 434.325 L793.623 420.251 L790.498 420.251 L790.498 416.94 L793.623 416.94 L793.623 409.579 L797.905 409.579 Z" fill="#000000" fill-rule="nonzero" fill-opacity="1" /><path clip-path="url(#clip380)" d="M834.456 428.839 L834.456 430.922 L814.873 430.922 Q815.151 435.32 817.512 437.635 Q819.896 439.926 824.132 439.926 Q826.586 439.926 828.878 439.325 Q831.192 438.723 833.461 437.519 L833.461 441.547 Q831.169 442.519 828.762 443.028 Q826.354 443.538 823.878 443.538 Q817.674 443.538 814.04 439.926 Q810.429 436.315 810.429 430.158 Q810.429 423.792 813.854 420.065 Q817.304 416.315 823.137 416.315 Q828.368 416.315 831.401 419.695 Q834.456 423.052 834.456 428.839 M830.197 427.589 Q830.151 424.093 828.229 422.01 Q826.331 419.927 823.183 419.927 Q819.618 419.927 817.466 421.94 Q815.336 423.954 815.012 427.612 L830.197 427.589 Z" fill="#000000" fill-rule="nonzero" fill-opacity="1" /><path clip-path="url(#clip380)" d="M858.507 420.876 L858.507 406.848 L862.766 406.848 L862.766 442.866 L858.507 442.866 L858.507 438.977 Q857.164 441.292 855.104 442.426 Q853.067 443.538 850.197 443.538 Q845.498 443.538 842.535 439.788 Q839.595 436.038 839.595 429.927 Q839.595 423.815 842.535 420.065 Q845.498 416.315 850.197 416.315 Q853.067 416.315 855.104 417.45 Q857.164 418.561 858.507 420.876 M843.993 429.927 Q843.993 434.626 845.914 437.311 Q847.859 439.973 851.239 439.973 Q854.618 439.973 856.563 437.311 Q858.507 434.626 858.507 429.927 Q858.507 425.227 856.563 422.565 Q854.618 419.88 851.239 419.88 Q847.859 419.88 845.914 422.565 Q843.993 425.227 843.993 429.927 Z" fill="#000000" fill-rule="nonzero" fill-opacity="1" /><path clip-path="url(#clip380)" d="M871.725 408.306 L876.4 408.306 L876.4 422.913 L891.91 408.306 L897.928 408.306 L880.775 424.417 L899.155 442.866 L892.998 442.866 L876.4 426.223 L876.4 442.866 L871.725 442.866 L871.725 408.306 Z" fill="#000000" fill-rule="nonzero" fill-opacity="1" /><path clip-path="url(#clip380)" d="M902.812 408.306 L907.488 408.306 L907.488 422.913 L922.997 408.306 L929.016 408.306 L911.863 424.417 L930.243 442.866 L924.085 442.866 L907.488 426.223 L907.488 442.866 L902.812 442.866 L902.812 408.306 Z" fill="#000000" fill-rule="nonzero" fill-opacity="1" /><path clip-path="url(#clip380)" d="M925.428 408.306 L954.664 408.306 L954.664 412.241 L942.395 412.241 L942.395 442.866 L937.696 442.866 L937.696 412.241 L925.428 412.241 L925.428 408.306 Z" fill="#000000" fill-rule="nonzero" fill-opacity="1" /><path clip-path="url(#clip380)" d="M984.293 406.894 Q981.192 412.218 979.687 417.427 Q978.182 422.635 978.182 427.982 Q978.182 433.329 979.687 438.584 Q981.215 443.815 984.293 449.116 L980.59 449.116 Q977.117 443.676 975.381 438.422 Q973.668 433.167 973.668 427.982 Q973.668 422.82 975.381 417.589 Q977.094 412.357 980.59 406.894 L984.293 406.894 Z" fill="#000000" fill-rule="nonzero" fill-opacity="1" /><path clip-path="url(#clip380)" d="M1016.31 437.936 L1016.31 428.653 L1008.67 428.653 L1008.67 424.811 L1020.94 424.811 L1020.94 439.649 Q1018.23 441.57 1014.96 442.565 Q1011.7 443.538 1008 443.538 Q999.895 443.538 995.312 438.815 Q990.752 434.07 990.752 425.621 Q990.752 417.149 995.312 412.427 Q999.895 407.681 1008 407.681 Q1011.38 407.681 1014.41 408.515 Q1017.46 409.348 1020.03 410.968 L1020.03 415.945 Q1017.44 413.746 1014.52 412.635 Q1011.61 411.524 1008.39 411.524 Q1002.05 411.524 998.853 415.065 Q995.682 418.607 995.682 425.621 Q995.682 432.612 998.853 436.153 Q1002.05 439.695 1008.39 439.695 Q1010.87 439.695 1012.81 439.278 Q1014.76 438.839 1016.31 437.936 Z" fill="#000000" fill-rule="nonzero" fill-opacity="1" /><path clip-path="url(#clip380)" d="M1034.15 412.149 L1034.15 425.135 L1040.03 425.135 Q1043.3 425.135 1045.08 423.445 Q1046.86 421.755 1046.86 418.63 Q1046.86 415.528 1045.08 413.839 Q1043.3 412.149 1040.03 412.149 L1034.15 412.149 M1029.48 408.306 L1040.03 408.306 Q1045.84 408.306 1048.81 410.945 Q1051.79 413.561 1051.79 418.63 Q1051.79 423.746 1048.81 426.362 Q1045.84 428.977 1040.03 428.977 L1034.15 428.977 L1034.15 442.866 L1029.48 442.866 L1029.48 408.306 Z" fill="#000000" fill-rule="nonzero" fill-opacity="1" /><path clip-path="url(#clip380)" d="M1057.53 408.306 L1062.23 408.306 L1062.23 429.302 Q1062.23 434.857 1064.25 437.311 Q1066.26 439.741 1070.77 439.741 Q1075.27 439.741 1077.28 437.311 Q1079.29 434.857 1079.29 429.302 L1079.29 408.306 L1083.99 408.306 L1083.99 429.88 Q1083.99 436.639 1080.64 440.089 Q1077.3 443.538 1070.77 443.538 Q1064.22 443.538 1060.87 440.089 Q1057.53 436.639 1057.53 429.88 L1057.53 408.306 Z" fill="#000000" fill-rule="nonzero" fill-opacity="1" /><path clip-path="url(#clip380)" d="M1091.91 406.894 L1095.61 406.894 Q1099.08 412.357 1100.8 417.589 Q1102.53 422.82 1102.53 427.982 Q1102.53 433.167 1100.8 438.422 Q1099.08 443.676 1095.61 449.116 L1091.91 449.116 Q1094.99 443.815 1096.49 438.584 Q1098.02 433.329 1098.02 427.982 Q1098.02 422.635 1096.49 417.427 Q1094.99 412.218 1091.91 406.894 Z" fill="#000000" fill-rule="nonzero" fill-opacity="1" /><circle clip-path="url(#clip380)" cx="414.813" cy="477.426" r="20.48" fill="#00a9ad" fill-rule="evenodd" fill-opacity="1" stroke="#000000" stroke-opacity="1" stroke-width="4.55111"/>
<path clip-path="url(#clip380)" d="M508.208 460.146 L515.176 460.146 L523.995 483.665 L532.861 460.146 L539.828 460.146 L539.828 494.706 L535.268 494.706 L535.268 464.359 L526.356 488.063 L521.657 488.063 L512.745 464.359 L512.745 494.706 L508.208 494.706 L508.208 460.146 Z" fill="#000000" fill-rule="nonzero" fill-opacity="1" /><path clip-path="url(#clip380)" d="M560.708 481.674 Q555.546 481.674 553.555 482.854 Q551.564 484.035 551.564 486.882 Q551.564 489.151 553.046 490.493 Q554.55 491.813 557.12 491.813 Q560.661 491.813 562.791 489.313 Q564.944 486.79 564.944 482.623 L564.944 481.674 L560.708 481.674 M569.203 479.915 L569.203 494.706 L564.944 494.706 L564.944 490.771 Q563.485 493.132 561.31 494.266 Q559.134 495.378 555.985 495.378 Q552.004 495.378 549.643 493.155 Q547.305 490.91 547.305 487.16 Q547.305 482.785 550.222 480.563 Q553.161 478.341 558.972 478.341 L564.944 478.341 L564.944 477.924 Q564.944 474.984 562.999 473.387 Q561.078 471.767 557.583 471.767 Q555.36 471.767 553.254 472.299 Q551.148 472.831 549.203 473.896 L549.203 469.961 Q551.541 469.058 553.74 468.618 Q555.939 468.155 558.023 468.155 Q563.647 468.155 566.425 471.072 Q569.203 473.989 569.203 479.915 Z" fill="#000000" fill-rule="nonzero" fill-opacity="1" /><path clip-path="url(#clip380)" d="M595.036 472.716 L595.036 458.688 L599.295 458.688 L599.295 494.706 L595.036 494.706 L595.036 490.817 Q593.694 493.132 591.633 494.266 Q589.596 495.378 586.726 495.378 Q582.027 495.378 579.064 491.628 Q576.124 487.878 576.124 481.767 Q576.124 475.655 579.064 471.905 Q582.027 468.155 586.726 468.155 Q589.596 468.155 591.633 469.29 Q593.694 470.401 595.036 472.716 M580.522 481.767 Q580.522 486.466 582.444 489.151 Q584.388 491.813 587.768 491.813 Q591.147 491.813 593.092 489.151 Q595.036 486.466 595.036 481.767 Q595.036 477.067 593.092 474.405 Q591.147 471.72 587.768 471.72 Q584.388 471.72 582.444 474.405 Q580.522 477.067 580.522 481.767 Z" fill="#000000" fill-rule="nonzero" fill-opacity="1" /><path clip-path="url(#clip380)" d="M608.254 460.146 L614.55 460.146 L629.874 489.058 L629.874 460.146 L634.411 460.146 L634.411 494.706 L628.115 494.706 L612.791 465.794 L612.791 494.706 L608.254 494.706 L608.254 460.146 Z" fill="#000000" fill-rule="nonzero" fill-opacity="1" /><path clip-path="url(#clip380)" d="M669.596 462.808 L669.596 467.739 Q667.235 465.54 664.55 464.452 Q661.888 463.364 658.878 463.364 Q652.953 463.364 649.804 466.998 Q646.656 470.609 646.656 477.461 Q646.656 484.29 649.804 487.924 Q652.953 491.535 658.878 491.535 Q661.888 491.535 664.55 490.447 Q667.235 489.359 669.596 487.16 L669.596 492.044 Q667.142 493.711 664.388 494.544 Q661.656 495.378 658.601 495.378 Q650.753 495.378 646.24 490.586 Q641.726 485.771 641.726 477.461 Q641.726 469.128 646.24 464.336 Q650.753 459.521 658.601 459.521 Q661.703 459.521 664.434 460.355 Q667.189 461.165 669.596 462.808 Z" fill="#000000" fill-rule="nonzero" fill-opacity="1" /><path clip-path="url(#clip380)" d="M676.818 460.146 L681.494 460.146 L681.494 490.771 L698.323 490.771 L698.323 494.706 L676.818 494.706 L676.818 460.146 Z" fill="#000000" fill-rule="nonzero" fill-opacity="1" /><path clip-path="url(#clip380)" d="M728.346 458.734 Q725.244 464.058 723.739 469.267 Q722.235 474.475 722.235 479.822 Q722.235 485.169 723.739 490.424 Q725.267 495.655 728.346 500.956 L724.642 500.956 Q721.17 495.516 719.434 490.262 Q717.721 485.007 717.721 479.822 Q717.721 474.66 719.434 469.429 Q721.147 464.197 724.642 458.734 L728.346 458.734 Z" fill="#000000" fill-rule="nonzero" fill-opacity="1" /><path clip-path="url(#clip380)" d="M760.359 489.776 L760.359 480.493 L752.721 480.493 L752.721 476.651 L764.989 476.651 L764.989 491.489 Q762.281 493.41 759.017 494.405 Q755.753 495.378 752.049 495.378 Q743.947 495.378 739.364 490.655 Q734.804 485.91 734.804 477.461 Q734.804 468.989 739.364 464.267 Q743.947 459.521 752.049 459.521 Q755.429 459.521 758.461 460.355 Q761.517 461.188 764.086 462.808 L764.086 467.785 Q761.494 465.586 758.577 464.475 Q755.66 463.364 752.443 463.364 Q746.1 463.364 742.906 466.905 Q739.735 470.447 739.735 477.461 Q739.735 484.452 742.906 487.993 Q746.1 491.535 752.443 491.535 Q754.92 491.535 756.864 491.118 Q758.808 490.679 760.359 489.776 Z" fill="#000000" fill-rule="nonzero" fill-opacity="1" /><path clip-path="url(#clip380)" d="M778.207 463.989 L778.207 476.975 L784.086 476.975 Q787.35 476.975 789.132 475.285 Q790.915 473.595 790.915 470.47 Q790.915 467.368 789.132 465.679 Q787.35 463.989 784.086 463.989 L778.207 463.989 M773.531 460.146 L784.086 460.146 Q789.896 460.146 792.859 462.785 Q795.845 465.401 795.845 470.47 Q795.845 475.586 792.859 478.202 Q789.896 480.817 784.086 480.817 L778.207 480.817 L778.207 494.706 L773.531 494.706 L773.531 460.146 Z" fill="#000000" fill-rule="nonzero" fill-opacity="1" /><path clip-path="url(#clip380)" d="M801.586 460.146 L806.285 460.146 L806.285 481.142 Q806.285 486.697 808.299 489.151 Q810.313 491.581 814.827 491.581 Q819.317 491.581 821.331 489.151 Q823.345 486.697 823.345 481.142 L823.345 460.146 L828.044 460.146 L828.044 481.72 Q828.044 488.479 824.688 491.929 Q821.354 495.378 814.827 495.378 Q808.276 495.378 804.919 491.929 Q801.586 488.479 801.586 481.72 L801.586 460.146 Z" fill="#000000" fill-rule="nonzero" fill-opacity="1" /><path clip-path="url(#clip380)" d="M835.961 458.734 L839.665 458.734 Q843.137 464.197 844.85 469.429 Q846.586 474.66 846.586 479.822 Q846.586 485.007 844.85 490.262 Q843.137 495.516 839.665 500.956 L835.961 500.956 Q839.04 495.655 840.544 490.424 Q842.072 485.169 842.072 479.822 Q842.072 474.475 840.544 469.267 Q839.04 464.058 835.961 458.734 Z" fill="#000000" fill-rule="nonzero" fill-opacity="1" /></svg>
