<?xml version="1.0" encoding="utf-8"?>
<svg xmlns="http://www.w3.org/2000/svg" xmlns:xlink="http://www.w3.org/1999/xlink" width="600" height="400" viewBox="0 0 2400 1600">
<defs>
  <clipPath id="clip580">
    <rect x="0" y="0" width="2400" height="1600"/>
  </clipPath>
</defs>
<path clip-path="url(#clip580)" d="M0 1600 L2400 1600 L2400 0 L0 0  Z" fill="#ffffff" fill-rule="evenodd" fill-opacity="1"/>
<defs>
  <clipPath id="clip581">
    <rect x="480" y="0" width="1681" height="1600"/>
  </clipPath>
</defs>
<path clip-path="url(#clip580)" d="M221.637 1410.9 L2352.76 1410.9 L2352.76 123.472 L221.637 123.472  Z" fill="#ffffff" fill-rule="evenodd" fill-opacity="1"/>
<defs>
  <clipPath id="clip582">
    <rect x="221" y="123" width="2132" height="1288"/>
  </clipPath>
</defs>
<polyline clip-path="url(#clip582)" style="stroke:#000000; stroke-linecap:round; stroke-linejoin:round; stroke-width:2; stroke-opacity:0.1; fill:none" points="554.307,1410.9 554.307,123.472 "/>
<polyline clip-path="url(#clip582)" style="stroke:#000000; stroke-linecap:round; stroke-linejoin:round; stroke-width:2; stroke-opacity:0.1; fill:none" points="1781.97,1410.9 1781.97,123.472 "/>
<polyline clip-path="url(#clip582)" style="stroke:#000000; stroke-linecap:round; stroke-linejoin:round; stroke-width:2; stroke-opacity:0.1; fill:none" points="221.637,857.854 2352.76,857.854 "/>
<polyline clip-path="url(#clip582)" style="stroke:#000000; stroke-linecap:round; stroke-linejoin:round; stroke-width:2; stroke-opacity:0.1; fill:none" points="221.637,238.501 2352.76,238.501 "/>
<polyline clip-path="url(#clip580)" style="stroke:#000000; stroke-linecap:round; stroke-linejoin:round; stroke-width:4; stroke-opacity:1; fill:none" points="221.637,1410.9 2352.76,1410.9 "/>
<polyline clip-path="url(#clip580)" style="stroke:#000000; stroke-linecap:round; stroke-linejoin:round; stroke-width:4; stroke-opacity:1; fill:none" points="554.307,1410.9 554.307,1392 "/>
<polyline clip-path="url(#clip580)" style="stroke:#000000; stroke-linecap:round; stroke-linejoin:round; stroke-width:4; stroke-opacity:1; fill:none" points="1781.97,1410.9 1781.97,1392 "/>
<path clip-path="url(#clip580)" d="M519.751 1485.02 L527.39 1485.02 L527.39 1458.66 L519.079 1460.32 L519.079 1456.06 L527.343 1454.4 L532.019 1454.4 L532.019 1485.02 L539.658 1485.02 L539.658 1488.96 L519.751 1488.96 L519.751 1485.02 Z" fill="#000000" fill-rule="nonzero" fill-opacity="1" /><path clip-path="url(#clip580)" d="M559.102 1457.48 Q555.491 1457.48 553.663 1461.04 Q551.857 1464.58 551.857 1471.71 Q551.857 1478.82 553.663 1482.38 Q555.491 1485.92 559.102 1485.92 Q562.737 1485.92 564.542 1482.38 Q566.371 1478.82 566.371 1471.71 Q566.371 1464.58 564.542 1461.04 Q562.737 1457.48 559.102 1457.48 M559.102 1453.77 Q564.913 1453.77 567.968 1458.38 Q571.047 1462.96 571.047 1471.71 Q571.047 1480.44 567.968 1485.04 Q564.913 1489.63 559.102 1489.63 Q553.292 1489.63 550.214 1485.04 Q547.158 1480.44 547.158 1471.71 Q547.158 1462.96 550.214 1458.38 Q553.292 1453.77 559.102 1453.77 Z" fill="#000000" fill-rule="nonzero" fill-opacity="1" /><path clip-path="url(#clip580)" d="M583.742 1446.41 Q586.469 1446.99 587.993 1448.83 Q589.535 1450.68 589.535 1453.38 Q589.535 1457.54 586.676 1459.82 Q583.817 1462.09 578.551 1462.09 Q576.783 1462.09 574.902 1461.73 Q573.04 1461.4 571.047 1460.7 L571.047 1457.03 Q572.627 1457.95 574.507 1458.42 Q576.388 1458.89 578.438 1458.89 Q582.012 1458.89 583.874 1457.48 Q585.754 1456.07 585.754 1453.38 Q585.754 1450.9 584.005 1449.51 Q582.275 1448.1 579.172 1448.1 L575.899 1448.1 L575.899 1444.98 L579.322 1444.98 Q582.125 1444.98 583.61 1443.87 Q585.096 1442.74 585.096 1440.63 Q585.096 1438.47 583.554 1437.32 Q582.031 1436.16 579.172 1436.16 Q577.611 1436.16 575.824 1436.49 Q574.037 1436.83 571.893 1437.55 L571.893 1434.16 Q574.056 1433.56 575.937 1433.26 Q577.836 1432.96 579.51 1432.96 Q583.836 1432.96 586.356 1434.93 Q588.877 1436.89 588.877 1440.24 Q588.877 1442.57 587.541 1444.19 Q586.206 1445.79 583.742 1446.41 Z" fill="#000000" fill-rule="nonzero" fill-opacity="1" /><path clip-path="url(#clip580)" d="M1746.43 1485.02 L1754.06 1485.02 L1754.06 1458.66 L1745.75 1460.32 L1745.75 1456.06 L1754.02 1454.4 L1758.69 1454.4 L1758.69 1485.02 L1766.33 1485.02 L1766.33 1488.96 L1746.43 1488.96 L1746.43 1485.02 Z" fill="#000000" fill-rule="nonzero" fill-opacity="1" /><path clip-path="url(#clip580)" d="M1785.78 1457.48 Q1782.17 1457.48 1780.34 1461.04 Q1778.53 1464.58 1778.53 1471.71 Q1778.53 1478.82 1780.34 1482.38 Q1782.17 1485.92 1785.78 1485.92 Q1789.41 1485.92 1791.22 1482.38 Q1793.05 1478.82 1793.05 1471.71 Q1793.05 1464.58 1791.22 1461.04 Q1789.41 1457.48 1785.78 1457.48 M1785.78 1453.77 Q1791.59 1453.77 1794.64 1458.38 Q1797.72 1462.96 1797.72 1471.71 Q1797.72 1480.44 1794.64 1485.04 Q1791.59 1489.63 1785.78 1489.63 Q1779.97 1489.63 1776.89 1485.04 Q1773.83 1480.44 1773.83 1471.71 Q1773.83 1462.96 1776.89 1458.38 Q1779.97 1453.77 1785.78 1453.77 Z" fill="#000000" fill-rule="nonzero" fill-opacity="1" /><path clip-path="url(#clip580)" d="M1810.4 1436.78 L1800.81 1451.77 L1810.4 1451.77 L1810.4 1436.78 M1809.4 1433.47 L1814.18 1433.47 L1814.18 1451.77 L1818.18 1451.77 L1818.18 1454.93 L1814.18 1454.93 L1814.18 1461.55 L1810.4 1461.55 L1810.4 1454.93 L1797.72 1454.93 L1797.72 1451.26 L1809.4 1433.47 Z" fill="#000000" fill-rule="nonzero" fill-opacity="1" /><path clip-path="url(#clip580)" d="M1246.69 1552.67 L1246.69 1574.19 L1240.84 1574.19 L1240.84 1552.86 Q1240.84 1547.8 1238.86 1545.29 Q1236.89 1542.77 1232.94 1542.77 Q1228.2 1542.77 1225.47 1545.79 Q1222.73 1548.82 1222.73 1554.04 L1222.73 1574.19 L1216.84 1574.19 L1216.84 1538.54 L1222.73 1538.54 L1222.73 1544.08 Q1224.83 1540.86 1227.66 1539.27 Q1230.53 1537.68 1234.25 1537.68 Q1240.39 1537.68 1243.54 1541.5 Q1246.69 1545.29 1246.69 1552.67 Z" fill="#000000" fill-rule="nonzero" fill-opacity="1" /><path clip-path="url(#clip580)" d="M1254.17 1538.54 L1260.38 1538.54 L1271.52 1568.46 L1282.66 1538.54 L1288.87 1538.54 L1275.5 1574.19 L1267.54 1574.19 L1254.17 1538.54 Z" fill="#000000" fill-rule="nonzero" fill-opacity="1" /><path clip-path="url(#clip580)" d="M1313.15 1556.27 Q1306.05 1556.27 1303.32 1557.89 Q1300.58 1559.51 1300.58 1563.43 Q1300.58 1566.55 1302.62 1568.39 Q1304.69 1570.21 1308.22 1570.21 Q1313.09 1570.21 1316.02 1566.77 Q1318.98 1563.3 1318.98 1557.57 L1318.98 1556.27 L1313.15 1556.27 M1324.83 1553.85 L1324.83 1574.19 L1318.98 1574.19 L1318.98 1568.77 Q1316.97 1572.02 1313.98 1573.58 Q1310.99 1575.11 1306.66 1575.11 Q1301.19 1575.11 1297.94 1572.05 Q1294.72 1568.97 1294.72 1563.81 Q1294.72 1557.79 1298.73 1554.74 Q1302.78 1551.68 1310.77 1551.68 L1318.98 1551.68 L1318.98 1551.11 Q1318.98 1547.07 1316.3 1544.87 Q1313.66 1542.64 1308.86 1542.64 Q1305.8 1542.64 1302.9 1543.38 Q1300.01 1544.11 1297.33 1545.57 L1297.33 1540.16 Q1300.55 1538.92 1303.57 1538.31 Q1306.6 1537.68 1309.46 1537.68 Q1317.19 1537.68 1321.01 1541.69 Q1324.83 1545.7 1324.83 1553.85 Z" fill="#000000" fill-rule="nonzero" fill-opacity="1" /><path clip-path="url(#clip580)" d="M1357.55 1544.01 Q1356.57 1543.44 1355.39 1543.18 Q1354.24 1542.9 1352.84 1542.9 Q1347.88 1542.9 1345.2 1546.14 Q1342.56 1549.36 1342.56 1555.41 L1342.56 1574.19 L1336.67 1574.19 L1336.67 1538.54 L1342.56 1538.54 L1342.56 1544.08 Q1344.41 1540.83 1347.37 1539.27 Q1350.33 1537.68 1354.56 1537.68 Q1355.17 1537.68 1355.9 1537.77 Q1356.63 1537.84 1357.52 1538 L1357.55 1544.01 Z" fill="#000000" fill-rule="nonzero" fill-opacity="1" /><polyline clip-path="url(#clip580)" style="stroke:#000000; stroke-linecap:round; stroke-linejoin:round; stroke-width:4; stroke-opacity:1; fill:none" points="221.637,1410.9 221.637,123.472 "/>
<polyline clip-path="url(#clip580)" style="stroke:#000000; stroke-linecap:round; stroke-linejoin:round; stroke-width:4; stroke-opacity:1; fill:none" points="221.637,857.854 240.535,857.854 "/>
<polyline clip-path="url(#clip580)" style="stroke:#000000; stroke-linecap:round; stroke-linejoin:round; stroke-width:4; stroke-opacity:1; fill:none" points="221.637,238.501 240.535,238.501 "/>
<path clip-path="url(#clip580)" d="M114.931 877.647 L122.57 877.647 L122.57 851.281 L114.26 852.948 L114.26 848.689 L122.524 847.022 L127.2 847.022 L127.2 877.647 L134.839 877.647 L134.839 881.582 L114.931 881.582 L114.931 877.647 Z" fill="#000000" fill-rule="nonzero" fill-opacity="1" /><path clip-path="url(#clip580)" d="M154.283 850.101 Q150.672 850.101 148.843 853.666 Q147.038 857.207 147.038 864.337 Q147.038 871.443 148.843 875.008 Q150.672 878.55 154.283 878.55 Q157.917 878.55 159.723 875.008 Q161.552 871.443 161.552 864.337 Q161.552 857.207 159.723 853.666 Q157.917 850.101 154.283 850.101 M154.283 846.397 Q160.093 846.397 163.149 851.003 Q166.227 855.587 166.227 864.337 Q166.227 873.064 163.149 877.67 Q160.093 882.253 154.283 882.253 Q148.473 882.253 145.394 877.67 Q142.339 873.064 142.339 864.337 Q142.339 855.587 145.394 851.003 Q148.473 846.397 154.283 846.397 Z" fill="#000000" fill-rule="nonzero" fill-opacity="1" /><path clip-path="url(#clip580)" d="M175.932 828.593 Q172.998 828.593 171.512 831.489 Q170.045 834.367 170.045 840.16 Q170.045 845.934 171.512 848.83 Q172.998 851.708 175.932 851.708 Q178.885 851.708 180.352 848.83 Q181.838 845.934 181.838 840.16 Q181.838 834.367 180.352 831.489 Q178.885 828.593 175.932 828.593 M175.932 825.584 Q180.653 825.584 183.136 829.327 Q185.637 833.05 185.637 840.16 Q185.637 847.25 183.136 850.993 Q180.653 854.717 175.932 854.717 Q171.212 854.717 168.71 850.993 Q166.227 847.25 166.227 840.16 Q166.227 833.05 168.71 829.327 Q171.212 825.584 175.932 825.584 Z" fill="#000000" fill-rule="nonzero" fill-opacity="1" /><path clip-path="url(#clip580)" d="M115.853 258.293 L123.492 258.293 L123.492 231.928 L115.182 233.594 L115.182 229.335 L123.446 227.669 L128.121 227.669 L128.121 258.293 L135.76 258.293 L135.76 262.229 L115.853 262.229 L115.853 258.293 Z" fill="#000000" fill-rule="nonzero" fill-opacity="1" /><path clip-path="url(#clip580)" d="M155.205 230.747 Q151.594 230.747 149.765 234.312 Q147.959 237.854 147.959 244.983 Q147.959 252.09 149.765 255.655 Q151.594 259.196 155.205 259.196 Q158.839 259.196 160.644 255.655 Q162.473 252.09 162.473 244.983 Q162.473 237.854 160.644 234.312 Q158.839 230.747 155.205 230.747 M155.205 227.044 Q161.015 227.044 164.07 231.65 Q167.149 236.233 167.149 244.983 Q167.149 253.71 164.07 258.317 Q161.015 262.9 155.205 262.9 Q149.395 262.9 146.316 258.317 Q143.26 253.71 143.26 244.983 Q143.26 236.233 146.316 231.65 Q149.395 227.044 155.205 227.044 Z" fill="#000000" fill-rule="nonzero" fill-opacity="1" /><path clip-path="url(#clip580)" d="M179.844 219.678 Q182.571 220.261 184.095 222.104 Q185.637 223.947 185.637 226.656 Q185.637 230.812 182.778 233.088 Q179.92 235.364 174.653 235.364 Q172.885 235.364 171.005 235.006 Q169.143 234.668 167.149 233.972 L167.149 230.304 Q168.729 231.226 170.61 231.696 Q172.49 232.166 174.541 232.166 Q178.114 232.166 179.976 230.756 Q181.857 229.345 181.857 226.656 Q181.857 224.173 180.108 222.781 Q178.377 221.371 175.274 221.371 L172.001 221.371 L172.001 218.248 L175.424 218.248 Q178.227 218.248 179.713 217.139 Q181.198 216.01 181.198 213.904 Q181.198 211.741 179.656 210.594 Q178.133 209.428 175.274 209.428 Q173.713 209.428 171.926 209.766 Q170.139 210.105 167.995 210.819 L167.995 207.434 Q170.158 206.832 172.039 206.531 Q173.939 206.23 175.613 206.23 Q179.938 206.23 182.459 208.205 Q184.979 210.161 184.979 213.509 Q184.979 215.841 183.643 217.459 Q182.308 219.057 179.844 219.678 Z" fill="#000000" fill-rule="nonzero" fill-opacity="1" /><path clip-path="url(#clip580)" d="M18.0438 1032.09 L24.314 1032.09 Q22.5634 1035.75 21.704 1039 Q20.8447 1042.25 20.8447 1045.27 Q20.8447 1050.52 22.8817 1053.39 Q24.9187 1056.22 28.6745 1056.22 Q31.8255 1056.22 33.4488 1054.34 Q35.0402 1052.43 36.0269 1047.15 L36.8226 1043.27 Q38.1912 1036.07 41.6605 1032.67 Q45.098 1029.23 50.8908 1029.23 Q57.7976 1029.23 61.3624 1033.88 Q64.9272 1038.49 64.9272 1047.43 Q64.9272 1050.81 64.1633 1054.63 Q63.3994 1058.42 61.9035 1062.49 L55.2831 1062.49 Q57.4793 1058.57 58.5933 1054.82 Q59.7073 1051.06 59.7073 1047.43 Q59.7073 1041.93 57.543 1038.94 Q55.3786 1035.94 51.3682 1035.94 Q47.8671 1035.94 45.8937 1038.11 Q43.9204 1040.24 42.9337 1045.14 L42.1698 1049.06 Q40.7375 1056.25 37.682 1059.47 Q34.6264 1062.68 29.1837 1062.68 Q22.8817 1062.68 19.2532 1058.26 Q15.6248 1053.8 15.6248 1046 Q15.6248 1042.66 16.2295 1039.19 Q16.8343 1035.72 18.0438 1032.09 Z" fill="#000000" fill-rule="nonzero" fill-opacity="1" /><path clip-path="url(#clip580)" d="M58.657 1013.79 L77.5631 1013.79 L77.5631 1019.68 L28.3562 1019.68 L28.3562 1013.79 L33.7671 1013.79 Q30.5842 1011.95 29.0564 1009.14 Q27.4968 1006.31 27.4968 1002.4 Q27.4968 995.904 32.6531 991.862 Q37.8093 987.788 46.212 987.788 Q54.6147 987.788 59.771 991.862 Q64.9272 995.904 64.9272 1002.4 Q64.9272 1006.31 63.3994 1009.14 Q61.8398 1011.95 58.657 1013.79 M46.212 993.867 Q39.7508 993.867 36.0905 996.541 Q32.3984 999.183 32.3984 1003.83 Q32.3984 1008.48 36.0905 1011.15 Q39.7508 1013.79 46.212 1013.79 Q52.6732 1013.79 56.3653 1011.15 Q60.0256 1008.48 60.0256 1003.83 Q60.0256 999.183 56.3653 996.541 Q52.6732 993.867 46.212 993.867 Z" fill="#000000" fill-rule="nonzero" fill-opacity="1" /><path clip-path="url(#clip580)" d="M44.7161 947.589 L47.5806 947.589 L47.5806 974.515 Q53.6281 974.134 56.8109 970.887 Q59.9619 967.609 59.9619 961.784 Q59.9619 958.41 59.1344 955.259 Q58.3069 952.076 56.6518 948.957 L62.1899 948.957 Q63.5267 952.108 64.227 955.418 Q64.9272 958.728 64.9272 962.134 Q64.9272 970.664 59.9619 975.661 Q54.9967 980.627 46.5303 980.627 Q37.7774 980.627 32.6531 975.916 Q27.4968 971.173 27.4968 963.153 Q27.4968 955.959 32.1438 951.79 Q36.7589 947.589 44.7161 947.589 M42.9973 953.445 Q38.1912 953.509 35.3266 956.15 Q32.4621 958.76 32.4621 963.089 Q32.4621 967.991 35.2312 970.951 Q38.0002 973.879 43.0292 974.324 L42.9973 953.445 Z" fill="#000000" fill-rule="nonzero" fill-opacity="1" /><path clip-path="url(#clip580)" d="M44.7161 907.485 L47.5806 907.485 L47.5806 934.411 Q53.6281 934.03 56.8109 930.783 Q59.9619 927.505 59.9619 921.68 Q59.9619 918.306 59.1344 915.155 Q58.3069 911.972 56.6518 908.853 L62.1899 908.853 Q63.5267 912.004 64.227 915.314 Q64.9272 918.625 64.9272 922.03 Q64.9272 930.56 59.9619 935.557 Q54.9967 940.523 46.5303 940.523 Q37.7774 940.523 32.6531 935.812 Q27.4968 931.07 27.4968 923.049 Q27.4968 915.855 32.1438 911.686 Q36.7589 907.485 44.7161 907.485 M42.9973 913.341 Q38.1912 913.405 35.3266 916.046 Q32.4621 918.656 32.4621 922.985 Q32.4621 927.887 35.2312 930.847 Q38.0002 933.775 43.0292 934.221 L42.9973 913.341 Z" fill="#000000" fill-rule="nonzero" fill-opacity="1" /><path clip-path="url(#clip580)" d="M33.7671 874.415 L14.479 874.415 L14.479 868.558 L64.0042 868.558 L64.0042 874.415 L58.657 874.415 Q61.8398 876.261 63.3994 879.094 Q64.9272 881.894 64.9272 885.841 Q64.9272 892.302 59.771 896.376 Q54.6147 900.419 46.212 900.419 Q37.8093 900.419 32.6531 896.376 Q27.4968 892.302 27.4968 885.841 Q27.4968 881.894 29.0564 879.094 Q30.5842 876.261 33.7671 874.415 M46.212 894.371 Q52.6732 894.371 56.3653 891.729 Q60.0256 889.056 60.0256 884.409 Q60.0256 879.762 56.3653 877.088 Q52.6732 874.415 46.212 874.415 Q39.7508 874.415 36.0905 877.088 Q32.3984 879.762 32.3984 884.409 Q32.3984 889.056 36.0905 891.729 Q39.7508 894.371 46.212 894.371 Z" fill="#000000" fill-rule="nonzero" fill-opacity="1" /><path clip-path="url(#clip580)" d="M49.9359 857.1 L28.3562 857.1 L28.3562 851.244 L49.7131 851.244 Q54.7739 851.244 57.3202 849.27 Q59.8346 847.297 59.8346 843.35 Q59.8346 838.608 56.8109 835.87 Q53.7872 833.101 48.5673 833.101 L28.3562 833.101 L28.3562 827.245 L64.0042 827.245 L64.0042 833.101 L58.5296 833.101 Q61.7762 835.234 63.3676 838.067 Q64.9272 840.867 64.9272 844.591 Q64.9272 850.734 61.1078 853.917 Q57.2883 857.1 49.9359 857.1 M27.4968 842.363 L27.4968 842.363 Z" fill="#000000" fill-rule="nonzero" fill-opacity="1" /><path clip-path="url(#clip580)" d="M58.657 809.516 L77.5631 809.516 L77.5631 815.405 L28.3562 815.405 L28.3562 809.516 L33.7671 809.516 Q30.5842 807.67 29.0564 804.869 Q27.4968 802.037 27.4968 798.122 Q27.4968 791.629 32.6531 787.586 Q37.8093 783.512 46.212 783.512 Q54.6147 783.512 59.771 787.586 Q64.9272 791.629 64.9272 798.122 Q64.9272 802.037 63.3994 804.869 Q61.8398 807.67 58.657 809.516 M46.212 789.592 Q39.7508 789.592 36.0905 792.265 Q32.3984 794.907 32.3984 799.554 Q32.3984 804.201 36.0905 806.875 Q39.7508 809.516 46.212 809.516 Q52.6732 809.516 56.3653 806.875 Q60.0256 804.201 60.0256 799.554 Q60.0256 794.907 56.3653 792.265 Q52.6732 789.592 46.212 789.592 Z" fill="#000000" fill-rule="nonzero" fill-opacity="1" /><path clip-path="url(#clip580)" d="M28.3562 757.286 L28.3562 751.079 L58.275 739.939 L28.3562 728.799 L28.3562 722.593 L64.0042 735.961 L64.0042 743.918 L28.3562 757.286 Z" fill="#000000" fill-rule="nonzero" fill-opacity="1" /><path clip-path="url(#clip580)" d="M29.4065 691.783 L34.9447 691.783 Q33.6716 694.265 33.035 696.939 Q32.3984 699.612 32.3984 702.477 Q32.3984 706.837 33.7352 709.034 Q35.072 711.198 37.7456 711.198 Q39.7826 711.198 40.9603 709.638 Q42.1061 708.079 43.1565 703.368 L43.6021 701.363 Q44.9389 695.125 47.3897 692.515 Q49.8086 689.873 54.1691 689.873 Q59.1344 689.873 62.0308 693.82 Q64.9272 697.735 64.9272 704.609 Q64.9272 707.474 64.3543 710.593 Q63.8132 713.681 62.6992 717.118 L56.6518 717.118 Q58.3387 713.872 59.198 710.721 Q60.0256 707.57 60.0256 704.482 Q60.0256 700.344 58.6251 698.116 Q57.1929 695.888 54.6147 695.888 Q52.2276 695.888 50.9545 697.512 Q49.6813 699.103 48.5037 704.546 L48.0262 706.583 Q46.8804 712.026 44.5251 714.445 Q42.138 716.863 38.0002 716.863 Q32.9713 716.863 30.2341 713.299 Q27.4968 709.734 27.4968 703.177 Q27.4968 699.931 27.9743 697.066 Q28.4517 694.202 29.4065 691.783 Z" fill="#000000" fill-rule="nonzero" fill-opacity="1" /><path clip-path="url(#clip580)" d="M55.9197 679.72 L55.9197 673.004 L64.0042 673.004 L64.0042 679.72 L55.9197 679.72 Z" fill="#000000" fill-rule="nonzero" fill-opacity="1" /><path clip-path="url(#clip580)" d="M16.4842 638.852 L16.4842 629.271 L48.8219 617.145 L16.4842 604.954 L16.4842 595.374 L64.0042 595.374 L64.0042 601.644 L22.277 601.644 L54.8694 613.898 L54.8694 620.359 L22.277 632.613 L64.0042 632.613 L64.0042 638.852 L16.4842 638.852 Z" fill="#000000" fill-rule="nonzero" fill-opacity="1" /><path clip-path="url(#clip580)" d="M46.0847 566.665 Q46.0847 573.762 47.7079 576.5 Q49.3312 579.237 53.2461 579.237 Q56.3653 579.237 58.2114 577.2 Q60.0256 575.131 60.0256 571.598 Q60.0256 566.728 56.5881 563.8 Q53.1188 560.84 47.3897 560.84 L46.0847 560.84 L46.0847 566.665 M43.6657 554.984 L64.0042 554.984 L64.0042 560.84 L58.5933 560.84 Q61.8398 562.845 63.3994 565.837 Q64.9272 568.829 64.9272 573.158 Q64.9272 578.632 61.8716 581.879 Q58.7843 585.093 53.6281 585.093 Q47.6125 585.093 44.5569 581.083 Q41.5014 577.041 41.5014 569.052 L41.5014 560.84 L40.9285 560.84 Q36.8862 560.84 34.6901 563.514 Q32.4621 566.155 32.4621 570.961 Q32.4621 574.017 33.1941 576.913 Q33.9262 579.81 35.3903 582.483 L29.9795 582.483 Q28.7381 579.269 28.1334 576.245 Q27.4968 573.221 27.4968 570.357 Q27.4968 562.622 31.5072 558.803 Q35.5176 554.984 43.6657 554.984 Z" fill="#000000" fill-rule="nonzero" fill-opacity="1" /><path clip-path="url(#clip580)" d="M58.5933 536.555 L58.5933 514.116 L64.0042 514.116 L64.0042 544.289 L58.5933 544.289 Q54.8057 540.629 48.44 534.327 Q42.0425 527.993 40.1964 526.37 Q36.7271 523.282 34.34 522.073 Q31.921 520.832 29.5975 520.832 Q25.8099 520.832 23.4228 523.505 Q21.0356 526.147 21.0356 530.412 Q21.0356 533.436 22.086 536.809 Q23.1363 540.151 25.2688 543.971 L18.7758 543.971 Q17.2162 540.088 16.4205 536.714 Q15.6248 533.34 15.6248 530.539 Q15.6248 523.155 19.3169 518.763 Q23.009 514.37 29.1837 514.37 Q32.112 514.37 34.7537 515.484 Q37.3637 516.567 40.9285 519.463 Q41.8515 520.259 46.2757 524.524 Q50.668 528.789 58.5933 536.555 Z" fill="#000000" fill-rule="nonzero" fill-opacity="1" /><path clip-path="url(#clip580)" d="M16.4842 502.244 L16.4842 471.688 L19.2214 471.688 L64.0042 488.939 L64.0042 495.655 L21.895 479.423 L21.895 502.244 L16.4842 502.244 Z" fill="#000000" fill-rule="nonzero" fill-opacity="1" /><path clip-path="url(#clip580)" d="M653.473 14.0809 L653.473 22.0612 Q648.815 19.8332 644.683 18.7395 Q640.551 17.6457 636.702 17.6457 Q630.018 17.6457 626.372 20.2383 Q622.767 22.8309 622.767 27.611 Q622.767 31.6214 625.157 33.6873 Q627.588 35.7128 634.312 36.9686 L639.254 37.9813 Q648.409 39.7232 652.744 44.1387 Q657.119 48.5136 657.119 55.8863 Q657.119 64.6767 651.205 69.2137 Q645.331 73.7508 633.948 73.7508 Q629.654 73.7508 624.793 72.7785 Q619.972 71.8063 614.787 69.9024 L614.787 61.4765 Q619.77 64.2716 624.55 65.6895 Q629.33 67.1073 633.948 67.1073 Q640.956 67.1073 644.764 64.3527 Q648.571 61.598 648.571 56.4939 Q648.571 52.0379 645.817 49.5264 Q643.103 47.0148 636.864 45.759 L631.882 44.7868 Q622.727 42.9639 618.635 39.075 Q614.544 35.1862 614.544 28.2591 Q614.544 20.2383 620.175 15.6203 Q625.846 11.0023 635.771 11.0023 Q640.024 11.0023 644.44 11.7719 Q648.855 12.5416 653.473 14.0809 Z" fill="#000000" fill-rule="nonzero" fill-opacity="1" /><path clip-path="url(#clip580)" d="M676.766 65.7705 L676.766 89.8329 L669.272 89.8329 L669.272 27.2059 L676.766 27.2059 L676.766 34.0924 Q679.115 30.0415 682.68 28.0971 Q686.285 26.1121 691.268 26.1121 Q699.532 26.1121 704.676 32.6746 Q709.862 39.2371 709.862 49.9314 Q709.862 60.6258 704.676 67.1883 Q699.532 73.7508 691.268 73.7508 Q686.285 73.7508 682.68 71.8063 Q679.115 69.8214 676.766 65.7705 M702.124 49.9314 Q702.124 41.7081 698.722 37.0496 Q695.359 32.3505 689.445 32.3505 Q683.531 32.3505 680.128 37.0496 Q676.766 41.7081 676.766 49.9314 Q676.766 58.1548 680.128 62.8538 Q683.531 67.5124 689.445 67.5124 Q695.359 67.5124 698.722 62.8538 Q702.124 58.1548 702.124 49.9314 Z" fill="#000000" fill-rule="nonzero" fill-opacity="1" /><path clip-path="url(#clip580)" d="M761.025 48.0275 L761.025 51.6733 L726.754 51.6733 Q727.24 59.3701 731.372 63.421 Q735.544 67.4314 742.958 67.4314 Q747.251 67.4314 751.262 66.3781 Q755.313 65.3249 759.283 63.2184 L759.283 70.267 Q755.272 71.9684 751.059 72.8596 Q746.846 73.7508 742.512 73.7508 Q731.655 73.7508 725.296 67.4314 Q718.976 61.1119 718.976 50.3365 Q718.976 39.1965 724.972 32.6746 Q731.007 26.1121 741.216 26.1121 Q750.371 26.1121 755.677 32.0264 Q761.025 37.9003 761.025 48.0275 M753.571 45.84 Q753.49 39.7232 750.128 36.0774 Q746.806 32.4315 741.297 32.4315 Q735.058 32.4315 731.291 35.9558 Q727.564 39.4801 726.997 45.8805 L753.571 45.84 Z" fill="#000000" fill-rule="nonzero" fill-opacity="1" /><path clip-path="url(#clip580)" d="M812.066 48.0275 L812.066 51.6733 L777.795 51.6733 Q778.281 59.3701 782.413 63.421 Q786.586 67.4314 793.999 67.4314 Q798.293 67.4314 802.303 66.3781 Q806.354 65.3249 810.324 63.2184 L810.324 70.267 Q806.314 71.9684 802.101 72.8596 Q797.888 73.7508 793.553 73.7508 Q782.697 73.7508 776.337 67.4314 Q770.018 61.1119 770.018 50.3365 Q770.018 39.1965 776.013 32.6746 Q782.049 26.1121 792.257 26.1121 Q801.412 26.1121 806.719 32.0264 Q812.066 37.9003 812.066 48.0275 M804.612 45.84 Q804.531 39.7232 801.169 36.0774 Q797.847 32.4315 792.338 32.4315 Q786.1 32.4315 782.332 35.9558 Q778.605 39.4801 778.038 45.8805 L804.612 45.84 Z" fill="#000000" fill-rule="nonzero" fill-opacity="1" /><path clip-path="url(#clip580)" d="M854.155 34.0924 L854.155 9.54393 L861.609 9.54393 L861.609 72.576 L854.155 72.576 L854.155 65.7705 Q851.805 69.8214 848.2 71.8063 Q844.635 73.7508 839.612 73.7508 Q831.389 73.7508 826.204 67.1883 Q821.059 60.6258 821.059 49.9314 Q821.059 39.2371 826.204 32.6746 Q831.389 26.1121 839.612 26.1121 Q844.635 26.1121 848.2 28.0971 Q851.805 30.0415 854.155 34.0924 M828.756 49.9314 Q828.756 58.1548 832.118 62.8538 Q835.521 67.5124 841.435 67.5124 Q847.349 67.5124 850.752 62.8538 Q854.155 58.1548 854.155 49.9314 Q854.155 41.7081 850.752 37.0496 Q847.349 32.3505 841.435 32.3505 Q835.521 32.3505 832.118 37.0496 Q828.756 41.7081 828.756 49.9314 Z" fill="#000000" fill-rule="nonzero" fill-opacity="1" /><path clip-path="url(#clip580)" d="M876.192 54.671 L876.192 27.2059 L883.645 27.2059 L883.645 54.3874 Q883.645 60.8284 886.157 64.0691 Q888.669 67.2693 893.692 67.2693 Q899.728 67.2693 903.211 63.421 Q906.736 59.5726 906.736 52.9291 L906.736 27.2059 L914.189 27.2059 L914.189 72.576 L906.736 72.576 L906.736 65.6084 Q904.021 69.7404 900.416 71.7658 Q896.851 73.7508 892.112 73.7508 Q884.294 73.7508 880.243 68.8897 Q876.192 64.0286 876.192 54.671 M894.947 26.1121 L894.947 26.1121 Z" fill="#000000" fill-rule="nonzero" fill-opacity="1" /><path clip-path="url(#clip580)" d="M936.753 65.7705 L936.753 89.8329 L929.259 89.8329 L929.259 27.2059 L936.753 27.2059 L936.753 34.0924 Q939.102 30.0415 942.667 28.0971 Q946.272 26.1121 951.255 26.1121 Q959.519 26.1121 964.664 32.6746 Q969.849 39.2371 969.849 49.9314 Q969.849 60.6258 964.664 67.1883 Q959.519 73.7508 951.255 73.7508 Q946.272 73.7508 942.667 71.8063 Q939.102 69.8214 936.753 65.7705 M962.111 49.9314 Q962.111 41.7081 958.709 37.0496 Q955.346 32.3505 949.432 32.3505 Q943.518 32.3505 940.115 37.0496 Q936.753 41.7081 936.753 49.9314 Q936.753 58.1548 940.115 62.8538 Q943.518 67.5124 949.432 67.5124 Q955.346 67.5124 958.709 62.8538 Q962.111 58.1548 962.111 49.9314 Z" fill="#000000" fill-rule="nonzero" fill-opacity="1" /><path clip-path="url(#clip580)" d="M1003.23 27.2059 L1011.13 27.2059 L1025.31 65.2844 L1039.48 27.2059 L1047.38 27.2059 L1030.37 72.576 L1020.24 72.576 L1003.23 27.2059 Z" fill="#000000" fill-rule="nonzero" fill-opacity="1" /><path clip-path="url(#clip580)" d="M1086.6 28.5427 L1086.6 35.5912 Q1083.44 33.9709 1080.03 33.1607 Q1076.63 32.3505 1072.98 32.3505 Q1067.43 32.3505 1064.64 34.0519 Q1061.89 35.7533 1061.89 39.156 Q1061.89 41.7486 1063.87 43.2475 Q1065.86 44.7058 1071.85 46.0426 L1074.4 46.6097 Q1082.34 48.3111 1085.66 51.4303 Q1089.03 54.509 1089.03 60.0587 Q1089.03 66.3781 1084 70.0644 Q1079.02 73.7508 1070.27 73.7508 Q1066.62 73.7508 1062.65 73.0216 Q1058.73 72.3329 1054.35 70.9151 L1054.35 63.2184 Q1058.48 65.3654 1062.49 66.4591 Q1066.5 67.5124 1070.43 67.5124 Q1075.7 67.5124 1078.53 65.73 Q1081.37 63.9071 1081.37 60.6258 Q1081.37 57.5877 1079.3 55.9673 Q1077.28 54.3469 1070.35 52.8481 L1067.76 52.2405 Q1060.83 50.7821 1057.75 47.7845 Q1054.67 44.7463 1054.67 39.4801 Q1054.67 33.0797 1059.21 29.5959 Q1063.75 26.1121 1072.09 26.1121 Q1076.23 26.1121 1079.87 26.7198 Q1083.52 27.3274 1086.6 28.5427 Z" fill="#000000" fill-rule="nonzero" fill-opacity="1" /><path clip-path="url(#clip580)" d="M1101.95 62.2867 L1110.5 62.2867 L1110.5 72.576 L1101.95 72.576 L1101.95 62.2867 Z" fill="#000000" fill-rule="nonzero" fill-opacity="1" /><path clip-path="url(#clip580)" d="M1162.15 18.8205 L1162.15 41.5461 L1172.43 41.5461 Q1178.15 41.5461 1181.27 38.5889 Q1184.38 35.6318 1184.38 30.163 Q1184.38 24.7348 1181.27 21.7777 Q1178.15 18.8205 1172.43 18.8205 L1162.15 18.8205 M1153.96 12.096 L1172.43 12.096 Q1182.6 12.096 1187.79 16.714 Q1193.01 21.2916 1193.01 30.163 Q1193.01 39.1155 1187.79 43.6931 Q1182.6 48.2706 1172.43 48.2706 L1162.15 48.2706 L1162.15 72.576 L1153.96 72.576 L1153.96 12.096 Z" fill="#000000" fill-rule="nonzero" fill-opacity="1" /><path clip-path="url(#clip580)" d="M1228.5 34.1734 Q1227.24 33.4443 1225.74 33.1202 Q1224.29 32.7556 1222.5 32.7556 Q1216.18 32.7556 1212.78 36.8875 Q1209.42 40.9789 1209.42 48.6757 L1209.42 72.576 L1201.92 72.576 L1201.92 27.2059 L1209.42 27.2059 L1209.42 34.2544 Q1211.77 30.1225 1215.54 28.1376 Q1219.3 26.1121 1224.69 26.1121 Q1225.46 26.1121 1226.39 26.2337 Q1227.32 26.3147 1228.46 26.5172 L1228.5 34.1734 Z" fill="#000000" fill-rule="nonzero" fill-opacity="1" /><path clip-path="url(#clip580)" d="M1252.08 32.4315 Q1246.08 32.4315 1242.6 37.1306 Q1239.11 41.7891 1239.11 49.9314 Q1239.11 58.0738 1242.56 62.7728 Q1246.04 67.4314 1252.08 67.4314 Q1258.03 67.4314 1261.51 62.7323 Q1265 58.0333 1265 49.9314 Q1265 41.8701 1261.51 37.1711 Q1258.03 32.4315 1252.08 32.4315 M1252.08 26.1121 Q1261.8 26.1121 1267.35 32.4315 Q1272.9 38.7509 1272.9 49.9314 Q1272.9 61.0714 1267.35 67.4314 Q1261.8 73.7508 1252.08 73.7508 Q1242.31 73.7508 1236.76 67.4314 Q1231.25 61.0714 1231.25 49.9314 Q1231.25 38.7509 1236.76 32.4315 Q1242.31 26.1121 1252.08 26.1121 Z" fill="#000000" fill-rule="nonzero" fill-opacity="1" /><path clip-path="url(#clip580)" d="M1317.82 49.9314 Q1317.82 41.7081 1314.42 37.0496 Q1311.06 32.3505 1305.14 32.3505 Q1299.23 32.3505 1295.82 37.0496 Q1292.46 41.7081 1292.46 49.9314 Q1292.46 58.1548 1295.82 62.8538 Q1299.23 67.5124 1305.14 67.5124 Q1311.06 67.5124 1314.42 62.8538 Q1317.82 58.1548 1317.82 49.9314 M1292.46 34.0924 Q1294.81 30.0415 1298.38 28.0971 Q1301.98 26.1121 1306.96 26.1121 Q1315.23 26.1121 1320.37 32.6746 Q1325.56 39.2371 1325.56 49.9314 Q1325.56 60.6258 1320.37 67.1883 Q1315.23 73.7508 1306.96 73.7508 Q1301.98 73.7508 1298.38 71.8063 Q1294.81 69.8214 1292.46 65.7705 L1292.46 72.576 L1284.97 72.576 L1284.97 9.54393 L1292.46 9.54393 L1292.46 34.0924 Z" fill="#000000" fill-rule="nonzero" fill-opacity="1" /><path clip-path="url(#clip580)" d="M1337.91 9.54393 L1345.37 9.54393 L1345.37 72.576 L1337.91 72.576 L1337.91 9.54393 Z" fill="#000000" fill-rule="nonzero" fill-opacity="1" /><path clip-path="url(#clip580)" d="M1399.77 48.0275 L1399.77 51.6733 L1365.5 51.6733 Q1365.99 59.3701 1370.12 63.421 Q1374.29 67.4314 1381.7 67.4314 Q1386 67.4314 1390.01 66.3781 Q1394.06 65.3249 1398.03 63.2184 L1398.03 70.267 Q1394.02 71.9684 1389.81 72.8596 Q1385.59 73.7508 1381.26 73.7508 Q1370.4 73.7508 1364.04 67.4314 Q1357.72 61.1119 1357.72 50.3365 Q1357.72 39.1965 1363.72 32.6746 Q1369.75 26.1121 1379.96 26.1121 Q1389.12 26.1121 1394.42 32.0264 Q1399.77 37.9003 1399.77 48.0275 M1392.32 45.84 Q1392.24 39.7232 1388.87 36.0774 Q1385.55 32.4315 1380.04 32.4315 Q1373.8 32.4315 1370.04 35.9558 Q1366.31 39.4801 1365.74 45.8805 L1392.32 45.84 Z" fill="#000000" fill-rule="nonzero" fill-opacity="1" /><path clip-path="url(#clip580)" d="M1447.33 35.9153 Q1450.12 30.8922 1454.01 28.5022 Q1457.9 26.1121 1463.17 26.1121 Q1470.26 26.1121 1474.11 31.0947 Q1477.95 36.0368 1477.95 45.1919 L1477.95 72.576 L1470.46 72.576 L1470.46 45.4349 Q1470.46 38.913 1468.15 35.7533 Q1465.84 32.5936 1461.1 32.5936 Q1455.31 32.5936 1451.95 36.4419 Q1448.58 40.2903 1448.58 46.9338 L1448.58 72.576 L1441.09 72.576 L1441.09 45.4349 Q1441.09 38.8725 1438.78 35.7533 Q1436.47 32.5936 1431.65 32.5936 Q1425.94 32.5936 1422.58 36.4824 Q1419.22 40.3308 1419.22 46.9338 L1419.22 72.576 L1411.72 72.576 L1411.72 27.2059 L1419.22 27.2059 L1419.22 34.2544 Q1421.77 30.082 1425.33 28.0971 Q1428.9 26.1121 1433.8 26.1121 Q1438.74 26.1121 1442.18 28.6237 Q1445.67 31.1352 1447.33 35.9153 Z" fill="#000000" fill-rule="nonzero" fill-opacity="1" /><path clip-path="url(#clip580)" d="M1555.77 14.0809 L1555.77 22.0612 Q1551.11 19.8332 1546.98 18.7395 Q1542.85 17.6457 1539 17.6457 Q1532.32 17.6457 1528.67 20.2383 Q1525.07 22.8309 1525.07 27.611 Q1525.07 31.6214 1527.46 33.6873 Q1529.89 35.7128 1536.61 36.9686 L1541.55 37.9813 Q1550.71 39.7232 1555.04 44.1387 Q1559.42 48.5136 1559.42 55.8863 Q1559.42 64.6767 1553.5 69.2137 Q1547.63 73.7508 1536.25 73.7508 Q1531.95 73.7508 1527.09 72.7785 Q1522.27 71.8063 1517.09 69.9024 L1517.09 61.4765 Q1522.07 64.2716 1526.85 65.6895 Q1531.63 67.1073 1536.25 67.1073 Q1543.25 67.1073 1547.06 64.3527 Q1550.87 61.598 1550.87 56.4939 Q1550.87 52.0379 1548.12 49.5264 Q1545.4 47.0148 1539.16 45.759 L1534.18 44.7868 Q1525.03 42.9639 1520.93 39.075 Q1516.84 35.1862 1516.84 28.2591 Q1516.84 20.2383 1522.47 15.6203 Q1528.14 11.0023 1538.07 11.0023 Q1542.32 11.0023 1546.74 11.7719 Q1551.15 12.5416 1555.77 14.0809 Z" fill="#000000" fill-rule="nonzero" fill-opacity="1" /><path clip-path="url(#clip580)" d="M1571.85 27.2059 L1579.31 27.2059 L1579.31 72.576 L1571.85 72.576 L1571.85 27.2059 M1571.85 9.54393 L1579.31 9.54393 L1579.31 18.9825 L1571.85 18.9825 L1571.85 9.54393 Z" fill="#000000" fill-rule="nonzero" fill-opacity="1" /><path clip-path="url(#clip580)" d="M1591.66 27.2059 L1627.07 27.2059 L1627.07 34.0114 L1599.04 66.6212 L1627.07 66.6212 L1627.07 72.576 L1590.65 72.576 L1590.65 65.7705 L1618.68 33.1607 L1591.66 33.1607 L1591.66 27.2059 Z" fill="#000000" fill-rule="nonzero" fill-opacity="1" /><path clip-path="url(#clip580)" d="M1677.26 48.0275 L1677.26 51.6733 L1642.99 51.6733 Q1643.47 59.3701 1647.61 63.421 Q1651.78 67.4314 1659.19 67.4314 Q1663.48 67.4314 1667.5 66.3781 Q1671.55 65.3249 1675.52 63.2184 L1675.52 70.267 Q1671.51 71.9684 1667.29 72.8596 Q1663.08 73.7508 1658.75 73.7508 Q1647.89 73.7508 1641.53 67.4314 Q1635.21 61.1119 1635.21 50.3365 Q1635.21 39.1965 1641.21 32.6746 Q1647.24 26.1121 1657.45 26.1121 Q1666.6 26.1121 1671.91 32.0264 Q1677.26 37.9003 1677.26 48.0275 M1669.8 45.84 Q1669.72 39.7232 1666.36 36.0774 Q1663.04 32.4315 1657.53 32.4315 Q1651.29 32.4315 1647.52 35.9558 Q1643.8 39.4801 1643.23 45.8805 L1669.8 45.84 Z" fill="#000000" fill-rule="nonzero" fill-opacity="1" /><path clip-path="url(#clip580)" d="M1733.77 9.62495 Q1728.34 18.942 1725.71 28.0566 Q1723.07 37.1711 1723.07 46.5287 Q1723.07 55.8863 1725.71 65.0818 Q1728.38 74.2369 1733.77 83.5134 L1727.29 83.5134 Q1721.21 73.9938 1718.17 64.7983 Q1715.17 55.6027 1715.17 46.5287 Q1715.17 37.4952 1718.17 28.3401 Q1721.17 19.1851 1727.29 9.62495 L1733.77 9.62495 Z" fill="#000000" fill-rule="nonzero" fill-opacity="1" /><path clip-path="url(#clip580)" d="M1787.04 48.0275 L1787.04 51.6733 L1752.77 51.6733 Q1753.25 59.3701 1757.38 63.421 Q1761.56 67.4314 1768.97 67.4314 Q1773.26 67.4314 1777.27 66.3781 Q1781.33 65.3249 1785.3 63.2184 L1785.3 70.267 Q1781.29 71.9684 1777.07 72.8596 Q1772.86 73.7508 1768.52 73.7508 Q1757.67 73.7508 1751.31 67.4314 Q1744.99 61.1119 1744.99 50.3365 Q1744.99 39.1965 1750.98 32.6746 Q1757.02 26.1121 1767.23 26.1121 Q1776.38 26.1121 1781.69 32.0264 Q1787.04 37.9003 1787.04 48.0275 M1779.58 45.84 Q1779.5 39.7232 1776.14 36.0774 Q1772.82 32.4315 1767.31 32.4315 Q1761.07 32.4315 1757.3 35.9558 Q1753.58 39.4801 1753.01 45.8805 L1779.58 45.84 Z" fill="#000000" fill-rule="nonzero" fill-opacity="1" /><path clip-path="url(#clip580)" d="M1819.89 49.7694 Q1810.86 49.7694 1807.37 51.8354 Q1803.89 53.9013 1803.89 58.8839 Q1803.89 62.8538 1806.48 65.2034 Q1809.11 67.5124 1813.61 67.5124 Q1819.81 67.5124 1823.54 63.1374 Q1827.3 58.7219 1827.3 51.4303 L1827.3 49.7694 L1819.89 49.7694 M1834.76 46.6907 L1834.76 72.576 L1827.3 72.576 L1827.3 65.6895 Q1824.75 69.8214 1820.94 71.8063 Q1817.14 73.7508 1811.63 73.7508 Q1804.66 73.7508 1800.53 69.8619 Q1796.44 65.9325 1796.44 59.3701 Q1796.44 51.7138 1801.54 47.825 Q1806.68 43.9361 1816.85 43.9361 L1827.3 43.9361 L1827.3 43.2069 Q1827.3 38.0623 1823.9 35.2672 Q1820.54 32.4315 1814.42 32.4315 Q1810.53 32.4315 1806.85 33.3632 Q1803.16 34.295 1799.76 36.1584 L1799.76 29.2718 Q1803.85 27.692 1807.7 26.9223 Q1811.55 26.1121 1815.19 26.1121 Q1825.04 26.1121 1829.9 31.2163 Q1834.76 36.3204 1834.76 46.6907 Z" fill="#000000" fill-rule="nonzero" fill-opacity="1" /><path clip-path="url(#clip580)" d="M1879.03 28.5427 L1879.03 35.5912 Q1875.87 33.9709 1872.47 33.1607 Q1869.07 32.3505 1865.42 32.3505 Q1859.87 32.3505 1857.08 34.0519 Q1854.32 35.7533 1854.32 39.156 Q1854.32 41.7486 1856.31 43.2475 Q1858.29 44.7058 1864.29 46.0426 L1866.84 46.6097 Q1874.78 48.3111 1878.1 51.4303 Q1881.46 54.509 1881.46 60.0587 Q1881.46 66.3781 1876.44 70.0644 Q1871.46 73.7508 1862.71 73.7508 Q1859.06 73.7508 1855.09 73.0216 Q1851.16 72.3329 1846.79 70.9151 L1846.79 63.2184 Q1850.92 65.3654 1854.93 66.4591 Q1858.94 67.5124 1862.87 67.5124 Q1868.14 67.5124 1870.97 65.73 Q1873.81 63.9071 1873.81 60.6258 Q1873.81 57.5877 1871.74 55.9673 Q1869.72 54.3469 1862.79 52.8481 L1860.2 52.2405 Q1853.27 50.7821 1850.19 47.7845 Q1847.11 44.7463 1847.11 39.4801 Q1847.11 33.0797 1851.65 29.5959 Q1856.19 26.1121 1864.53 26.1121 Q1868.66 26.1121 1872.31 26.7198 Q1875.95 27.3274 1879.03 28.5427 Z" fill="#000000" fill-rule="nonzero" fill-opacity="1" /><path clip-path="url(#clip580)" d="M1912.21 76.7889 Q1909.05 84.8907 1906.05 87.3618 Q1903.06 89.8329 1898.03 89.8329 L1892.08 89.8329 L1892.08 83.5945 L1896.45 83.5945 Q1899.53 83.5945 1901.23 82.1361 Q1902.93 80.6778 1905 75.2496 L1906.34 71.8468 L1887.99 27.2059 L1895.89 27.2059 L1910.06 62.6918 L1924.24 27.2059 L1932.14 27.2059 L1912.21 76.7889 Z" fill="#000000" fill-rule="nonzero" fill-opacity="1" /><path clip-path="url(#clip580)" d="M1941.26 9.62495 L1947.74 9.62495 Q1953.81 19.1851 1956.81 28.3401 Q1959.85 37.4952 1959.85 46.5287 Q1959.85 55.6027 1956.81 64.7983 Q1953.81 73.9938 1947.74 83.5134 L1941.26 83.5134 Q1946.64 74.2369 1949.28 65.0818 Q1951.95 55.8863 1951.95 46.5287 Q1951.95 37.1711 1949.28 28.0566 Q1946.64 18.942 1941.26 9.62495 Z" fill="#000000" fill-rule="nonzero" fill-opacity="1" /><circle clip-path="url(#clip582)" cx="281.952" cy="877.862" r="14.4" fill="#009af9" fill-rule="evenodd" fill-opacity="1" stroke="#000000" stroke-opacity="1" stroke-width="3.2"/>
<circle clip-path="url(#clip582)" cx="605.123" cy="873.088" r="14.4" fill="#009af9" fill-rule="evenodd" fill-opacity="1" stroke="#000000" stroke-opacity="1" stroke-width="3.2"/>
<circle clip-path="url(#clip582)" cx="1131.09" cy="901.79" r="14.4" fill="#009af9" fill-rule="evenodd" fill-opacity="1" stroke="#000000" stroke-opacity="1" stroke-width="3.2"/>
<circle clip-path="url(#clip582)" cx="1564.45" cy="898.54" r="14.4" fill="#009af9" fill-rule="evenodd" fill-opacity="1" stroke="#000000" stroke-opacity="1" stroke-width="3.2"/>
<circle clip-path="url(#clip582)" cx="1595.6" cy="894.798" r="14.4" fill="#009af9" fill-rule="evenodd" fill-opacity="1" stroke="#000000" stroke-opacity="1" stroke-width="3.2"/>
<circle clip-path="url(#clip582)" cx="2292.44" cy="540.47" r="14.4" fill="#009af9" fill-rule="evenodd" fill-opacity="1" stroke="#000000" stroke-opacity="1" stroke-width="3.2"/>
<circle clip-path="url(#clip582)" cx="281.952" cy="908.194" r="14.4" fill="#e26f46" fill-rule="evenodd" fill-opacity="1" stroke="#000000" stroke-opacity="1" stroke-width="3.2"/>
<circle clip-path="url(#clip582)" cx="605.123" cy="946.968" r="14.4" fill="#e26f46" fill-rule="evenodd" fill-opacity="1" stroke="#000000" stroke-opacity="1" stroke-width="3.2"/>
<circle clip-path="url(#clip582)" cx="1131.09" cy="1098.07" r="14.4" fill="#e26f46" fill-rule="evenodd" fill-opacity="1" stroke="#000000" stroke-opacity="1" stroke-width="3.2"/>
<circle clip-path="url(#clip582)" cx="1564.45" cy="943.528" r="14.4" fill="#e26f46" fill-rule="evenodd" fill-opacity="1" stroke="#000000" stroke-opacity="1" stroke-width="3.2"/>
<circle clip-path="url(#clip582)" cx="1595.6" cy="922.738" r="14.4" fill="#e26f46" fill-rule="evenodd" fill-opacity="1" stroke="#000000" stroke-opacity="1" stroke-width="3.2"/>
<circle clip-path="url(#clip582)" cx="2292.44" cy="627.932" r="14.4" fill="#e26f46" fill-rule="evenodd" fill-opacity="1" stroke="#000000" stroke-opacity="1" stroke-width="3.2"/>
<circle clip-path="url(#clip582)" cx="281.952" cy="857.854" r="14.4" fill="#3da44d" fill-rule="evenodd" fill-opacity="1" stroke="#000000" stroke-opacity="1" stroke-width="3.2"/>
<circle clip-path="url(#clip582)" cx="605.123" cy="857.854" r="14.4" fill="#3da44d" fill-rule="evenodd" fill-opacity="1" stroke="#000000" stroke-opacity="1" stroke-width="3.2"/>
<circle clip-path="url(#clip582)" cx="1131.09" cy="857.854" r="14.4" fill="#3da44d" fill-rule="evenodd" fill-opacity="1" stroke="#000000" stroke-opacity="1" stroke-width="3.2"/>
<circle clip-path="url(#clip582)" cx="1564.45" cy="857.854" r="14.4" fill="#3da44d" fill-rule="evenodd" fill-opacity="1" stroke="#000000" stroke-opacity="1" stroke-width="3.2"/>
<circle clip-path="url(#clip582)" cx="1595.6" cy="857.854" r="14.4" fill="#3da44d" fill-rule="evenodd" fill-opacity="1" stroke="#000000" stroke-opacity="1" stroke-width="3.2"/>
<circle clip-path="url(#clip582)" cx="2292.44" cy="857.854" r="14.4" fill="#3da44d" fill-rule="evenodd" fill-opacity="1" stroke="#000000" stroke-opacity="1" stroke-width="3.2"/>
<circle clip-path="url(#clip582)" cx="281.952" cy="1095.04" r="14.4" fill="#c271d2" fill-rule="evenodd" fill-opacity="1" stroke="#000000" stroke-opacity="1" stroke-width="3.2"/>
<circle clip-path="url(#clip582)" cx="605.123" cy="1028.95" r="14.4" fill="#c271d2" fill-rule="evenodd" fill-opacity="1" stroke="#000000" stroke-opacity="1" stroke-width="3.2"/>
<circle clip-path="url(#clip582)" cx="1131.09" cy="1374.46" r="14.4" fill="#c271d2" fill-rule="evenodd" fill-opacity="1" stroke="#000000" stroke-opacity="1" stroke-width="3.2"/>
<circle clip-path="url(#clip582)" cx="1564.45" cy="1039.18" r="14.4" fill="#c271d2" fill-rule="evenodd" fill-opacity="1" stroke="#000000" stroke-opacity="1" stroke-width="3.2"/>
<circle clip-path="url(#clip582)" cx="1595.6" cy="745.041" r="14.4" fill="#c271d2" fill-rule="evenodd" fill-opacity="1" stroke="#000000" stroke-opacity="1" stroke-width="3.2"/>
<circle clip-path="url(#clip582)" cx="2292.44" cy="664.675" r="14.4" fill="#c271d2" fill-rule="evenodd" fill-opacity="1" stroke="#000000" stroke-opacity="1" stroke-width="3.2"/>
<circle clip-path="url(#clip582)" cx="281.952" cy="1017.75" r="14.4" fill="#ac8d18" fill-rule="evenodd" fill-opacity="1" stroke="#000000" stroke-opacity="1" stroke-width="3.2"/>
<circle clip-path="url(#clip582)" cx="605.123" cy="983.83" r="14.4" fill="#ac8d18" fill-rule="evenodd" fill-opacity="1" stroke="#000000" stroke-opacity="1" stroke-width="3.2"/>
<circle clip-path="url(#clip582)" cx="1131.09" cy="882.24" r="14.4" fill="#ac8d18" fill-rule="evenodd" fill-opacity="1" stroke="#000000" stroke-opacity="1" stroke-width="3.2"/>
<circle clip-path="url(#clip582)" cx="1564.45" cy="897.075" r="14.4" fill="#ac8d18" fill-rule="evenodd" fill-opacity="1" stroke="#000000" stroke-opacity="1" stroke-width="3.2"/>
<circle clip-path="url(#clip582)" cx="1595.6" cy="978.308" r="14.4" fill="#ac8d18" fill-rule="evenodd" fill-opacity="1" stroke="#000000" stroke-opacity="1" stroke-width="3.2"/>
<circle clip-path="url(#clip582)" cx="2292.44" cy="159.909" r="14.4" fill="#ac8d18" fill-rule="evenodd" fill-opacity="1" stroke="#000000" stroke-opacity="1" stroke-width="3.2"/>
<circle clip-path="url(#clip582)" cx="281.952" cy="986.924" r="14.4" fill="#00a9ad" fill-rule="evenodd" fill-opacity="1" stroke="#000000" stroke-opacity="1" stroke-width="3.2"/>
<circle clip-path="url(#clip582)" cx="605.123" cy="926.162" r="14.4" fill="#00a9ad" fill-rule="evenodd" fill-opacity="1" stroke="#000000" stroke-opacity="1" stroke-width="3.2"/>
<circle clip-path="url(#clip582)" cx="1131.09" cy="888.808" r="14.4" fill="#00a9ad" fill-rule="evenodd" fill-opacity="1" stroke="#000000" stroke-opacity="1" stroke-width="3.2"/>
<circle clip-path="url(#clip582)" cx="1564.45" cy="766.307" r="14.4" fill="#00a9ad" fill-rule="evenodd" fill-opacity="1" stroke="#000000" stroke-opacity="1" stroke-width="3.2"/>
<circle clip-path="url(#clip582)" cx="1595.6" cy="633.863" r="14.4" fill="#00a9ad" fill-rule="evenodd" fill-opacity="1" stroke="#000000" stroke-opacity="1" stroke-width="3.2"/>
<circle clip-path="url(#clip582)" cx="2292.44" cy="160.14" r="14.4" fill="#00a9ad" fill-rule="evenodd" fill-opacity="1" stroke="#000000" stroke-opacity="1" stroke-width="3.2"/>
<path clip-path="url(#clip580)" d="M292.674 529.266 L1123.38 529.266 L1123.38 166.386 L292.674 166.386  Z" fill="#ffffff" fill-rule="evenodd" fill-opacity="1"/>
<polyline clip-path="url(#clip580)" style="stroke:#000000; stroke-linecap:round; stroke-linejoin:round; stroke-width:4; stroke-opacity:1; fill:none" points="292.674,529.266 1123.38,529.266 1123.38,166.386 292.674,166.386 292.674,529.266 "/>
<circle clip-path="url(#clip580)" cx="387.391" cy="218.226" r="20.48" fill="#009af9" fill-rule="evenodd" fill-opacity="1" stroke="#000000" stroke-opacity="1" stroke-width="4.55111"/>
<path clip-path="url(#clip580)" d="M482.107 200.946 L486.783 200.946 L486.783 235.506 L482.107 235.506 L482.107 200.946 Z" fill="#000000" fill-rule="nonzero" fill-opacity="1" /><path clip-path="url(#clip580)" d="M500.024 231.617 L500.024 245.367 L495.741 245.367 L495.741 209.58 L500.024 209.58 L500.024 213.516 Q501.366 211.201 503.403 210.09 Q505.464 208.955 508.311 208.955 Q513.033 208.955 515.973 212.705 Q518.936 216.455 518.936 222.567 Q518.936 228.678 515.973 232.428 Q513.033 236.178 508.311 236.178 Q505.464 236.178 503.403 235.066 Q501.366 233.932 500.024 231.617 M514.514 222.567 Q514.514 217.867 512.57 215.205 Q510.649 212.52 507.269 212.52 Q503.889 212.52 501.945 215.205 Q500.024 217.867 500.024 222.567 Q500.024 227.266 501.945 229.951 Q503.889 232.613 507.269 232.613 Q510.649 232.613 512.57 229.951 Q514.514 227.266 514.514 222.567 Z" fill="#000000" fill-rule="nonzero" fill-opacity="1" /><path clip-path="url(#clip580)" d="M536.042 212.567 Q532.616 212.567 530.625 215.252 Q528.635 217.914 528.635 222.567 Q528.635 227.219 530.602 229.904 Q532.593 232.566 536.042 232.566 Q539.445 232.566 541.436 229.881 Q543.426 227.196 543.426 222.567 Q543.426 217.96 541.436 215.275 Q539.445 212.567 536.042 212.567 M536.042 208.955 Q541.598 208.955 544.769 212.567 Q547.94 216.178 547.94 222.567 Q547.94 228.932 544.769 232.566 Q541.598 236.178 536.042 236.178 Q530.463 236.178 527.292 232.566 Q524.144 228.932 524.144 222.567 Q524.144 216.178 527.292 212.567 Q530.463 208.955 536.042 208.955 Z" fill="#000000" fill-rule="nonzero" fill-opacity="1" /><path clip-path="url(#clip580)" d="M559.121 231.617 L559.121 245.367 L554.838 245.367 L554.838 209.58 L559.121 209.58 L559.121 213.516 Q560.463 211.201 562.5 210.09 Q564.56 208.955 567.408 208.955 Q572.13 208.955 575.07 212.705 Q578.033 216.455 578.033 222.567 Q578.033 228.678 575.07 232.428 Q572.13 236.178 567.408 236.178 Q564.56 236.178 562.5 235.066 Q560.463 233.932 559.121 231.617 M573.611 222.567 Q573.611 217.867 571.667 215.205 Q569.746 212.52 566.366 212.52 Q562.986 212.52 561.042 215.205 Q559.121 217.867 559.121 222.567 Q559.121 227.266 561.042 229.951 Q562.986 232.613 566.366 232.613 Q569.746 232.613 571.667 229.951 Q573.611 227.266 573.611 222.567 Z" fill="#000000" fill-rule="nonzero" fill-opacity="1" /><path clip-path="url(#clip580)" d="M589.306 202.219 L589.306 209.58 L598.079 209.58 L598.079 212.891 L589.306 212.891 L589.306 226.965 Q589.306 230.136 590.162 231.039 Q591.042 231.941 593.704 231.941 L598.079 231.941 L598.079 235.506 L593.704 235.506 Q588.773 235.506 586.898 233.678 Q585.023 231.826 585.023 226.965 L585.023 212.891 L581.898 212.891 L581.898 209.58 L585.023 209.58 L585.023 202.219 L589.306 202.219 Z" fill="#000000" fill-rule="nonzero" fill-opacity="1" /><path clip-path="url(#clip580)" d="M621.018 205.784 L621.018 218.678 L633.912 218.678 L633.912 222.613 L621.018 222.613 L621.018 235.506 L617.13 235.506 L617.13 222.613 L604.236 222.613 L604.236 218.678 L617.13 218.678 L617.13 205.784 L621.018 205.784 Z" fill="#000000" fill-rule="nonzero" fill-opacity="1" /><path clip-path="url(#clip580)" d="M643.588 200.946 L650.555 200.946 L659.375 224.465 L668.24 200.946 L675.208 200.946 L675.208 235.506 L670.648 235.506 L670.648 205.159 L661.736 228.863 L657.037 228.863 L648.125 205.159 L648.125 235.506 L643.588 235.506 L643.588 200.946 Z" fill="#000000" fill-rule="nonzero" fill-opacity="1" /><path clip-path="url(#clip580)" d="M696.088 222.474 Q690.925 222.474 688.935 223.654 Q686.944 224.835 686.944 227.682 Q686.944 229.951 688.426 231.293 Q689.93 232.613 692.5 232.613 Q696.041 232.613 698.171 230.113 Q700.324 227.59 700.324 223.423 L700.324 222.474 L696.088 222.474 M704.583 220.715 L704.583 235.506 L700.324 235.506 L700.324 231.571 Q698.865 233.932 696.689 235.066 Q694.513 236.178 691.365 236.178 Q687.384 236.178 685.023 233.955 Q682.685 231.71 682.685 227.96 Q682.685 223.585 685.601 221.363 Q688.541 219.141 694.351 219.141 L700.324 219.141 L700.324 218.724 Q700.324 215.784 698.379 214.187 Q696.458 212.567 692.963 212.567 Q690.74 212.567 688.634 213.099 Q686.527 213.631 684.583 214.696 L684.583 210.761 Q686.921 209.858 689.12 209.418 Q691.319 208.955 693.402 208.955 Q699.027 208.955 701.805 211.872 Q704.583 214.789 704.583 220.715 Z" fill="#000000" fill-rule="nonzero" fill-opacity="1" /><path clip-path="url(#clip580)" d="M714.097 234.789 L714.097 230.529 Q715.856 231.363 717.661 231.803 Q719.467 232.242 721.203 232.242 Q725.833 232.242 728.263 229.141 Q730.717 226.016 731.064 219.673 Q729.722 221.664 727.661 222.729 Q725.601 223.793 723.101 223.793 Q717.916 223.793 714.884 220.668 Q711.874 217.52 711.874 212.08 Q711.874 206.756 715.023 203.539 Q718.171 200.321 723.402 200.321 Q729.398 200.321 732.546 204.928 Q735.717 209.511 735.717 218.261 Q735.717 226.432 731.828 231.316 Q727.962 236.178 721.411 236.178 Q719.652 236.178 717.847 235.83 Q716.041 235.483 714.097 234.789 M723.402 220.136 Q726.55 220.136 728.379 217.983 Q730.231 215.83 730.231 212.08 Q730.231 208.354 728.379 206.201 Q726.55 204.025 723.402 204.025 Q720.254 204.025 718.402 206.201 Q716.574 208.354 716.574 212.08 Q716.574 215.83 718.402 217.983 Q720.254 220.136 723.402 220.136 Z" fill="#000000" fill-rule="nonzero" fill-opacity="1" /><path clip-path="url(#clip580)" d="M742.939 200.946 L765.161 200.946 L765.161 202.937 L752.615 235.506 L747.731 235.506 L759.536 204.881 L742.939 204.881 L742.939 200.946 Z" fill="#000000" fill-rule="nonzero" fill-opacity="1" /><path clip-path="url(#clip580)" d="M798.98 199.534 Q795.879 204.858 794.374 210.067 Q792.869 215.275 792.869 220.622 Q792.869 225.969 794.374 231.224 Q795.902 236.455 798.98 241.756 L795.277 241.756 Q791.805 236.316 790.068 231.062 Q788.356 225.807 788.356 220.622 Q788.356 215.46 790.068 210.229 Q791.781 204.997 795.277 199.534 L798.98 199.534 Z" fill="#000000" fill-rule="nonzero" fill-opacity="1" /><path clip-path="url(#clip580)" d="M833.309 203.608 L833.309 208.539 Q830.948 206.34 828.263 205.252 Q825.601 204.164 822.591 204.164 Q816.666 204.164 813.517 207.798 Q810.369 211.409 810.369 218.261 Q810.369 225.09 813.517 228.724 Q816.666 232.335 822.591 232.335 Q825.601 232.335 828.263 231.247 Q830.948 230.159 833.309 227.96 L833.309 232.844 Q830.855 234.511 828.101 235.344 Q825.369 236.178 822.314 236.178 Q814.466 236.178 809.953 231.386 Q805.439 226.571 805.439 218.261 Q805.439 209.928 809.953 205.136 Q814.466 200.321 822.314 200.321 Q825.416 200.321 828.147 201.155 Q830.902 201.965 833.309 203.608 Z" fill="#000000" fill-rule="nonzero" fill-opacity="1" /><path clip-path="url(#clip580)" d="M845.207 204.789 L845.207 217.775 L851.087 217.775 Q854.351 217.775 856.133 216.085 Q857.915 214.395 857.915 211.27 Q857.915 208.168 856.133 206.479 Q854.351 204.789 851.087 204.789 L845.207 204.789 M840.531 200.946 L851.087 200.946 Q856.897 200.946 859.86 203.585 Q862.846 206.201 862.846 211.27 Q862.846 216.386 859.86 219.002 Q856.897 221.617 851.087 221.617 L845.207 221.617 L845.207 235.506 L840.531 235.506 L840.531 200.946 Z" fill="#000000" fill-rule="nonzero" fill-opacity="1" /><path clip-path="url(#clip580)" d="M868.587 200.946 L873.286 200.946 L873.286 221.942 Q873.286 227.497 875.3 229.951 Q877.313 232.381 881.827 232.381 Q886.318 232.381 888.332 229.951 Q890.346 227.497 890.346 221.942 L890.346 200.946 L895.045 200.946 L895.045 222.52 Q895.045 229.279 891.688 232.729 Q888.355 236.178 881.827 236.178 Q875.276 236.178 871.92 232.729 Q868.587 229.279 868.587 222.52 L868.587 200.946 Z" fill="#000000" fill-rule="nonzero" fill-opacity="1" /><path clip-path="url(#clip580)" d="M902.961 199.534 L906.665 199.534 Q910.137 204.997 911.85 210.229 Q913.586 215.46 913.586 220.622 Q913.586 225.807 911.85 231.062 Q910.137 236.316 906.665 241.756 L902.961 241.756 Q906.04 236.455 907.545 231.224 Q909.072 225.969 909.072 220.622 Q909.072 215.275 907.545 210.067 Q906.04 204.858 902.961 199.534 Z" fill="#000000" fill-rule="nonzero" fill-opacity="1" /><circle clip-path="url(#clip580)" cx="387.391" cy="270.066" r="20.48" fill="#e26f46" fill-rule="evenodd" fill-opacity="1" stroke="#000000" stroke-opacity="1" stroke-width="4.55111"/>
<path clip-path="url(#clip580)" d="M482.107 252.786 L489.075 252.786 L497.894 276.305 L506.76 252.786 L513.727 252.786 L513.727 287.346 L509.167 287.346 L509.167 256.999 L500.255 280.703 L495.556 280.703 L486.644 256.999 L486.644 287.346 L482.107 287.346 L482.107 252.786 Z" fill="#000000" fill-rule="nonzero" fill-opacity="1" /><path clip-path="url(#clip580)" d="M534.607 274.314 Q529.445 274.314 527.454 275.494 Q525.463 276.675 525.463 279.522 Q525.463 281.791 526.945 283.133 Q528.45 284.453 531.019 284.453 Q534.561 284.453 536.69 281.953 Q538.843 279.43 538.843 275.263 L538.843 274.314 L534.607 274.314 M543.102 272.555 L543.102 287.346 L538.843 287.346 L538.843 283.411 Q537.385 285.772 535.209 286.906 Q533.033 288.018 529.885 288.018 Q525.903 288.018 523.542 285.795 Q521.204 283.55 521.204 279.8 Q521.204 275.425 524.121 273.203 Q527.061 270.981 532.871 270.981 L538.843 270.981 L538.843 270.564 Q538.843 267.624 536.899 266.027 Q534.977 264.407 531.482 264.407 Q529.26 264.407 527.153 264.939 Q525.047 265.471 523.102 266.536 L523.102 262.601 Q525.44 261.698 527.639 261.258 Q529.838 260.795 531.922 260.795 Q537.547 260.795 540.324 263.712 Q543.102 266.629 543.102 272.555 Z" fill="#000000" fill-rule="nonzero" fill-opacity="1" /><path clip-path="url(#clip580)" d="M568.935 265.356 L568.935 251.328 L573.195 251.328 L573.195 287.346 L568.935 287.346 L568.935 283.457 Q567.593 285.772 565.533 286.906 Q563.496 288.018 560.625 288.018 Q555.926 288.018 552.963 284.268 Q550.023 280.518 550.023 274.407 Q550.023 268.295 552.963 264.545 Q555.926 260.795 560.625 260.795 Q563.496 260.795 565.533 261.93 Q567.593 263.041 568.935 265.356 M554.422 274.407 Q554.422 279.106 556.343 281.791 Q558.287 284.453 561.667 284.453 Q565.047 284.453 566.991 281.791 Q568.935 279.106 568.935 274.407 Q568.935 269.707 566.991 267.045 Q565.047 264.36 561.667 264.36 Q558.287 264.36 556.343 267.045 Q554.422 269.707 554.422 274.407 Z" fill="#000000" fill-rule="nonzero" fill-opacity="1" /><path clip-path="url(#clip580)" d="M582.153 252.786 L588.449 252.786 L603.773 281.698 L603.773 252.786 L608.31 252.786 L608.31 287.346 L602.014 287.346 L586.69 258.434 L586.69 287.346 L582.153 287.346 L582.153 252.786 Z" fill="#000000" fill-rule="nonzero" fill-opacity="1" /><path clip-path="url(#clip580)" d="M617.616 252.786 L622.292 252.786 L622.292 283.411 L639.12 283.411 L639.12 287.346 L617.616 287.346 L617.616 252.786 Z" fill="#000000" fill-rule="nonzero" fill-opacity="1" /><path clip-path="url(#clip580)" d="M648.703 256.629 L648.703 269.615 L654.583 269.615 Q657.847 269.615 659.629 267.925 Q661.412 266.235 661.412 263.11 Q661.412 260.008 659.629 258.319 Q657.847 256.629 654.583 256.629 L648.703 256.629 M644.028 252.786 L654.583 252.786 Q660.393 252.786 663.356 255.425 Q666.342 258.041 666.342 263.11 Q666.342 268.226 663.356 270.842 Q660.393 273.457 654.583 273.457 L648.703 273.457 L648.703 287.346 L644.028 287.346 L644.028 252.786 Z" fill="#000000" fill-rule="nonzero" fill-opacity="1" /><path clip-path="url(#clip580)" d="M689.768 257.624 L689.768 270.518 L702.662 270.518 L702.662 274.453 L689.768 274.453 L689.768 287.346 L685.879 287.346 L685.879 274.453 L672.986 274.453 L672.986 270.518 L685.879 270.518 L685.879 257.624 L689.768 257.624 Z" fill="#000000" fill-rule="nonzero" fill-opacity="1" /><path clip-path="url(#clip580)" d="M712.337 252.786 L719.305 252.786 L728.124 276.305 L736.99 252.786 L743.958 252.786 L743.958 287.346 L739.397 287.346 L739.397 256.999 L730.485 280.703 L725.786 280.703 L716.874 256.999 L716.874 287.346 L712.337 287.346 L712.337 252.786 Z" fill="#000000" fill-rule="nonzero" fill-opacity="1" /><path clip-path="url(#clip580)" d="M764.837 274.314 Q759.675 274.314 757.684 275.494 Q755.694 276.675 755.694 279.522 Q755.694 281.791 757.175 283.133 Q758.68 284.453 761.249 284.453 Q764.791 284.453 766.92 281.953 Q769.073 279.43 769.073 275.263 L769.073 274.314 L764.837 274.314 M773.332 272.555 L773.332 287.346 L769.073 287.346 L769.073 283.411 Q767.615 285.772 765.439 286.906 Q763.263 288.018 760.115 288.018 Q756.133 288.018 753.772 285.795 Q751.434 283.55 751.434 279.8 Q751.434 275.425 754.351 273.203 Q757.291 270.981 763.101 270.981 L769.073 270.981 L769.073 270.564 Q769.073 267.624 767.129 266.027 Q765.208 264.407 761.712 264.407 Q759.49 264.407 757.383 264.939 Q755.277 265.471 753.333 266.536 L753.333 262.601 Q755.671 261.698 757.87 261.258 Q760.069 260.795 762.152 260.795 Q767.777 260.795 770.555 263.712 Q773.332 266.629 773.332 272.555 Z" fill="#000000" fill-rule="nonzero" fill-opacity="1" /><path clip-path="url(#clip580)" d="M792.707 270.934 Q789.374 270.934 787.453 272.717 Q785.555 274.499 785.555 277.624 Q785.555 280.749 787.453 282.531 Q789.374 284.314 792.707 284.314 Q796.041 284.314 797.962 282.531 Q799.883 280.726 799.883 277.624 Q799.883 274.499 797.962 272.717 Q796.064 270.934 792.707 270.934 M788.031 268.944 Q785.022 268.203 783.332 266.143 Q781.666 264.083 781.666 261.12 Q781.666 256.976 784.606 254.569 Q787.568 252.161 792.707 252.161 Q797.869 252.161 800.809 254.569 Q803.749 256.976 803.749 261.12 Q803.749 264.083 802.059 266.143 Q800.392 268.203 797.406 268.944 Q800.786 269.731 802.661 272.022 Q804.559 274.314 804.559 277.624 Q804.559 282.647 801.48 285.332 Q798.425 288.018 792.707 288.018 Q786.99 288.018 783.911 285.332 Q780.856 282.647 780.856 277.624 Q780.856 274.314 782.754 272.022 Q784.652 269.731 788.031 268.944 M786.319 261.559 Q786.319 264.245 787.985 265.749 Q789.675 267.254 792.707 267.254 Q795.717 267.254 797.406 265.749 Q799.119 264.245 799.119 261.559 Q799.119 258.874 797.406 257.37 Q795.717 255.865 792.707 255.865 Q789.675 255.865 787.985 257.37 Q786.319 258.874 786.319 261.559 Z" fill="#000000" fill-rule="nonzero" fill-opacity="1" /><path clip-path="url(#clip580)" d="M823.448 268.203 Q820.3 268.203 818.448 270.356 Q816.619 272.508 816.619 276.258 Q816.619 279.985 818.448 282.161 Q820.3 284.314 823.448 284.314 Q826.596 284.314 828.425 282.161 Q830.277 279.985 830.277 276.258 Q830.277 272.508 828.425 270.356 Q826.596 268.203 823.448 268.203 M832.73 253.55 L832.73 257.809 Q830.971 256.976 829.165 256.536 Q827.383 256.096 825.624 256.096 Q820.994 256.096 818.541 259.221 Q816.11 262.346 815.763 268.666 Q817.129 266.652 819.189 265.587 Q821.249 264.499 823.726 264.499 Q828.934 264.499 831.943 267.67 Q834.976 270.819 834.976 276.258 Q834.976 281.582 831.828 284.8 Q828.679 288.018 823.448 288.018 Q817.453 288.018 814.281 283.434 Q811.11 278.828 811.11 270.101 Q811.11 261.907 814.999 257.046 Q818.888 252.161 825.439 252.161 Q827.198 252.161 828.98 252.509 Q830.786 252.856 832.73 253.55 Z" fill="#000000" fill-rule="nonzero" fill-opacity="1" /><path clip-path="url(#clip580)" d="M867.73 251.374 Q864.628 256.698 863.124 261.907 Q861.619 267.115 861.619 272.462 Q861.619 277.809 863.124 283.064 Q864.651 288.295 867.73 293.596 L864.026 293.596 Q860.554 288.156 858.818 282.902 Q857.105 277.647 857.105 272.462 Q857.105 267.3 858.818 262.069 Q860.531 256.837 864.026 251.374 L867.73 251.374 Z" fill="#000000" fill-rule="nonzero" fill-opacity="1" /><path clip-path="url(#clip580)" d="M902.059 255.448 L902.059 260.379 Q899.698 258.18 897.012 257.092 Q894.35 256.004 891.341 256.004 Q885.415 256.004 882.267 259.638 Q879.119 263.249 879.119 270.101 Q879.119 276.93 882.267 280.564 Q885.415 284.175 891.341 284.175 Q894.35 284.175 897.012 283.087 Q899.698 281.999 902.059 279.8 L902.059 284.684 Q899.605 286.351 896.85 287.184 Q894.119 288.018 891.063 288.018 Q883.216 288.018 878.702 283.226 Q874.188 278.411 874.188 270.101 Q874.188 261.768 878.702 256.976 Q883.216 252.161 891.063 252.161 Q894.165 252.161 896.897 252.995 Q899.651 253.805 902.059 255.448 Z" fill="#000000" fill-rule="nonzero" fill-opacity="1" /><path clip-path="url(#clip580)" d="M913.957 256.629 L913.957 269.615 L919.836 269.615 Q923.1 269.615 924.883 267.925 Q926.665 266.235 926.665 263.11 Q926.665 260.008 924.883 258.319 Q923.1 256.629 919.836 256.629 L913.957 256.629 M909.281 252.786 L919.836 252.786 Q925.646 252.786 928.609 255.425 Q931.595 258.041 931.595 263.11 Q931.595 268.226 928.609 270.842 Q925.646 273.457 919.836 273.457 L913.957 273.457 L913.957 287.346 L909.281 287.346 L909.281 252.786 Z" fill="#000000" fill-rule="nonzero" fill-opacity="1" /><path clip-path="url(#clip580)" d="M937.336 252.786 L942.035 252.786 L942.035 273.782 Q942.035 279.337 944.049 281.791 Q946.063 284.221 950.577 284.221 Q955.068 284.221 957.081 281.791 Q959.095 279.337 959.095 273.782 L959.095 252.786 L963.794 252.786 L963.794 274.36 Q963.794 281.119 960.438 284.569 Q957.105 288.018 950.577 288.018 Q944.026 288.018 940.67 284.569 Q937.336 281.119 937.336 274.36 L937.336 252.786 Z" fill="#000000" fill-rule="nonzero" fill-opacity="1" /><path clip-path="url(#clip580)" d="M971.711 251.374 L975.415 251.374 Q978.887 256.837 980.6 262.069 Q982.336 267.3 982.336 272.462 Q982.336 277.647 980.6 282.902 Q978.887 288.156 975.415 293.596 L971.711 293.596 Q974.79 288.295 976.294 283.064 Q977.822 277.809 977.822 272.462 Q977.822 267.115 976.294 261.907 Q974.79 256.698 971.711 251.374 Z" fill="#000000" fill-rule="nonzero" fill-opacity="1" /><circle clip-path="url(#clip580)" cx="387.391" cy="321.906" r="20.48" fill="#3da44d" fill-rule="evenodd" fill-opacity="1" stroke="#000000" stroke-opacity="1" stroke-width="4.55111"/>
<path clip-path="url(#clip580)" d="M482.107 304.626 L486.783 304.626 L486.783 339.186 L482.107 339.186 L482.107 304.626 Z" fill="#000000" fill-rule="nonzero" fill-opacity="1" /><path clip-path="url(#clip580)" d="M500.024 335.297 L500.024 349.047 L495.741 349.047 L495.741 313.26 L500.024 313.26 L500.024 317.196 Q501.366 314.881 503.403 313.77 Q505.464 312.635 508.311 312.635 Q513.033 312.635 515.973 316.385 Q518.936 320.135 518.936 326.247 Q518.936 332.358 515.973 336.108 Q513.033 339.858 508.311 339.858 Q505.464 339.858 503.403 338.746 Q501.366 337.612 500.024 335.297 M514.514 326.247 Q514.514 321.547 512.57 318.885 Q510.649 316.2 507.269 316.2 Q503.889 316.2 501.945 318.885 Q500.024 321.547 500.024 326.247 Q500.024 330.946 501.945 333.631 Q503.889 336.293 507.269 336.293 Q510.649 336.293 512.57 333.631 Q514.514 330.946 514.514 326.247 Z" fill="#000000" fill-rule="nonzero" fill-opacity="1" /><path clip-path="url(#clip580)" d="M536.042 316.247 Q532.616 316.247 530.625 318.932 Q528.635 321.594 528.635 326.247 Q528.635 330.899 530.602 333.584 Q532.593 336.246 536.042 336.246 Q539.445 336.246 541.436 333.561 Q543.426 330.876 543.426 326.247 Q543.426 321.64 541.436 318.955 Q539.445 316.247 536.042 316.247 M536.042 312.635 Q541.598 312.635 544.769 316.247 Q547.94 319.858 547.94 326.247 Q547.94 332.612 544.769 336.246 Q541.598 339.858 536.042 339.858 Q530.463 339.858 527.292 336.246 Q524.144 332.612 524.144 326.247 Q524.144 319.858 527.292 316.247 Q530.463 312.635 536.042 312.635 Z" fill="#000000" fill-rule="nonzero" fill-opacity="1" /><path clip-path="url(#clip580)" d="M559.121 335.297 L559.121 349.047 L554.838 349.047 L554.838 313.26 L559.121 313.26 L559.121 317.196 Q560.463 314.881 562.5 313.77 Q564.56 312.635 567.408 312.635 Q572.13 312.635 575.07 316.385 Q578.033 320.135 578.033 326.247 Q578.033 332.358 575.07 336.108 Q572.13 339.858 567.408 339.858 Q564.56 339.858 562.5 338.746 Q560.463 337.612 559.121 335.297 M573.611 326.247 Q573.611 321.547 571.667 318.885 Q569.746 316.2 566.366 316.2 Q562.986 316.2 561.042 318.885 Q559.121 321.547 559.121 326.247 Q559.121 330.946 561.042 333.631 Q562.986 336.293 566.366 336.293 Q569.746 336.293 571.667 333.631 Q573.611 330.946 573.611 326.247 Z" fill="#000000" fill-rule="nonzero" fill-opacity="1" /><path clip-path="url(#clip580)" d="M589.306 305.899 L589.306 313.26 L598.079 313.26 L598.079 316.571 L589.306 316.571 L589.306 330.645 Q589.306 333.816 590.162 334.719 Q591.042 335.621 593.704 335.621 L598.079 335.621 L598.079 339.186 L593.704 339.186 Q588.773 339.186 586.898 337.358 Q585.023 335.506 585.023 330.645 L585.023 316.571 L581.898 316.571 L581.898 313.26 L585.023 313.26 L585.023 305.899 L589.306 305.899 Z" fill="#000000" fill-rule="nonzero" fill-opacity="1" /><path clip-path="url(#clip580)" d="M621.018 309.464 L621.018 322.358 L633.912 322.358 L633.912 326.293 L621.018 326.293 L621.018 339.186 L617.13 339.186 L617.13 326.293 L604.236 326.293 L604.236 322.358 L617.13 322.358 L617.13 309.464 L621.018 309.464 Z" fill="#000000" fill-rule="nonzero" fill-opacity="1" /><path clip-path="url(#clip580)" d="M643.588 304.626 L650.555 304.626 L659.375 328.145 L668.24 304.626 L675.208 304.626 L675.208 339.186 L670.648 339.186 L670.648 308.839 L661.736 332.543 L657.037 332.543 L648.125 308.839 L648.125 339.186 L643.588 339.186 L643.588 304.626 Z" fill="#000000" fill-rule="nonzero" fill-opacity="1" /><path clip-path="url(#clip580)" d="M696.088 326.154 Q690.925 326.154 688.935 327.334 Q686.944 328.515 686.944 331.362 Q686.944 333.631 688.426 334.973 Q689.93 336.293 692.5 336.293 Q696.041 336.293 698.171 333.793 Q700.324 331.27 700.324 327.103 L700.324 326.154 L696.088 326.154 M704.583 324.395 L704.583 339.186 L700.324 339.186 L700.324 335.251 Q698.865 337.612 696.689 338.746 Q694.513 339.858 691.365 339.858 Q687.384 339.858 685.023 337.635 Q682.685 335.39 682.685 331.64 Q682.685 327.265 685.601 325.043 Q688.541 322.821 694.351 322.821 L700.324 322.821 L700.324 322.404 Q700.324 319.464 698.379 317.867 Q696.458 316.247 692.963 316.247 Q690.74 316.247 688.634 316.779 Q686.527 317.311 684.583 318.376 L684.583 314.441 Q686.921 313.538 689.12 313.098 Q691.319 312.635 693.402 312.635 Q699.027 312.635 701.805 315.552 Q704.583 318.469 704.583 324.395 Z" fill="#000000" fill-rule="nonzero" fill-opacity="1" /><path clip-path="url(#clip580)" d="M717.986 335.251 L734.305 335.251 L734.305 339.186 L712.361 339.186 L712.361 335.251 Q715.023 332.496 719.606 327.867 Q724.212 323.214 725.393 321.872 Q727.638 319.348 728.518 317.612 Q729.421 315.853 729.421 314.163 Q729.421 311.409 727.476 309.673 Q725.555 307.936 722.453 307.936 Q720.254 307.936 717.8 308.7 Q715.37 309.464 712.592 311.015 L712.592 306.293 Q715.416 305.159 717.87 304.58 Q720.323 304.001 722.361 304.001 Q727.731 304.001 730.925 306.686 Q734.12 309.372 734.12 313.862 Q734.12 315.992 733.31 317.913 Q732.522 319.811 730.416 322.404 Q729.837 323.075 726.735 326.293 Q723.634 329.487 717.986 335.251 Z" fill="#000000" fill-rule="nonzero" fill-opacity="1" /><path clip-path="url(#clip580)" d="M742.939 304.626 L765.161 304.626 L765.161 306.617 L752.615 339.186 L747.731 339.186 L759.536 308.561 L742.939 308.561 L742.939 304.626 Z" fill="#000000" fill-rule="nonzero" fill-opacity="1" /><path clip-path="url(#clip580)" d="M798.98 303.214 Q795.879 308.538 794.374 313.747 Q792.869 318.955 792.869 324.302 Q792.869 329.649 794.374 334.904 Q795.902 340.135 798.98 345.436 L795.277 345.436 Q791.805 339.996 790.068 334.742 Q788.356 329.487 788.356 324.302 Q788.356 319.14 790.068 313.909 Q791.781 308.677 795.277 303.214 L798.98 303.214 Z" fill="#000000" fill-rule="nonzero" fill-opacity="1" /><path clip-path="url(#clip580)" d="M833.309 307.288 L833.309 312.219 Q830.948 310.02 828.263 308.932 Q825.601 307.844 822.591 307.844 Q816.666 307.844 813.517 311.478 Q810.369 315.089 810.369 321.941 Q810.369 328.77 813.517 332.404 Q816.666 336.015 822.591 336.015 Q825.601 336.015 828.263 334.927 Q830.948 333.839 833.309 331.64 L833.309 336.524 Q830.855 338.191 828.101 339.024 Q825.369 339.858 822.314 339.858 Q814.466 339.858 809.953 335.066 Q805.439 330.251 805.439 321.941 Q805.439 313.608 809.953 308.816 Q814.466 304.001 822.314 304.001 Q825.416 304.001 828.147 304.835 Q830.902 305.645 833.309 307.288 Z" fill="#000000" fill-rule="nonzero" fill-opacity="1" /><path clip-path="url(#clip580)" d="M845.207 308.469 L845.207 321.455 L851.087 321.455 Q854.351 321.455 856.133 319.765 Q857.915 318.075 857.915 314.95 Q857.915 311.848 856.133 310.159 Q854.351 308.469 851.087 308.469 L845.207 308.469 M840.531 304.626 L851.087 304.626 Q856.897 304.626 859.86 307.265 Q862.846 309.881 862.846 314.95 Q862.846 320.066 859.86 322.682 Q856.897 325.297 851.087 325.297 L845.207 325.297 L845.207 339.186 L840.531 339.186 L840.531 304.626 Z" fill="#000000" fill-rule="nonzero" fill-opacity="1" /><path clip-path="url(#clip580)" d="M868.587 304.626 L873.286 304.626 L873.286 325.622 Q873.286 331.177 875.3 333.631 Q877.313 336.061 881.827 336.061 Q886.318 336.061 888.332 333.631 Q890.346 331.177 890.346 325.622 L890.346 304.626 L895.045 304.626 L895.045 326.2 Q895.045 332.959 891.688 336.409 Q888.355 339.858 881.827 339.858 Q875.276 339.858 871.92 336.409 Q868.587 332.959 868.587 326.2 L868.587 304.626 Z" fill="#000000" fill-rule="nonzero" fill-opacity="1" /><path clip-path="url(#clip580)" d="M902.961 303.214 L906.665 303.214 Q910.137 308.677 911.85 313.909 Q913.586 319.14 913.586 324.302 Q913.586 329.487 911.85 334.742 Q910.137 339.996 906.665 345.436 L902.961 345.436 Q906.04 340.135 907.545 334.904 Q909.072 329.649 909.072 324.302 Q909.072 318.955 907.545 313.747 Q906.04 308.538 902.961 303.214 Z" fill="#000000" fill-rule="nonzero" fill-opacity="1" /><circle clip-path="url(#clip580)" cx="387.391" cy="373.746" r="20.48" fill="#c271d2" fill-rule="evenodd" fill-opacity="1" stroke="#000000" stroke-opacity="1" stroke-width="4.55111"/>
<path clip-path="url(#clip580)" d="M482.107 356.466 L489.075 356.466 L497.894 379.985 L506.76 356.466 L513.727 356.466 L513.727 391.026 L509.167 391.026 L509.167 360.679 L500.255 384.383 L495.556 384.383 L486.644 360.679 L486.644 391.026 L482.107 391.026 L482.107 356.466 Z" fill="#000000" fill-rule="nonzero" fill-opacity="1" /><path clip-path="url(#clip580)" d="M534.607 377.994 Q529.445 377.994 527.454 379.174 Q525.463 380.355 525.463 383.202 Q525.463 385.471 526.945 386.813 Q528.45 388.133 531.019 388.133 Q534.561 388.133 536.69 385.633 Q538.843 383.11 538.843 378.943 L538.843 377.994 L534.607 377.994 M543.102 376.235 L543.102 391.026 L538.843 391.026 L538.843 387.091 Q537.385 389.452 535.209 390.586 Q533.033 391.698 529.885 391.698 Q525.903 391.698 523.542 389.475 Q521.204 387.23 521.204 383.48 Q521.204 379.105 524.121 376.883 Q527.061 374.661 532.871 374.661 L538.843 374.661 L538.843 374.244 Q538.843 371.304 536.899 369.707 Q534.977 368.087 531.482 368.087 Q529.26 368.087 527.153 368.619 Q525.047 369.151 523.102 370.216 L523.102 366.281 Q525.44 365.378 527.639 364.938 Q529.838 364.475 531.922 364.475 Q537.547 364.475 540.324 367.392 Q543.102 370.309 543.102 376.235 Z" fill="#000000" fill-rule="nonzero" fill-opacity="1" /><path clip-path="url(#clip580)" d="M568.935 369.036 L568.935 355.008 L573.195 355.008 L573.195 391.026 L568.935 391.026 L568.935 387.137 Q567.593 389.452 565.533 390.586 Q563.496 391.698 560.625 391.698 Q555.926 391.698 552.963 387.948 Q550.023 384.198 550.023 378.087 Q550.023 371.975 552.963 368.225 Q555.926 364.475 560.625 364.475 Q563.496 364.475 565.533 365.61 Q567.593 366.721 568.935 369.036 M554.422 378.087 Q554.422 382.786 556.343 385.471 Q558.287 388.133 561.667 388.133 Q565.047 388.133 566.991 385.471 Q568.935 382.786 568.935 378.087 Q568.935 373.387 566.991 370.725 Q565.047 368.04 561.667 368.04 Q558.287 368.04 556.343 370.725 Q554.422 373.387 554.422 378.087 Z" fill="#000000" fill-rule="nonzero" fill-opacity="1" /><path clip-path="url(#clip580)" d="M582.153 356.466 L588.449 356.466 L603.773 385.378 L603.773 356.466 L608.31 356.466 L608.31 391.026 L602.014 391.026 L586.69 362.114 L586.69 391.026 L582.153 391.026 L582.153 356.466 Z" fill="#000000" fill-rule="nonzero" fill-opacity="1" /><path clip-path="url(#clip580)" d="M617.616 356.466 L622.292 356.466 L622.292 387.091 L639.12 387.091 L639.12 391.026 L617.616 391.026 L617.616 356.466 Z" fill="#000000" fill-rule="nonzero" fill-opacity="1" /><path clip-path="url(#clip580)" d="M648.703 360.309 L648.703 373.295 L654.583 373.295 Q657.847 373.295 659.629 371.605 Q661.412 369.915 661.412 366.79 Q661.412 363.688 659.629 361.999 Q657.847 360.309 654.583 360.309 L648.703 360.309 M644.028 356.466 L654.583 356.466 Q660.393 356.466 663.356 359.105 Q666.342 361.721 666.342 366.79 Q666.342 371.906 663.356 374.522 Q660.393 377.137 654.583 377.137 L648.703 377.137 L648.703 391.026 L644.028 391.026 L644.028 356.466 Z" fill="#000000" fill-rule="nonzero" fill-opacity="1" /><path clip-path="url(#clip580)" d="M689.768 361.304 L689.768 374.198 L702.662 374.198 L702.662 378.133 L689.768 378.133 L689.768 391.026 L685.879 391.026 L685.879 378.133 L672.986 378.133 L672.986 374.198 L685.879 374.198 L685.879 361.304 L689.768 361.304 Z" fill="#000000" fill-rule="nonzero" fill-opacity="1" /><path clip-path="url(#clip580)" d="M712.337 356.466 L717.013 356.466 L717.013 370.633 L734.004 370.633 L734.004 356.466 L738.68 356.466 L738.68 391.026 L734.004 391.026 L734.004 374.568 L717.013 374.568 L717.013 391.026 L712.337 391.026 L712.337 356.466 Z" fill="#000000" fill-rule="nonzero" fill-opacity="1" /><path clip-path="url(#clip580)" d="M758.587 393.434 Q756.782 398.063 755.069 399.475 Q753.356 400.887 750.485 400.887 L747.083 400.887 L747.083 397.323 L749.583 397.323 Q751.342 397.323 752.314 396.489 Q753.286 395.656 754.467 392.554 L755.231 390.61 L744.745 365.1 L749.259 365.1 L757.36 385.378 L765.462 365.1 L769.976 365.1 L758.587 393.434 Z" fill="#000000" fill-rule="nonzero" fill-opacity="1" /><path clip-path="url(#clip580)" d="M794.467 378.087 Q794.467 373.387 792.522 370.725 Q790.601 368.04 787.221 368.04 Q783.842 368.04 781.897 370.725 Q779.976 373.387 779.976 378.087 Q779.976 382.786 781.897 385.471 Q783.842 388.133 787.221 388.133 Q790.601 388.133 792.522 385.471 Q794.467 382.786 794.467 378.087 M779.976 369.036 Q781.319 366.721 783.356 365.61 Q785.416 364.475 788.263 364.475 Q792.985 364.475 795.925 368.225 Q798.888 371.975 798.888 378.087 Q798.888 384.198 795.925 387.948 Q792.985 391.698 788.263 391.698 Q785.416 391.698 783.356 390.586 Q781.319 389.452 779.976 387.137 L779.976 391.026 L775.694 391.026 L775.694 355.008 L779.976 355.008 L779.976 369.036 Z" fill="#000000" fill-rule="nonzero" fill-opacity="1" /><path clip-path="url(#clip580)" d="M820.971 369.082 Q820.254 368.665 819.397 368.48 Q818.564 368.272 817.545 368.272 Q813.934 368.272 811.99 370.633 Q810.068 372.971 810.068 377.369 L810.068 391.026 L805.786 391.026 L805.786 365.1 L810.068 365.1 L810.068 369.128 Q811.411 366.767 813.564 365.633 Q815.716 364.475 818.795 364.475 Q819.235 364.475 819.767 364.545 Q820.3 364.591 820.948 364.707 L820.971 369.082 Z" fill="#000000" fill-rule="nonzero" fill-opacity="1" /><path clip-path="url(#clip580)" d="M825.439 365.1 L829.698 365.1 L829.698 391.026 L825.439 391.026 L825.439 365.1 M825.439 355.008 L829.698 355.008 L829.698 360.401 L825.439 360.401 L825.439 355.008 Z" fill="#000000" fill-rule="nonzero" fill-opacity="1" /><path clip-path="url(#clip580)" d="M855.67 369.036 L855.67 355.008 L859.929 355.008 L859.929 391.026 L855.67 391.026 L855.67 387.137 Q854.327 389.452 852.267 390.586 Q850.23 391.698 847.36 391.698 Q842.661 391.698 839.698 387.948 Q836.758 384.198 836.758 378.087 Q836.758 371.975 839.698 368.225 Q842.661 364.475 847.36 364.475 Q850.23 364.475 852.267 365.61 Q854.327 366.721 855.67 369.036 M841.156 378.087 Q841.156 382.786 843.077 385.471 Q845.022 388.133 848.402 388.133 Q851.781 388.133 853.726 385.471 Q855.67 382.786 855.67 378.087 Q855.67 373.387 853.726 370.725 Q851.781 368.04 848.402 368.04 Q845.022 368.04 843.077 370.725 Q841.156 373.387 841.156 378.087 Z" fill="#000000" fill-rule="nonzero" fill-opacity="1" /><path clip-path="url(#clip580)" d="M868.888 356.466 L873.563 356.466 L873.563 371.073 L889.073 356.466 L895.091 356.466 L877.938 372.577 L896.318 391.026 L890.161 391.026 L873.563 374.383 L873.563 391.026 L868.888 391.026 L868.888 356.466 Z" fill="#000000" fill-rule="nonzero" fill-opacity="1" /><path clip-path="url(#clip580)" d="M899.975 356.466 L904.651 356.466 L904.651 371.073 L920.16 356.466 L926.179 356.466 L909.026 372.577 L927.406 391.026 L921.248 391.026 L904.651 374.383 L904.651 391.026 L899.975 391.026 L899.975 356.466 Z" fill="#000000" fill-rule="nonzero" fill-opacity="1" /><path clip-path="url(#clip580)" d="M922.591 356.466 L951.827 356.466 L951.827 360.401 L939.558 360.401 L939.558 391.026 L934.859 391.026 L934.859 360.401 L922.591 360.401 L922.591 356.466 Z" fill="#000000" fill-rule="nonzero" fill-opacity="1" /><path clip-path="url(#clip580)" d="M981.456 355.054 Q978.355 360.378 976.85 365.587 Q975.345 370.795 975.345 376.142 Q975.345 381.489 976.85 386.744 Q978.378 391.975 981.456 397.276 L977.753 397.276 Q974.28 391.836 972.544 386.582 Q970.831 381.327 970.831 376.142 Q970.831 370.98 972.544 365.749 Q974.257 360.517 977.753 355.054 L981.456 355.054 Z" fill="#000000" fill-rule="nonzero" fill-opacity="1" /><path clip-path="url(#clip580)" d="M1013.47 386.096 L1013.47 376.813 L1005.83 376.813 L1005.83 372.971 L1018.1 372.971 L1018.1 387.809 Q1015.39 389.73 1012.13 390.725 Q1008.86 391.698 1005.16 391.698 Q997.058 391.698 992.475 386.975 Q987.915 382.23 987.915 373.781 Q987.915 365.309 992.475 360.587 Q997.058 355.841 1005.16 355.841 Q1008.54 355.841 1011.57 356.675 Q1014.63 357.508 1017.2 359.128 L1017.2 364.105 Q1014.6 361.906 1011.69 360.795 Q1008.77 359.684 1005.55 359.684 Q999.211 359.684 996.016 363.225 Q992.845 366.767 992.845 373.781 Q992.845 380.772 996.016 384.313 Q999.211 387.855 1005.55 387.855 Q1008.03 387.855 1009.97 387.438 Q1011.92 386.999 1013.47 386.096 Z" fill="#000000" fill-rule="nonzero" fill-opacity="1" /><path clip-path="url(#clip580)" d="M1031.32 360.309 L1031.32 373.295 L1037.2 373.295 Q1040.46 373.295 1042.24 371.605 Q1044.03 369.915 1044.03 366.79 Q1044.03 363.688 1042.24 361.999 Q1040.46 360.309 1037.2 360.309 L1031.32 360.309 M1026.64 356.466 L1037.2 356.466 Q1043.01 356.466 1045.97 359.105 Q1048.96 361.721 1048.96 366.79 Q1048.96 371.906 1045.97 374.522 Q1043.01 377.137 1037.2 377.137 L1031.32 377.137 L1031.32 391.026 L1026.64 391.026 L1026.64 356.466 Z" fill="#000000" fill-rule="nonzero" fill-opacity="1" /><path clip-path="url(#clip580)" d="M1054.7 356.466 L1059.4 356.466 L1059.4 377.462 Q1059.4 383.017 1061.41 385.471 Q1063.42 387.901 1067.94 387.901 Q1072.43 387.901 1074.44 385.471 Q1076.46 383.017 1076.46 377.462 L1076.46 356.466 L1081.15 356.466 L1081.15 378.04 Q1081.15 384.799 1077.8 388.249 Q1074.47 391.698 1067.94 391.698 Q1061.39 391.698 1058.03 388.249 Q1054.7 384.799 1054.7 378.04 L1054.7 356.466 Z" fill="#000000" fill-rule="nonzero" fill-opacity="1" /><path clip-path="url(#clip580)" d="M1089.07 355.054 L1092.78 355.054 Q1096.25 360.517 1097.96 365.749 Q1099.7 370.98 1099.7 376.142 Q1099.7 381.327 1097.96 386.582 Q1096.25 391.836 1092.78 397.276 L1089.07 397.276 Q1092.15 391.975 1093.65 386.744 Q1095.18 381.489 1095.18 376.142 Q1095.18 370.795 1093.65 365.587 Q1092.15 360.378 1089.07 355.054 Z" fill="#000000" fill-rule="nonzero" fill-opacity="1" /><circle clip-path="url(#clip580)" cx="387.391" cy="425.586" r="20.48" fill="#ac8d18" fill-rule="evenodd" fill-opacity="1" stroke="#000000" stroke-opacity="1" stroke-width="4.55111"/>
<path clip-path="url(#clip580)" d="M482.107 408.306 L489.075 408.306 L497.894 431.825 L506.76 408.306 L513.727 408.306 L513.727 442.866 L509.167 442.866 L509.167 412.519 L500.255 436.223 L495.556 436.223 L486.644 412.519 L486.644 442.866 L482.107 442.866 L482.107 408.306 Z" fill="#000000" fill-rule="nonzero" fill-opacity="1" /><path clip-path="url(#clip580)" d="M534.607 429.834 Q529.445 429.834 527.454 431.014 Q525.463 432.195 525.463 435.042 Q525.463 437.311 526.945 438.653 Q528.45 439.973 531.019 439.973 Q534.561 439.973 536.69 437.473 Q538.843 434.95 538.843 430.783 L538.843 429.834 L534.607 429.834 M543.102 428.075 L543.102 442.866 L538.843 442.866 L538.843 438.931 Q537.385 441.292 535.209 442.426 Q533.033 443.538 529.885 443.538 Q525.903 443.538 523.542 441.315 Q521.204 439.07 521.204 435.32 Q521.204 430.945 524.121 428.723 Q527.061 426.501 532.871 426.501 L538.843 426.501 L538.843 426.084 Q538.843 423.144 536.899 421.547 Q534.977 419.927 531.482 419.927 Q529.26 419.927 527.153 420.459 Q525.047 420.991 523.102 422.056 L523.102 418.121 Q525.44 417.218 527.639 416.778 Q529.838 416.315 531.922 416.315 Q537.547 416.315 540.324 419.232 Q543.102 422.149 543.102 428.075 Z" fill="#000000" fill-rule="nonzero" fill-opacity="1" /><path clip-path="url(#clip580)" d="M568.935 420.876 L568.935 406.848 L573.195 406.848 L573.195 442.866 L568.935 442.866 L568.935 438.977 Q567.593 441.292 565.533 442.426 Q563.496 443.538 560.625 443.538 Q555.926 443.538 552.963 439.788 Q550.023 436.038 550.023 429.927 Q550.023 423.815 552.963 420.065 Q555.926 416.315 560.625 416.315 Q563.496 416.315 565.533 417.45 Q567.593 418.561 568.935 420.876 M554.422 429.927 Q554.422 434.626 556.343 437.311 Q558.287 439.973 561.667 439.973 Q565.047 439.973 566.991 437.311 Q568.935 434.626 568.935 429.927 Q568.935 425.227 566.991 422.565 Q565.047 419.88 561.667 419.88 Q558.287 419.88 556.343 422.565 Q554.422 425.227 554.422 429.927 Z" fill="#000000" fill-rule="nonzero" fill-opacity="1" /><path clip-path="url(#clip580)" d="M582.153 408.306 L588.449 408.306 L603.773 437.218 L603.773 408.306 L608.31 408.306 L608.31 442.866 L602.014 442.866 L586.69 413.954 L586.69 442.866 L582.153 442.866 L582.153 408.306 Z" fill="#000000" fill-rule="nonzero" fill-opacity="1" /><path clip-path="url(#clip580)" d="M617.616 408.306 L622.292 408.306 L622.292 438.931 L639.12 438.931 L639.12 442.866 L617.616 442.866 L617.616 408.306 Z" fill="#000000" fill-rule="nonzero" fill-opacity="1" /><path clip-path="url(#clip580)" d="M648.703 412.149 L648.703 425.135 L654.583 425.135 Q657.847 425.135 659.629 423.445 Q661.412 421.755 661.412 418.63 Q661.412 415.528 659.629 413.839 Q657.847 412.149 654.583 412.149 L648.703 412.149 M644.028 408.306 L654.583 408.306 Q660.393 408.306 663.356 410.945 Q666.342 413.561 666.342 418.63 Q666.342 423.746 663.356 426.362 Q660.393 428.977 654.583 428.977 L648.703 428.977 L648.703 442.866 L644.028 442.866 L644.028 408.306 Z" fill="#000000" fill-rule="nonzero" fill-opacity="1" /><path clip-path="url(#clip580)" d="M689.768 413.144 L689.768 426.038 L702.662 426.038 L702.662 429.973 L689.768 429.973 L689.768 442.866 L685.879 442.866 L685.879 429.973 L672.986 429.973 L672.986 426.038 L685.879 426.038 L685.879 413.144 L689.768 413.144 Z" fill="#000000" fill-rule="nonzero" fill-opacity="1" /><path clip-path="url(#clip580)" d="M712.337 408.306 L717.013 408.306 L717.013 438.931 L733.842 438.931 L733.842 442.866 L712.337 442.866 L712.337 408.306 Z" fill="#000000" fill-rule="nonzero" fill-opacity="1" /><path clip-path="url(#clip580)" d="M738.564 416.94 L742.823 416.94 L742.823 442.866 L738.564 442.866 L738.564 416.94 M738.564 406.848 L742.823 406.848 L742.823 412.241 L738.564 412.241 L738.564 406.848 Z" fill="#000000" fill-rule="nonzero" fill-opacity="1" /><path clip-path="url(#clip580)" d="M764.86 406.848 L764.86 410.39 L760.786 410.39 Q758.495 410.39 757.592 411.316 Q756.712 412.241 756.712 414.649 L756.712 416.94 L763.726 416.94 L763.726 420.251 L756.712 420.251 L756.712 442.866 L752.43 442.866 L752.43 420.251 L748.356 420.251 L748.356 416.94 L752.43 416.94 L752.43 415.135 Q752.43 410.806 754.444 408.839 Q756.458 406.848 760.833 406.848 L764.86 406.848 Z" fill="#000000" fill-rule="nonzero" fill-opacity="1" /><path clip-path="url(#clip580)" d="M771.805 409.579 L771.805 416.94 L780.578 416.94 L780.578 420.251 L771.805 420.251 L771.805 434.325 Q771.805 437.496 772.661 438.399 Q773.541 439.301 776.203 439.301 L780.578 439.301 L780.578 442.866 L776.203 442.866 Q771.272 442.866 769.397 441.038 Q767.522 439.186 767.522 434.325 L767.522 420.251 L764.397 420.251 L764.397 416.94 L767.522 416.94 L767.522 409.579 L771.805 409.579 Z" fill="#000000" fill-rule="nonzero" fill-opacity="1" /><path clip-path="url(#clip580)" d="M808.355 428.839 L808.355 430.922 L788.772 430.922 Q789.05 435.32 791.411 437.635 Q793.795 439.926 798.031 439.926 Q800.485 439.926 802.777 439.325 Q805.092 438.723 807.36 437.519 L807.36 441.547 Q805.068 442.519 802.661 443.028 Q800.254 443.538 797.777 443.538 Q791.573 443.538 787.939 439.926 Q784.328 436.315 784.328 430.158 Q784.328 423.792 787.754 420.065 Q791.203 416.315 797.036 416.315 Q802.267 416.315 805.3 419.695 Q808.355 423.052 808.355 428.839 M804.096 427.589 Q804.05 424.093 802.129 422.01 Q800.23 419.927 797.082 419.927 Q793.518 419.927 791.365 421.94 Q789.235 423.954 788.911 427.612 L804.096 427.589 Z" fill="#000000" fill-rule="nonzero" fill-opacity="1" /><path clip-path="url(#clip580)" d="M832.406 420.876 L832.406 406.848 L836.665 406.848 L836.665 442.866 L832.406 442.866 L832.406 438.977 Q831.064 441.292 829.003 442.426 Q826.966 443.538 824.096 443.538 Q819.397 443.538 816.434 439.788 Q813.494 436.038 813.494 429.927 Q813.494 423.815 816.434 420.065 Q819.397 416.315 824.096 416.315 Q826.966 416.315 829.003 417.45 Q831.064 418.561 832.406 420.876 M817.892 429.927 Q817.892 434.626 819.814 437.311 Q821.758 439.973 825.138 439.973 Q828.517 439.973 830.462 437.311 Q832.406 434.626 832.406 429.927 Q832.406 425.227 830.462 422.565 Q828.517 419.88 825.138 419.88 Q821.758 419.88 819.814 422.565 Q817.892 425.227 817.892 429.927 Z" fill="#000000" fill-rule="nonzero" fill-opacity="1" /><path clip-path="url(#clip580)" d="M845.624 408.306 L850.3 408.306 L850.3 422.913 L865.809 408.306 L871.827 408.306 L854.675 424.417 L873.054 442.866 L866.897 442.866 L850.3 426.223 L850.3 442.866 L845.624 442.866 L845.624 408.306 Z" fill="#000000" fill-rule="nonzero" fill-opacity="1" /><path clip-path="url(#clip580)" d="M876.712 408.306 L881.387 408.306 L881.387 422.913 L896.897 408.306 L902.915 408.306 L885.762 424.417 L904.142 442.866 L897.985 442.866 L881.387 426.223 L881.387 442.866 L876.712 442.866 L876.712 408.306 Z" fill="#000000" fill-rule="nonzero" fill-opacity="1" /><path clip-path="url(#clip580)" d="M899.327 408.306 L928.563 408.306 L928.563 412.241 L916.295 412.241 L916.295 442.866 L911.596 442.866 L911.596 412.241 L899.327 412.241 L899.327 408.306 Z" fill="#000000" fill-rule="nonzero" fill-opacity="1" /><path clip-path="url(#clip580)" d="M958.193 406.894 Q955.091 412.218 953.586 417.427 Q952.082 422.635 952.082 427.982 Q952.082 433.329 953.586 438.584 Q955.114 443.815 958.193 449.116 L954.489 449.116 Q951.017 443.676 949.281 438.422 Q947.568 433.167 947.568 427.982 Q947.568 422.82 949.281 417.589 Q950.994 412.357 954.489 406.894 L958.193 406.894 Z" fill="#000000" fill-rule="nonzero" fill-opacity="1" /><path clip-path="url(#clip580)" d="M990.206 437.936 L990.206 428.653 L982.567 428.653 L982.567 424.811 L994.836 424.811 L994.836 439.649 Q992.128 441.57 988.864 442.565 Q985.6 443.538 981.896 443.538 Q973.794 443.538 969.211 438.815 Q964.651 434.07 964.651 425.621 Q964.651 417.149 969.211 412.427 Q973.794 407.681 981.896 407.681 Q985.276 407.681 988.308 408.515 Q991.364 409.348 993.933 410.968 L993.933 415.945 Q991.341 413.746 988.424 412.635 Q985.507 411.524 982.29 411.524 Q975.947 411.524 972.753 415.065 Q969.581 418.607 969.581 425.621 Q969.581 432.612 972.753 436.153 Q975.947 439.695 982.29 439.695 Q984.767 439.695 986.711 439.278 Q988.655 438.839 990.206 437.936 Z" fill="#000000" fill-rule="nonzero" fill-opacity="1" /><path clip-path="url(#clip580)" d="M1008.05 412.149 L1008.05 425.135 L1013.93 425.135 Q1017.2 425.135 1018.98 423.445 Q1020.76 421.755 1020.76 418.63 Q1020.76 415.528 1018.98 413.839 Q1017.2 412.149 1013.93 412.149 L1008.05 412.149 M1003.38 408.306 L1013.93 408.306 Q1019.74 408.306 1022.71 410.945 Q1025.69 413.561 1025.69 418.63 Q1025.69 423.746 1022.71 426.362 Q1019.74 428.977 1013.93 428.977 L1008.05 428.977 L1008.05 442.866 L1003.38 442.866 L1003.38 408.306 Z" fill="#000000" fill-rule="nonzero" fill-opacity="1" /><path clip-path="url(#clip580)" d="M1031.43 408.306 L1036.13 408.306 L1036.13 429.302 Q1036.13 434.857 1038.15 437.311 Q1040.16 439.741 1044.67 439.741 Q1049.16 439.741 1051.18 437.311 Q1053.19 434.857 1053.19 429.302 L1053.19 408.306 L1057.89 408.306 L1057.89 429.88 Q1057.89 436.639 1054.53 440.089 Q1051.2 443.538 1044.67 443.538 Q1038.12 443.538 1034.77 440.089 Q1031.43 436.639 1031.43 429.88 L1031.43 408.306 Z" fill="#000000" fill-rule="nonzero" fill-opacity="1" /><path clip-path="url(#clip580)" d="M1065.81 406.894 L1069.51 406.894 Q1072.98 412.357 1074.7 417.589 Q1076.43 422.82 1076.43 427.982 Q1076.43 433.167 1074.7 438.422 Q1072.98 443.676 1069.51 449.116 L1065.81 449.116 Q1068.89 443.815 1070.39 438.584 Q1071.92 433.329 1071.92 427.982 Q1071.92 422.635 1070.39 417.427 Q1068.89 412.218 1065.81 406.894 Z" fill="#000000" fill-rule="nonzero" fill-opacity="1" /><circle clip-path="url(#clip580)" cx="387.391" cy="477.426" r="20.48" fill="#00a9ad" fill-rule="evenodd" fill-opacity="1" stroke="#000000" stroke-opacity="1" stroke-width="4.55111"/>
<path clip-path="url(#clip580)" d="M482.107 460.146 L489.075 460.146 L497.894 483.665 L506.76 460.146 L513.727 460.146 L513.727 494.706 L509.167 494.706 L509.167 464.359 L500.255 488.063 L495.556 488.063 L486.644 464.359 L486.644 494.706 L482.107 494.706 L482.107 460.146 Z" fill="#000000" fill-rule="nonzero" fill-opacity="1" /><path clip-path="url(#clip580)" d="M534.607 481.674 Q529.445 481.674 527.454 482.854 Q525.463 484.035 525.463 486.882 Q525.463 489.151 526.945 490.493 Q528.45 491.813 531.019 491.813 Q534.561 491.813 536.69 489.313 Q538.843 486.79 538.843 482.623 L538.843 481.674 L534.607 481.674 M543.102 479.915 L543.102 494.706 L538.843 494.706 L538.843 490.771 Q537.385 493.132 535.209 494.266 Q533.033 495.378 529.885 495.378 Q525.903 495.378 523.542 493.155 Q521.204 490.91 521.204 487.16 Q521.204 482.785 524.121 480.563 Q527.061 478.341 532.871 478.341 L538.843 478.341 L538.843 477.924 Q538.843 474.984 536.899 473.387 Q534.977 471.767 531.482 471.767 Q529.26 471.767 527.153 472.299 Q525.047 472.831 523.102 473.896 L523.102 469.961 Q525.44 469.058 527.639 468.618 Q529.838 468.155 531.922 468.155 Q537.547 468.155 540.324 471.072 Q543.102 473.989 543.102 479.915 Z" fill="#000000" fill-rule="nonzero" fill-opacity="1" /><path clip-path="url(#clip580)" d="M568.935 472.716 L568.935 458.688 L573.195 458.688 L573.195 494.706 L568.935 494.706 L568.935 490.817 Q567.593 493.132 565.533 494.266 Q563.496 495.378 560.625 495.378 Q555.926 495.378 552.963 491.628 Q550.023 487.878 550.023 481.767 Q550.023 475.655 552.963 471.905 Q555.926 468.155 560.625 468.155 Q563.496 468.155 565.533 469.29 Q567.593 470.401 568.935 472.716 M554.422 481.767 Q554.422 486.466 556.343 489.151 Q558.287 491.813 561.667 491.813 Q565.047 491.813 566.991 489.151 Q568.935 486.466 568.935 481.767 Q568.935 477.067 566.991 474.405 Q565.047 471.72 561.667 471.72 Q558.287 471.72 556.343 474.405 Q554.422 477.067 554.422 481.767 Z" fill="#000000" fill-rule="nonzero" fill-opacity="1" /><path clip-path="url(#clip580)" d="M582.153 460.146 L588.449 460.146 L603.773 489.058 L603.773 460.146 L608.31 460.146 L608.31 494.706 L602.014 494.706 L586.69 465.794 L586.69 494.706 L582.153 494.706 L582.153 460.146 Z" fill="#000000" fill-rule="nonzero" fill-opacity="1" /><path clip-path="url(#clip580)" d="M643.495 462.808 L643.495 467.739 Q641.134 465.54 638.449 464.452 Q635.787 463.364 632.778 463.364 Q626.852 463.364 623.704 466.998 Q620.555 470.609 620.555 477.461 Q620.555 484.29 623.704 487.924 Q626.852 491.535 632.778 491.535 Q635.787 491.535 638.449 490.447 Q641.134 489.359 643.495 487.16 L643.495 492.044 Q641.042 493.711 638.287 494.544 Q635.555 495.378 632.5 495.378 Q624.653 495.378 620.139 490.586 Q615.625 485.771 615.625 477.461 Q615.625 469.128 620.139 464.336 Q624.653 459.521 632.5 459.521 Q635.602 459.521 638.333 460.355 Q641.088 461.165 643.495 462.808 Z" fill="#000000" fill-rule="nonzero" fill-opacity="1" /><path clip-path="url(#clip580)" d="M650.717 460.146 L655.393 460.146 L655.393 490.771 L672.222 490.771 L672.222 494.706 L650.717 494.706 L650.717 460.146 Z" fill="#000000" fill-rule="nonzero" fill-opacity="1" /><path clip-path="url(#clip580)" d="M702.245 458.734 Q699.143 464.058 697.638 469.267 Q696.134 474.475 696.134 479.822 Q696.134 485.169 697.638 490.424 Q699.166 495.655 702.245 500.956 L698.541 500.956 Q695.069 495.516 693.333 490.262 Q691.62 485.007 691.62 479.822 Q691.62 474.66 693.333 469.429 Q695.046 464.197 698.541 458.734 L702.245 458.734 Z" fill="#000000" fill-rule="nonzero" fill-opacity="1" /><path clip-path="url(#clip580)" d="M734.259 489.776 L734.259 480.493 L726.62 480.493 L726.62 476.651 L738.888 476.651 L738.888 491.489 Q736.18 493.41 732.916 494.405 Q729.652 495.378 725.948 495.378 Q717.847 495.378 713.263 490.655 Q708.703 485.91 708.703 477.461 Q708.703 468.989 713.263 464.267 Q717.847 459.521 725.948 459.521 Q729.328 459.521 732.36 460.355 Q735.416 461.188 737.985 462.808 L737.985 467.785 Q735.393 465.586 732.476 464.475 Q729.56 463.364 726.342 463.364 Q719.999 463.364 716.805 466.905 Q713.634 470.447 713.634 477.461 Q713.634 484.452 716.805 487.993 Q719.999 491.535 726.342 491.535 Q728.819 491.535 730.763 491.118 Q732.708 490.679 734.259 489.776 Z" fill="#000000" fill-rule="nonzero" fill-opacity="1" /><path clip-path="url(#clip580)" d="M752.106 463.989 L752.106 476.975 L757.985 476.975 Q761.249 476.975 763.032 475.285 Q764.814 473.595 764.814 470.47 Q764.814 467.368 763.032 465.679 Q761.249 463.989 757.985 463.989 L752.106 463.989 M747.43 460.146 L757.985 460.146 Q763.795 460.146 766.758 462.785 Q769.745 465.401 769.745 470.47 Q769.745 475.586 766.758 478.202 Q763.795 480.817 757.985 480.817 L752.106 480.817 L752.106 494.706 L747.43 494.706 L747.43 460.146 Z" fill="#000000" fill-rule="nonzero" fill-opacity="1" /><path clip-path="url(#clip580)" d="M775.485 460.146 L780.184 460.146 L780.184 481.142 Q780.184 486.697 782.198 489.151 Q784.212 491.581 788.726 491.581 Q793.217 491.581 795.23 489.151 Q797.244 486.697 797.244 481.142 L797.244 460.146 L801.943 460.146 L801.943 481.72 Q801.943 488.479 798.587 491.929 Q795.254 495.378 788.726 495.378 Q782.175 495.378 778.819 491.929 Q775.485 488.479 775.485 481.72 L775.485 460.146 Z" fill="#000000" fill-rule="nonzero" fill-opacity="1" /><path clip-path="url(#clip580)" d="M809.86 458.734 L813.564 458.734 Q817.036 464.197 818.749 469.429 Q820.485 474.66 820.485 479.822 Q820.485 485.007 818.749 490.262 Q817.036 495.516 813.564 500.956 L809.86 500.956 Q812.939 495.655 814.443 490.424 Q815.971 485.169 815.971 479.822 Q815.971 474.475 814.443 469.267 Q812.939 464.058 809.86 458.734 Z" fill="#000000" fill-rule="nonzero" fill-opacity="1" /></svg>
